<?xml version="1.0" encoding="utf-8"?>
<svg xmlns="http://www.w3.org/2000/svg" xmlns:xlink="http://www.w3.org/1999/xlink" width="600" height="400" viewBox="0 0 2400 1600">
<defs>
  <clipPath id="clip510">
    <rect x="0" y="0" width="2400" height="1600"/>
  </clipPath>
</defs>
<path clip-path="url(#clip510)" d="M0 1600 L2400 1600 L2400 0 L0 0  Z" fill="#ffffff" fill-rule="evenodd" fill-opacity="1"/>
<defs>
  <clipPath id="clip511">
    <rect x="480" y="0" width="1681" height="1600"/>
  </clipPath>
</defs>
<defs>
  <clipPath id="clip512">
    <rect x="86" y="47" width="2267" height="1475"/>
  </clipPath>
</defs>
<polyline clip-path="url(#clip512)" style="stroke:#000000; stroke-linecap:round; stroke-linejoin:round; stroke-width:2; stroke-opacity:0.1; fill:none" points="86.9921,1521.01 86.9921,47.2441 "/>
<polyline clip-path="url(#clip512)" style="stroke:#000000; stroke-linecap:round; stroke-linejoin:round; stroke-width:2; stroke-opacity:0.1; fill:none" points="842.247,1521.01 842.247,47.2441 "/>
<polyline clip-path="url(#clip512)" style="stroke:#000000; stroke-linecap:round; stroke-linejoin:round; stroke-width:2; stroke-opacity:0.1; fill:none" points="1597.5,1521.01 1597.5,47.2441 "/>
<polyline clip-path="url(#clip512)" style="stroke:#000000; stroke-linecap:round; stroke-linejoin:round; stroke-width:2; stroke-opacity:0.1; fill:none" points="2352.76,1521.01 2352.76,47.2441 "/>
<polyline clip-path="url(#clip512)" style="stroke:#000000; stroke-linecap:round; stroke-linejoin:round; stroke-width:2; stroke-opacity:0.1; fill:none" points="86.9921,1521.01 86.9921,47.2441 "/>
<polyline clip-path="url(#clip512)" style="stroke:#000000; stroke-linecap:round; stroke-linejoin:round; stroke-width:2; stroke-opacity:0.1; fill:none" points="842.247,1521.01 842.247,47.2441 "/>
<polyline clip-path="url(#clip512)" style="stroke:#000000; stroke-linecap:round; stroke-linejoin:round; stroke-width:2; stroke-opacity:0.1; fill:none" points="1597.5,1521.01 1597.5,47.2441 "/>
<polyline clip-path="url(#clip512)" style="stroke:#000000; stroke-linecap:round; stroke-linejoin:round; stroke-width:2; stroke-opacity:0.1; fill:none" points="2352.76,1521.01 2352.76,47.2441 "/>
<polyline clip-path="url(#clip512)" style="stroke:#000000; stroke-linecap:round; stroke-linejoin:round; stroke-width:2; stroke-opacity:0.1; fill:none" points="86.9921,1521.01 2352.76,1521.01 "/>
<polyline clip-path="url(#clip512)" style="stroke:#000000; stroke-linecap:round; stroke-linejoin:round; stroke-width:2; stroke-opacity:0.1; fill:none" points="86.9921,1226.26 2352.76,1226.26 "/>
<polyline clip-path="url(#clip512)" style="stroke:#000000; stroke-linecap:round; stroke-linejoin:round; stroke-width:2; stroke-opacity:0.1; fill:none" points="86.9921,931.502 2352.76,931.502 "/>
<polyline clip-path="url(#clip512)" style="stroke:#000000; stroke-linecap:round; stroke-linejoin:round; stroke-width:2; stroke-opacity:0.1; fill:none" points="86.9921,636.75 2352.76,636.75 "/>
<polyline clip-path="url(#clip512)" style="stroke:#000000; stroke-linecap:round; stroke-linejoin:round; stroke-width:2; stroke-opacity:0.1; fill:none" points="86.9921,341.997 2352.76,341.997 "/>
<polyline clip-path="url(#clip512)" style="stroke:#000000; stroke-linecap:round; stroke-linejoin:round; stroke-width:2; stroke-opacity:0.1; fill:none" points="86.9921,47.2441 2352.76,47.2441 "/>
<polyline clip-path="url(#clip512)" style="stroke:#000000; stroke-linecap:round; stroke-linejoin:round; stroke-width:2; stroke-opacity:0.1; fill:none" points="86.9921,1521.01 2352.76,1521.01 "/>
<polyline clip-path="url(#clip512)" style="stroke:#000000; stroke-linecap:round; stroke-linejoin:round; stroke-width:2; stroke-opacity:0.1; fill:none" points="86.9921,1226.26 2352.76,1226.26 "/>
<polyline clip-path="url(#clip512)" style="stroke:#000000; stroke-linecap:round; stroke-linejoin:round; stroke-width:2; stroke-opacity:0.1; fill:none" points="86.9921,931.502 2352.76,931.502 "/>
<polyline clip-path="url(#clip512)" style="stroke:#000000; stroke-linecap:round; stroke-linejoin:round; stroke-width:2; stroke-opacity:0.1; fill:none" points="86.9921,636.75 2352.76,636.75 "/>
<polyline clip-path="url(#clip512)" style="stroke:#000000; stroke-linecap:round; stroke-linejoin:round; stroke-width:2; stroke-opacity:0.1; fill:none" points="86.9921,341.997 2352.76,341.997 "/>
<polyline clip-path="url(#clip512)" style="stroke:#000000; stroke-linecap:round; stroke-linejoin:round; stroke-width:2; stroke-opacity:0.1; fill:none" points="86.9921,47.2441 2352.76,47.2441 "/>
<polyline clip-path="url(#clip510)" style="stroke:#000000; stroke-linecap:round; stroke-linejoin:round; stroke-width:4; stroke-opacity:1; fill:none" points="86.9921,1521.01 2352.76,1521.01 "/>
<polyline clip-path="url(#clip510)" style="stroke:#000000; stroke-linecap:round; stroke-linejoin:round; stroke-width:4; stroke-opacity:1; fill:none" points="86.9921,47.2441 2352.76,47.2441 "/>
<polyline clip-path="url(#clip510)" style="stroke:#000000; stroke-linecap:round; stroke-linejoin:round; stroke-width:4; stroke-opacity:1; fill:none" points="86.9921,1521.01 86.9921,1502.11 "/>
<polyline clip-path="url(#clip510)" style="stroke:#000000; stroke-linecap:round; stroke-linejoin:round; stroke-width:4; stroke-opacity:1; fill:none" points="842.247,1521.01 842.247,1502.11 "/>
<polyline clip-path="url(#clip510)" style="stroke:#000000; stroke-linecap:round; stroke-linejoin:round; stroke-width:4; stroke-opacity:1; fill:none" points="1597.5,1521.01 1597.5,1502.11 "/>
<polyline clip-path="url(#clip510)" style="stroke:#000000; stroke-linecap:round; stroke-linejoin:round; stroke-width:4; stroke-opacity:1; fill:none" points="2352.76,1521.01 2352.76,1502.11 "/>
<polyline clip-path="url(#clip510)" style="stroke:#000000; stroke-linecap:round; stroke-linejoin:round; stroke-width:4; stroke-opacity:1; fill:none" points="86.9921,47.2441 86.9921,66.1417 "/>
<polyline clip-path="url(#clip510)" style="stroke:#000000; stroke-linecap:round; stroke-linejoin:round; stroke-width:4; stroke-opacity:1; fill:none" points="842.247,47.2441 842.247,66.1417 "/>
<polyline clip-path="url(#clip510)" style="stroke:#000000; stroke-linecap:round; stroke-linejoin:round; stroke-width:4; stroke-opacity:1; fill:none" points="1597.5,47.2441 1597.5,66.1417 "/>
<polyline clip-path="url(#clip510)" style="stroke:#000000; stroke-linecap:round; stroke-linejoin:round; stroke-width:4; stroke-opacity:1; fill:none" points="2352.76,47.2441 2352.76,66.1417 "/>
<polyline clip-path="url(#clip510)" style="stroke:#000000; stroke-linecap:round; stroke-linejoin:round; stroke-width:4; stroke-opacity:1; fill:none" points="86.9921,1521.01 86.9921,47.2441 "/>
<polyline clip-path="url(#clip510)" style="stroke:#000000; stroke-linecap:round; stroke-linejoin:round; stroke-width:4; stroke-opacity:1; fill:none" points="2352.76,1521.01 2352.76,47.2441 "/>
<polyline clip-path="url(#clip510)" style="stroke:#000000; stroke-linecap:round; stroke-linejoin:round; stroke-width:4; stroke-opacity:1; fill:none" points="86.9921,1521.01 105.89,1521.01 "/>
<polyline clip-path="url(#clip510)" style="stroke:#000000; stroke-linecap:round; stroke-linejoin:round; stroke-width:4; stroke-opacity:1; fill:none" points="86.9921,1226.26 105.89,1226.26 "/>
<polyline clip-path="url(#clip510)" style="stroke:#000000; stroke-linecap:round; stroke-linejoin:round; stroke-width:4; stroke-opacity:1; fill:none" points="86.9921,931.502 105.89,931.502 "/>
<polyline clip-path="url(#clip510)" style="stroke:#000000; stroke-linecap:round; stroke-linejoin:round; stroke-width:4; stroke-opacity:1; fill:none" points="86.9921,636.75 105.89,636.75 "/>
<polyline clip-path="url(#clip510)" style="stroke:#000000; stroke-linecap:round; stroke-linejoin:round; stroke-width:4; stroke-opacity:1; fill:none" points="86.9921,341.997 105.89,341.997 "/>
<polyline clip-path="url(#clip510)" style="stroke:#000000; stroke-linecap:round; stroke-linejoin:round; stroke-width:4; stroke-opacity:1; fill:none" points="86.9921,47.2441 105.89,47.2441 "/>
<polyline clip-path="url(#clip510)" style="stroke:#000000; stroke-linecap:round; stroke-linejoin:round; stroke-width:4; stroke-opacity:1; fill:none" points="2352.76,1521.01 2333.86,1521.01 "/>
<polyline clip-path="url(#clip510)" style="stroke:#000000; stroke-linecap:round; stroke-linejoin:round; stroke-width:4; stroke-opacity:1; fill:none" points="2352.76,1226.26 2333.86,1226.26 "/>
<polyline clip-path="url(#clip510)" style="stroke:#000000; stroke-linecap:round; stroke-linejoin:round; stroke-width:4; stroke-opacity:1; fill:none" points="2352.76,931.502 2333.86,931.502 "/>
<polyline clip-path="url(#clip510)" style="stroke:#000000; stroke-linecap:round; stroke-linejoin:round; stroke-width:4; stroke-opacity:1; fill:none" points="2352.76,636.75 2333.86,636.75 "/>
<polyline clip-path="url(#clip510)" style="stroke:#000000; stroke-linecap:round; stroke-linejoin:round; stroke-width:4; stroke-opacity:1; fill:none" points="2352.76,341.997 2333.86,341.997 "/>
<polyline clip-path="url(#clip510)" style="stroke:#000000; stroke-linecap:round; stroke-linejoin:round; stroke-width:4; stroke-opacity:1; fill:none" points="2352.76,47.2441 2333.86,47.2441 "/>
<polyline clip-path="url(#clip512)" style="stroke:#009af9; stroke-linecap:round; stroke-linejoin:round; stroke-width:32; stroke-opacity:0.8; fill:none" points="86.9921,61.9817 89.2602,62.4254 91.5282,62.8802 93.7962,63.3465 96.0643,63.8246 98.3323,64.3147 100.6,64.8171 102.868,65.3321 105.136,65.86 107.404,66.4012 109.672,66.956 111.94,67.5247 114.209,68.1076 116.477,68.7051 118.745,69.3174 121.013,69.9451 123.281,70.5884 125.549,71.2478 127.817,71.9235 130.085,72.6161 132.353,73.3258 134.621,74.0532 136.889,74.7985 139.157,75.5623 141.425,76.345 143.693,77.147 145.961,77.9688 148.229,78.8108 150.497,79.6735 152.765,80.5574 155.033,81.463 157.301,82.3907 159.569,83.3411 161.837,84.3148 164.105,85.3121 166.373,86.3338 168.641,87.3802 170.909,88.4521 173.177,89.5499 175.445,90.6742 177.713,91.8257 179.981,93.0049 182.249,94.2124 184.517,95.449 186.786,96.7151 189.054,98.0115 191.322,99.3389 193.59,100.698 195.858,102.089 198.126,103.513 200.394,104.971 202.662,106.463 204.93,107.99 207.198,109.553 209.466,111.153 211.734,112.79 214.002,114.465 216.27,116.179 218.538,117.933 220.806,119.727 223.074,121.563 225.342,123.44 227.61,125.361 229.878,127.325 232.146,129.334 234.414,131.389 236.682,133.49 238.95,135.638 241.218,137.834 243.486,140.079 245.754,142.374 248.022,144.72 250.29,147.118 252.558,149.568 254.826,152.072 257.095,154.63 259.363,157.244 261.631,159.914 263.899,162.642 266.167,165.428 268.435,168.273 270.703,171.179 272.971,174.145 275.239,177.174 277.507,180.266 279.775,183.422 282.043,186.642 284.311,189.929 286.579,193.282 288.847,196.703 291.115,200.193 293.383,203.752 295.651,207.382 297.919,211.083 300.187,214.856 302.455,218.702 304.723,222.622 306.991,226.617 309.259,230.687 311.527,234.834 313.795,239.058 316.063,243.361 318.331,247.742 320.599,252.202 322.867,256.743 325.135,261.365 327.403,266.069 329.672,270.854 331.94,275.722 334.208,280.674 336.476,285.708 338.744,290.827 341.012,296.03 343.28,301.318 345.548,306.691 347.816,312.149 350.084,317.693 352.352,323.322 354.62,329.038 356.888,334.839 359.156,340.727 361.424,346.701 363.692,352.761 365.96,358.907 368.228,365.139 370.496,371.456 372.764,377.859 375.032,384.346 377.3,390.918 379.568,397.573 381.836,404.312 384.104,411.134 386.372,418.037 388.64,425.021 390.908,432.085 393.176,439.229 395.444,446.451 397.712,453.75 399.981,461.124 402.249,468.574 404.517,476.097 406.785,483.692 409.053,491.358 411.321,499.093 413.589,506.896 415.857,514.765 418.125,522.699 420.393,530.695 422.661,538.751 424.929,546.867 427.197,555.04 429.465,563.267 431.733,571.548 434.001,579.879 436.269,588.258 438.537,596.684 440.805,605.154 443.073,613.667 445.341,622.22 447.609,630.811 449.877,639.436 452.145,648.092 454.413,656.777 456.681,665.488 458.949,674.222 461.217,682.977 463.485,691.749 465.753,700.537 468.021,709.337 470.29,718.146 472.558,726.963 474.826,735.784 477.094,744.607 479.362,753.429 481.63,762.248 483.898,771.06 486.166,779.864 488.434,788.657 490.702,797.436 492.97,806.199 495.238,814.944 497.506,823.667 499.774,832.366 502.042,841.039 504.31,849.683 506.578,858.297 508.846,866.877 511.114,875.421 513.382,883.927 515.65,892.392 517.918,900.814 520.186,909.191 522.454,917.52 524.722,925.799 526.99,934.026 529.258,942.198 531.526,950.314 533.794,958.373 536.062,966.373 538.33,974.312 540.598,982.19 542.867,990.003 545.135,997.752 547.403,1005.44 549.671,1013.05 551.939,1020.6 554.207,1028.07 556.475,1035.48 558.743,1042.81 561.011,1050.08 563.279,1057.26 565.547,1064.38 567.815,1071.41 570.083,1078.37 572.351,1085.26 574.619,1092.07 576.887,1098.8 579.155,1105.45 581.423,1112.02 583.691,1118.51 585.959,1124.92 588.227,1131.26 590.495,1137.51 592.763,1143.68 595.031,1149.77 597.299,1155.78 599.567,1161.72 601.835,1167.57 604.103,1173.34 606.371,1179.03 608.639,1184.64 610.907,1190.17 613.176,1195.63 615.444,1201 617.712,1206.3 619.98,1211.51 622.248,1216.66 624.516,1221.72 626.784,1226.71 629.052,1231.62 631.32,1236.46 633.588,1241.22 635.856,1245.91 638.124,1250.52 640.392,1255.06 642.66,1259.53 644.928,1263.93 647.196,1268.26 649.464,1272.52 651.732,1276.7 654,1280.83 656.268,1284.88 658.536,1288.86 660.804,1292.78 663.072,1296.64 665.34,1300.43 667.608,1304.16 669.876,1307.82 672.144,1311.42 674.412,1314.96 676.68,1318.44 678.948,1321.86 681.216,1325.22 683.484,1328.52 685.753,1331.76 688.021,1334.95 690.289,1338.08 692.557,1341.15 694.825,1344.17 697.093,1347.14 699.361,1350.05 701.629,1352.92 703.897,1355.73 706.165,1358.49 708.433,1361.2 710.701,1363.86 712.969,1366.47 715.237,1369.04 717.505,1371.56 719.773,1374.04 722.041,1376.47 724.309,1378.85 726.577,1381.2 728.845,1383.5 731.113,1385.76 733.381,1387.98 735.649,1390.16 737.917,1392.3 740.185,1394.4 742.453,1396.46 744.721,1398.49 746.989,1400.48 749.257,1402.43 751.525,1404.35 753.793,1406.23 756.062,1408.08 758.33,1409.89 760.598,1411.67 762.866,1413.42 765.134,1415.13 767.402,1416.82 769.67,1418.47 771.938,1420.1 774.206,1421.69 776.474,1423.26 778.742,1424.79 781.01,1426.3 783.278,1427.79 785.546,1429.24 787.814,1430.67 790.082,1432.07 792.35,1433.45 794.618,1434.8 796.886,1436.12 799.154,1437.43 801.422,1438.71 803.69,1439.96 805.958,1441.2 808.226,1442.41 810.494,1443.6 812.762,1444.77 815.03,1445.91 817.298,1447.04 819.566,1448.15 821.834,1449.23 824.102,1450.3 826.37,1451.35 828.639,1452.38 830.907,1453.39 833.175,1454.38 835.443,1455.36 837.711,1456.31 839.979,1457.26 842.247,1458.18 844.515,1459.09 846.783,1459.98 849.051,1460.86 851.319,1461.72 853.587,1462.57 855.855,1463.4 858.123,1464.21 860.391,1465.02 862.659,1465.81 864.927,1466.58 867.195,1467.34 869.463,1468.09 871.731,1468.82 873.999,1469.55 876.267,1470.26 878.535,1470.95 880.803,1471.64 883.071,1472.31 885.339,1472.98 887.607,1473.63 889.875,1474.27 892.143,1474.9 894.411,1475.52 896.679,1476.12 898.948,1476.72 901.216,1477.31 903.484,1477.89 905.752,1478.46 908.02,1479.01 910.288,1479.56 912.556,1480.1 914.824,1480.64 917.092,1481.16 919.36,1481.67 921.628,1482.18 923.896,1482.67 926.164,1483.16 928.432,1483.64 930.7,1484.12 932.968,1484.58 935.236,1485.04 937.504,1485.49 939.772,1485.93 942.04,1486.37 944.308,1486.8 946.576,1487.22 948.844,1487.64 951.112,1488.04 953.38,1488.45 955.648,1488.84 957.916,1489.23 960.184,1489.61 962.452,1489.99 964.72,1490.36 966.988,1490.73 969.257,1491.09 971.525,1491.44 973.793,1491.79 976.061,1492.13 978.329,1492.47 980.597,1492.8 982.865,1493.13 985.133,1493.45 987.401,1493.77 989.669,1494.08 991.937,1494.39 994.205,1494.69 996.473,1494.99 998.741,1495.28 1001.01,1495.57 1003.28,1495.85 1005.55,1496.13 1007.81,1496.41 1010.08,1496.68 1012.35,1496.95 1014.62,1497.21 1016.89,1497.47 1019.15,1497.73 1021.42,1497.98 1023.69,1498.23 1025.96,1498.47 1028.23,1498.71 1030.49,1498.95 1032.76,1499.19 1035.03,1499.42 1037.3,1499.64 1039.57,1499.87 1041.83,1500.09 1044.1,1500.31 1046.37,1500.52 1048.64,1500.73 1050.91,1500.94 1053.17,1501.15 1055.44,1501.35 1057.71,1501.55 1059.98,1501.75 1062.25,1501.94 1064.51,1502.13 1066.78,1502.32 1069.05,1502.51 1071.32,1502.69 1073.59,1502.87 1075.85,1503.05 1078.12,1503.23 1080.39,1503.4 1082.66,1503.57 1084.93,1503.74 1087.19,1503.91 1089.46,1504.07 1091.73,1504.23 1094,1504.39 1096.27,1504.55 1098.53,1504.7 1100.8,1504.86 1103.07,1505.01 1105.34,1505.16 1107.61,1505.3 1109.87,1505.45 1112.14,1505.59 1114.41,1505.73 1116.68,1505.87 1118.95,1506.01 1121.21,1506.15 1123.48,1506.28 1125.75,1506.41 1128.02,1506.54 1130.29,1506.67 1132.55,1506.8 1134.82,1506.92 1137.09,1507.05 1139.36,1507.17 1141.63,1507.29 1143.89,1507.41 1146.16,1507.53 1148.43,1507.64 1150.7,1507.76 1152.97,1507.87 1155.24,1507.98 1157.5,1508.09 1159.77,1508.2 1162.04,1508.31 1164.31,1508.41 1166.58,1508.52 1168.84,1508.62 1171.11,1508.72 1173.38,1508.82 1175.65,1508.92 1177.92,1509.02 1180.18,1509.12 1182.45,1509.21 1184.72,1509.31 1186.99,1509.4 1189.26,1509.5 1191.52,1509.59 1193.79,1509.68 1196.06,1509.77 1198.33,1509.85 1200.6,1509.94 1202.86,1510.03 1205.13,1510.11 1207.4,1510.2 1209.67,1510.28 1211.94,1510.36 1214.2,1510.44 1216.47,1510.52 1218.74,1510.6 1221.01,1510.68 1223.28,1510.76 1225.54,1510.83 1227.81,1510.91 1230.08,1510.98 1232.35,1511.06 1234.62,1511.13 1236.88,1511.2 1239.15,1511.27 1241.42,1511.34 1243.69,1511.41 1245.96,1511.48 1248.22,1511.55 1250.49,1511.62 1252.76,1511.68 1255.03,1511.75 1257.3,1511.81 1259.56,1511.88 1261.83,1511.94 1264.1,1512 1266.37,1512.07 1268.64,1512.13 1270.9,1512.19 1273.17,1512.25 1275.44,1512.31 1277.71,1512.37 1279.98,1512.43 1282.24,1512.48 1284.51,1512.54 1286.78,1512.6 1289.05,1512.65 1291.32,1512.71 1293.59,1512.76 1295.85,1512.81 1298.12,1512.87 1300.39,1512.92 1302.66,1512.97 1304.93,1513.02 1307.19,1513.07 1309.46,1513.12 1311.73,1513.17 1314,1513.22 1316.27,1513.27 1318.53,1513.32 1320.8,1513.37 1323.07,1513.41 1325.34,1513.46 1327.61,1513.51 1329.87,1513.55 1332.14,1513.6 1334.41,1513.64 1336.68,1513.69 1338.95,1513.73 1341.21,1513.77 1343.48,1513.82 1345.75,1513.86 1348.02,1513.9 1350.29,1513.94 1352.55,1513.98 1354.82,1514.03 1357.09,1514.07 1359.36,1514.11 1361.63,1514.15 1363.89,1514.18 1366.16,1514.22 1368.43,1514.26 1370.7,1514.3 1372.97,1514.34 1375.23,1514.38 1377.5,1514.41 1379.77,1514.45 1382.04,1514.48 1384.31,1514.52 1386.57,1514.56 1388.84,1514.59 1391.11,1514.63 1393.38,1514.66 1395.65,1514.69 1397.91,1514.73 1400.18,1514.76 1402.45,1514.8 1404.72,1514.83 1406.99,1514.86 1409.25,1514.89 1411.52,1514.93 1413.79,1514.96 1416.06,1514.99 1418.33,1515.02 1420.59,1515.05 1422.86,1515.08 1425.13,1515.11 1427.4,1515.14 1429.67,1515.17 1431.93,1515.2 1434.2,1515.23 1436.47,1515.26 1438.74,1515.29 1441.01,1515.31 1443.28,1515.34 1445.54,1515.37 1447.81,1515.4 1450.08,1515.42 1452.35,1515.45 1454.62,1515.48 1456.88,1515.5 1459.15,1515.53 1461.42,1515.56 1463.69,1515.58 1465.96,1515.61 1468.22,1515.63 1470.49,1515.66 1472.76,1515.68 1475.03,1515.71 1477.3,1515.73 1479.56,1515.76 1481.83,1515.78 1484.1,1515.8 1486.37,1515.83 1488.64,1515.85 1490.9,1515.87 1493.17,1515.9 1495.44,1515.92 1497.71,1515.94 1499.98,1515.96 1502.24,1515.99 1504.51,1516.01 1506.78,1516.03 1509.05,1516.05 1511.32,1516.07 1513.58,1516.09 1515.85,1516.11 1518.12,1516.14 1520.39,1516.16 1522.66,1516.18 1524.92,1516.2 1527.19,1516.22 1529.46,1516.24 1531.73,1516.26 1534,1516.28 1536.26,1516.3 1538.53,1516.31 1540.8,1516.33 1543.07,1516.35 1545.34,1516.37 1547.6,1516.39 1549.87,1516.41 1552.14,1516.43 1554.41,1516.44 1556.68,1516.46 1558.94,1516.48 1561.21,1516.5 1563.48,1516.52 1565.75,1516.53 1568.02,1516.55 1570.28,1516.57 1572.55,1516.58 1574.82,1516.6 1577.09,1516.62 1579.36,1516.63 1581.63,1516.65 1583.89,1516.67 1586.16,1516.68 1588.43,1516.7 1590.7,1516.72 1592.97,1516.73 1595.23,1516.75 1597.5,1516.76 1599.77,1516.78 1602.04,1516.79 1604.31,1516.81 1606.57,1516.82 1608.84,1516.84 1611.11,1516.85 1613.38,1516.87 1615.65,1516.88 1617.91,1516.9 1620.18,1516.91 1622.45,1516.93 1624.72,1516.94 1626.99,1516.95 1629.25,1516.97 1631.52,1516.98 1633.79,1516.99 1636.06,1517.01 1638.33,1517.02 1640.59,1517.03 1642.86,1517.05 1645.13,1517.06 1647.4,1517.07 1649.67,1517.09 1651.93,1517.1 1654.2,1517.11 1656.47,1517.13 1658.74,1517.14 1661.01,1517.15 1663.27,1517.16 1665.54,1517.18 1667.81,1517.19 1670.08,1517.2 1672.35,1517.21 1674.61,1517.22 1676.88,1517.24 1679.15,1517.25 1681.42,1517.26 1683.69,1517.27 1685.95,1517.28 1688.22,1517.29 1690.49,1517.3 1692.76,1517.32 1695.03,1517.33 1697.29,1517.34 1699.56,1517.35 1701.83,1517.36 1704.1,1517.37 1706.37,1517.38 1708.63,1517.39 1710.9,1517.4 1713.17,1517.41 1715.44,1517.42 1717.71,1517.43 1719.98,1517.44 1722.24,1517.45 1724.51,1517.46 1726.78,1517.47 1729.05,1517.48 1731.32,1517.49 1733.58,1517.5 1735.85,1517.51 1738.12,1517.52 1740.39,1517.53 1742.66,1517.54 1744.92,1517.55 1747.19,1517.56 1749.46,1517.57 1751.73,1517.58 1754,1517.59 1756.26,1517.6 1758.53,1517.61 1760.8,1517.62 1763.07,1517.62 1765.34,1517.63 1767.6,1517.64 1769.87,1517.65 1772.14,1517.66 1774.41,1517.67 1776.68,1517.68 1778.94,1517.69 1781.21,1517.69 1783.48,1517.7 1785.75,1517.71 1788.02,1517.72 1790.28,1517.73 1792.55,1517.74 1794.82,1517.74 1797.09,1517.75 1799.36,1517.76 1801.62,1517.77 1803.89,1517.78 1806.16,1517.78 1808.43,1517.79 1810.7,1517.8 1812.96,1517.81 1815.23,1517.81 1817.5,1517.82 1819.77,1517.83 1822.04,1517.84 1824.3,1517.84 1826.57,1517.85 1828.84,1517.86 1831.11,1517.87 1833.38,1517.87 1835.64,1517.88 1837.91,1517.89 1840.18,1517.89 1842.45,1517.9 1844.72,1517.91 1846.98,1517.92 1849.25,1517.92 1851.52,1517.93 1853.79,1517.94 1856.06,1517.94 1858.32,1517.95 1860.59,1517.96 1862.86,1517.96 1865.13,1517.97 1867.4,1517.98 1869.67,1517.98 1871.93,1517.99 1874.2,1518 1876.47,1518 1878.74,1518.01 1881.01,1518.01 1883.27,1518.02 1885.54,1518.03 1887.81,1518.03 1890.08,1518.04 1892.35,1518.04 1894.61,1518.05 1896.88,1518.06 1899.15,1518.06 1901.42,1518.07 1903.69,1518.07 1905.95,1518.08 1908.22,1518.09 1910.49,1518.09 1912.76,1518.1 1915.03,1518.1 1917.29,1518.11 1919.56,1518.11 1921.83,1518.12 1924.1,1518.13 1926.37,1518.13 1928.63,1518.14 1930.9,1518.14 1933.17,1518.15 1935.44,1518.15 1937.71,1518.16 1939.97,1518.16 1942.24,1518.17 1944.51,1518.17 1946.78,1518.18 1949.05,1518.18 1951.31,1518.19 1953.58,1518.2 1955.85,1518.2 1958.12,1518.21 1960.39,1518.21 1962.65,1518.22 1964.92,1518.22 1967.19,1518.23 1969.46,1518.23 1971.73,1518.24 1973.99,1518.24 1976.26,1518.24 1978.53,1518.25 1980.8,1518.25 1983.07,1518.26 1985.33,1518.26 1987.6,1518.27 1989.87,1518.27 1992.14,1518.28 1994.41,1518.28 1996.67,1518.29 1998.94,1518.29 2001.21,1518.3 2003.48,1518.3 2005.75,1518.3 2008.02,1518.31 2010.28,1518.31 2012.55,1518.32 2014.82,1518.32 2017.09,1518.33 2019.36,1518.33 2021.62,1518.33 2023.89,1518.34 2026.16,1518.34 2028.43,1518.35 2030.7,1518.35 2032.96,1518.36 2035.23,1518.36 2037.5,1518.36 2039.77,1518.37 2042.04,1518.37 2044.3,1518.38 2046.57,1518.38 2048.84,1518.38 2051.11,1518.39 2053.38,1518.39 2055.64,1518.4 2057.91,1518.4 2060.18,1518.4 2062.45,1518.41 2064.72,1518.41 2066.98,1518.41 2069.25,1518.42 2071.52,1518.42 2073.79,1518.43 2076.06,1518.43 2078.32,1518.43 2080.59,1518.44 2082.86,1518.44 2085.13,1518.44 2087.4,1518.45 2089.66,1518.45 2091.93,1518.45 2094.2,1518.46 2096.47,1518.46 2098.74,1518.47 2101,1518.47 2103.27,1518.47 2105.54,1518.48 2107.81,1518.48 2110.08,1518.48 2112.34,1518.49 2114.61,1518.49 2116.88,1518.49 2119.15,1518.5 2121.42,1518.5 2123.68,1518.5 2125.95,1518.51 2128.22,1518.51 2130.49,1518.51 2132.76,1518.52 2135.02,1518.52 2137.29,1518.52 2139.56,1518.52 2141.83,1518.53 2144.1,1518.53 2146.37,1518.53 2148.63,1518.54 2150.9,1518.54 2153.17,1518.54 2155.44,1518.55 2157.71,1518.55 2159.97,1518.55 2162.24,1518.56 2164.51,1518.56 2166.78,1518.56 2169.05,1518.56 2171.31,1518.57 2173.58,1518.57 2175.85,1518.57 2178.12,1518.58 2180.39,1518.58 2182.65,1518.58 2184.92,1518.58 2187.19,1518.59 2189.46,1518.59 2191.73,1518.59 2193.99,1518.59 2196.26,1518.6 2198.53,1518.6 2200.8,1518.6 2203.07,1518.61 2205.33,1518.61 2207.6,1518.61 2209.87,1518.61 2212.14,1518.62 2214.41,1518.62 2216.67,1518.62 2218.94,1518.62 2221.21,1518.63 2223.48,1518.63 2225.75,1518.63 2228.01,1518.63 2230.28,1518.64 2232.55,1518.64 2234.82,1518.64 2237.09,1518.64 2239.35,1518.65 2241.62,1518.65 2243.89,1518.65 2246.16,1518.65 2248.43,1518.66 2250.69,1518.66 2252.96,1518.66 2255.23,1518.66 2257.5,1518.67 2259.77,1518.67 2262.03,1518.67 2264.3,1518.67 2266.57,1518.67 2268.84,1518.68 2271.11,1518.68 2273.37,1518.68 2275.64,1518.68 2277.91,1518.69 2280.18,1518.69 2282.45,1518.69 2284.71,1518.69 2286.98,1518.7 2289.25,1518.7 2291.52,1518.7 2293.79,1518.7 2296.06,1518.7 2298.32,1518.71 2300.59,1518.71 2302.86,1518.71 2305.13,1518.71 2307.4,1518.71 2309.66,1518.72 2311.93,1518.72 2314.2,1518.72 2316.47,1518.72 2318.74,1518.72 2321,1518.73 2323.27,1518.73 2325.54,1518.73 2327.81,1518.73 2330.08,1518.73 2332.34,1518.74 2334.61,1518.74 2336.88,1518.74 2339.15,1518.74 2341.42,1518.74 2343.68,1518.75 2345.95,1518.75 2348.22,1518.75 2350.49,1518.75 2352.76,1518.75 "/>
<polyline clip-path="url(#clip512)" style="stroke:#e26f46; stroke-linecap:round; stroke-linejoin:round; stroke-width:32; stroke-opacity:0.8; fill:none" points="86.9921,1506.27 89.2602,1505.89 91.5282,1505.51 93.7962,1505.11 96.0643,1504.71 98.3323,1504.29 100.6,1503.86 102.868,1503.43 105.136,1502.98 107.404,1502.52 109.672,1502.05 111.94,1501.57 114.209,1501.07 116.477,1500.57 118.745,1500.05 121.013,1499.52 123.281,1498.97 125.549,1498.41 127.817,1497.84 130.085,1497.25 132.353,1496.65 134.621,1496.04 136.889,1495.4 139.157,1494.76 141.425,1494.09 143.693,1493.41 145.961,1492.72 148.229,1492.01 150.497,1491.28 152.765,1490.53 155.033,1489.76 157.301,1488.98 159.569,1488.17 161.837,1487.35 164.105,1486.5 166.373,1485.64 168.641,1484.75 170.909,1483.85 173.177,1482.92 175.445,1481.97 177.713,1481 179.981,1480 182.249,1478.98 184.517,1477.93 186.786,1476.86 189.054,1475.77 191.322,1474.65 193.59,1473.5 195.858,1472.32 198.126,1471.12 200.394,1469.89 202.662,1468.63 204.93,1467.34 207.198,1466.03 209.466,1464.68 211.734,1463.3 214.002,1461.89 216.27,1460.44 218.538,1458.96 220.806,1457.45 223.074,1455.91 225.342,1454.33 227.61,1452.71 229.878,1451.06 232.146,1449.37 234.414,1447.64 236.682,1445.87 238.95,1444.07 241.218,1442.22 243.486,1440.33 245.754,1438.41 248.022,1436.44 250.29,1434.43 252.558,1432.37 254.826,1430.27 257.095,1428.13 259.363,1425.93 261.631,1423.7 263.899,1421.41 266.167,1419.08 268.435,1416.7 270.703,1414.27 272.971,1411.79 275.239,1409.26 277.507,1406.68 279.775,1404.04 282.043,1401.35 284.311,1398.61 286.579,1395.82 288.847,1392.97 291.115,1390.06 293.383,1387.1 295.651,1384.08 297.919,1381 300.187,1377.86 302.455,1374.67 304.723,1371.42 306.991,1368.1 309.259,1364.73 311.527,1361.29 313.795,1357.8 316.063,1354.24 318.331,1350.62 320.599,1346.93 322.867,1343.18 325.135,1339.37 327.403,1335.49 329.672,1331.55 331.94,1327.55 334.208,1323.48 336.476,1319.34 338.744,1315.14 341.012,1310.87 343.28,1306.54 345.548,1302.15 347.816,1297.68 350.084,1293.16 352.352,1288.56 354.62,1283.9 356.888,1279.18 359.156,1274.39 361.424,1269.54 363.692,1264.63 365.96,1259.65 368.228,1254.6 370.496,1249.5 372.764,1244.33 375.032,1239.1 377.3,1233.81 379.568,1228.46 381.836,1223.05 384.104,1217.58 386.372,1212.06 388.64,1206.48 390.908,1200.84 393.176,1195.16 395.444,1189.41 397.712,1183.62 399.981,1177.78 402.249,1171.89 404.517,1165.95 406.785,1159.97 409.053,1153.95 411.321,1147.88 413.589,1141.77 415.857,1135.62 418.125,1129.44 420.393,1123.22 422.661,1116.97 424.929,1110.69 427.197,1104.38 429.465,1098.04 431.733,1091.68 434.001,1085.3 436.269,1078.9 438.537,1072.48 440.805,1066.04 443.073,1059.59 445.341,1053.13 447.609,1046.66 449.877,1040.19 452.145,1033.71 454.413,1027.24 456.681,1020.77 458.949,1014.3 461.217,1007.84 463.485,1001.4 465.753,994.966 468.021,988.55 470.29,982.154 472.558,975.779 474.826,969.428 477.094,963.104 479.362,956.809 481.63,950.546 483.898,944.317 486.166,938.124 488.434,931.971 490.702,925.858 492.97,919.79 495.238,913.767 497.506,907.792 499.774,901.868 502.042,895.997 504.31,890.181 506.578,884.422 508.846,878.722 511.114,873.084 513.382,867.509 515.65,862 517.918,856.558 520.186,851.187 522.454,845.887 524.722,840.66 526.99,835.51 529.258,830.437 531.526,825.443 533.794,820.528 536.062,815.695 538.33,810.944 540.598,806.276 542.867,801.693 545.135,797.195 547.403,792.783 549.671,788.458 551.939,784.221 554.207,780.073 556.475,776.014 558.743,772.044 561.011,768.166 563.279,764.378 565.547,760.681 567.815,757.077 570.083,753.564 572.351,750.144 574.619,746.816 576.887,743.581 579.155,740.439 581.423,737.39 583.691,734.434 585.959,731.57 588.227,728.799 590.495,726.121 592.763,723.534 595.031,721.04 597.299,718.637 599.567,716.325 601.835,714.103 604.103,711.972 606.371,709.93 608.639,707.977 610.907,706.111 613.176,704.333 615.444,702.642 617.712,701.036 619.98,699.514 622.248,698.076 624.516,696.721 626.784,695.449 629.052,694.258 631.32,693.148 633.588,692.118 635.856,691.165 638.124,690.291 640.392,689.492 642.66,688.769 644.928,688.121 647.196,687.545 649.464,687.042 651.732,686.61 654,686.248 656.268,685.955 658.536,685.731 660.804,685.573 663.072,685.481 665.34,685.454 667.608,685.491 669.876,685.591 672.144,685.753 674.412,685.975 676.68,686.257 678.948,686.598 681.216,686.996 683.484,687.451 685.753,687.962 688.021,688.527 690.289,689.146 692.557,689.817 694.825,690.539 697.093,691.312 699.361,692.134 701.629,693.005 703.897,693.922 706.165,694.886 708.433,695.895 710.701,696.948 712.969,698.045 715.237,699.183 717.505,700.362 719.773,701.582 722.041,702.84 724.309,704.136 726.577,705.469 728.845,706.838 731.113,708.242 733.381,709.68 735.649,711.151 737.917,712.656 740.185,714.192 742.453,715.76 744.721,717.358 746.989,718.985 749.257,720.641 751.525,722.325 753.793,724.037 756.062,725.775 758.33,727.539 760.598,729.328 762.866,731.142 765.134,732.979 767.402,734.839 769.67,736.722 771.938,738.626 774.206,740.551 776.474,742.497 778.742,744.463 781.01,746.448 783.278,748.451 785.546,750.472 787.814,752.511 790.082,754.566 792.35,756.637 794.618,758.724 796.886,760.827 799.154,762.944 801.422,765.074 803.69,767.219 805.958,769.376 808.226,771.546 810.494,773.728 812.762,775.921 815.03,778.125 817.298,780.34 819.566,782.566 821.834,784.801 824.102,787.045 826.37,789.298 828.639,791.56 830.907,793.829 833.175,796.107 835.443,798.391 837.711,800.683 839.979,802.981 842.247,805.285 844.515,807.595 846.783,809.911 849.051,812.232 851.319,814.558 853.587,816.889 855.855,819.223 858.123,821.562 860.391,823.905 862.659,826.251 864.927,828.6 867.195,830.953 869.463,833.307 871.731,835.665 873.999,838.024 876.267,840.385 878.535,842.748 880.803,845.112 883.071,847.477 885.339,849.844 887.607,852.21 889.875,854.578 892.143,856.945 894.411,859.313 896.679,861.68 898.948,864.047 901.216,866.413 903.484,868.779 905.752,871.144 908.02,873.507 910.288,875.869 912.556,878.23 914.824,880.589 917.092,882.946 919.36,885.301 921.628,887.654 923.896,890.004 926.164,892.352 928.432,894.698 930.7,897.041 932.968,899.381 935.236,901.718 937.504,904.052 939.772,906.383 942.04,908.711 944.308,911.035 946.576,913.355 948.844,915.672 951.112,917.985 953.38,920.294 955.648,922.599 957.916,924.9 960.184,927.197 962.452,929.49 964.72,931.778 966.988,934.062 969.257,936.341 971.525,938.616 973.793,940.886 976.061,943.151 978.329,945.412 980.597,947.667 982.865,949.918 985.133,952.163 987.401,954.403 989.669,956.639 991.937,958.869 994.205,961.093 996.473,963.312 998.741,965.526 1001.01,967.735 1003.28,969.937 1005.55,972.135 1007.81,974.326 1010.08,976.512 1012.35,978.692 1014.62,980.866 1016.89,983.035 1019.15,985.197 1021.42,987.354 1023.69,989.504 1025.96,991.649 1028.23,993.787 1030.49,995.92 1032.76,998.046 1035.03,1000.17 1037.3,1002.28 1039.57,1004.39 1041.83,1006.49 1044.1,1008.58 1046.37,1010.67 1048.64,1012.76 1050.91,1014.83 1053.17,1016.9 1055.44,1018.97 1057.71,1021.02 1059.98,1023.07 1062.25,1025.12 1064.51,1027.15 1066.78,1029.19 1069.05,1031.21 1071.32,1033.23 1073.59,1035.24 1075.85,1037.25 1078.12,1039.25 1080.39,1041.24 1082.66,1043.22 1084.93,1045.2 1087.19,1047.17 1089.46,1049.14 1091.73,1051.1 1094,1053.05 1096.27,1055 1098.53,1056.94 1100.8,1058.87 1103.07,1060.8 1105.34,1062.72 1107.61,1064.63 1109.87,1066.54 1112.14,1068.44 1114.41,1070.33 1116.68,1072.22 1118.95,1074.1 1121.21,1075.97 1123.48,1077.84 1125.75,1079.7 1128.02,1081.55 1130.29,1083.4 1132.55,1085.24 1134.82,1087.07 1137.09,1088.9 1139.36,1090.72 1141.63,1092.53 1143.89,1094.34 1146.16,1096.14 1148.43,1097.93 1150.7,1099.72 1152.97,1101.5 1155.24,1103.27 1157.5,1105.04 1159.77,1106.8 1162.04,1108.56 1164.31,1110.31 1166.58,1112.05 1168.84,1113.78 1171.11,1115.51 1173.38,1117.23 1175.65,1118.95 1177.92,1120.66 1180.18,1122.36 1182.45,1124.05 1184.72,1125.74 1186.99,1127.43 1189.26,1129.1 1191.52,1130.77 1193.79,1132.44 1196.06,1134.09 1198.33,1135.75 1200.6,1137.39 1202.86,1139.03 1205.13,1140.66 1207.4,1142.29 1209.67,1143.91 1211.94,1145.52 1214.2,1147.12 1216.47,1148.73 1218.74,1150.32 1221.01,1151.91 1223.28,1153.49 1225.54,1155.07 1227.81,1156.63 1230.08,1158.2 1232.35,1159.75 1234.62,1161.31 1236.88,1162.85 1239.15,1164.39 1241.42,1165.92 1243.69,1167.45 1245.96,1168.97 1248.22,1170.48 1250.49,1171.99 1252.76,1173.49 1255.03,1174.99 1257.3,1176.48 1259.56,1177.96 1261.83,1179.44 1264.1,1180.92 1266.37,1182.38 1268.64,1183.84 1270.9,1185.3 1273.17,1186.75 1275.44,1188.19 1277.71,1189.63 1279.98,1191.06 1282.24,1192.48 1284.51,1193.9 1286.78,1195.32 1289.05,1196.73 1291.32,1198.13 1293.59,1199.53 1295.85,1200.92 1298.12,1202.3 1300.39,1203.68 1302.66,1205.06 1304.93,1206.43 1307.19,1207.79 1309.46,1209.15 1311.73,1210.5 1314,1211.85 1316.27,1213.19 1318.53,1214.52 1320.8,1215.85 1323.07,1217.18 1325.34,1218.5 1327.61,1219.81 1329.87,1221.12 1332.14,1222.42 1334.41,1223.72 1336.68,1225.01 1338.95,1226.3 1341.21,1227.58 1343.48,1228.85 1345.75,1230.12 1348.02,1231.39 1350.29,1232.65 1352.55,1233.9 1354.82,1235.15 1357.09,1236.4 1359.36,1237.64 1361.63,1238.87 1363.89,1240.1 1366.16,1241.32 1368.43,1242.54 1370.7,1243.76 1372.97,1244.96 1375.23,1246.17 1377.5,1247.37 1379.77,1248.56 1382.04,1249.75 1384.31,1250.93 1386.57,1252.11 1388.84,1253.28 1391.11,1254.45 1393.38,1255.62 1395.65,1256.77 1397.91,1257.93 1400.18,1259.08 1402.45,1260.22 1404.72,1261.36 1406.99,1262.49 1409.25,1263.62 1411.52,1264.75 1413.79,1265.87 1416.06,1266.98 1418.33,1268.09 1420.59,1269.2 1422.86,1270.3 1425.13,1271.4 1427.4,1272.49 1429.67,1273.58 1431.93,1274.66 1434.2,1275.74 1436.47,1276.81 1438.74,1277.88 1441.01,1278.95 1443.28,1280.01 1445.54,1281.06 1447.81,1282.11 1450.08,1283.16 1452.35,1284.2 1454.62,1285.24 1456.88,1286.27 1459.15,1287.3 1461.42,1288.33 1463.69,1289.35 1465.96,1290.36 1468.22,1291.37 1470.49,1292.38 1472.76,1293.38 1475.03,1294.38 1477.3,1295.38 1479.56,1296.37 1481.83,1297.35 1484.1,1298.33 1486.37,1299.31 1488.64,1300.28 1490.9,1301.25 1493.17,1302.22 1495.44,1303.18 1497.71,1304.13 1499.98,1305.09 1502.24,1306.04 1504.51,1306.98 1506.78,1307.92 1509.05,1308.86 1511.32,1309.79 1513.58,1310.72 1515.85,1311.64 1518.12,1312.56 1520.39,1313.48 1522.66,1314.39 1524.92,1315.3 1527.19,1316.2 1529.46,1317.1 1531.73,1318 1534,1318.89 1536.26,1319.78 1538.53,1320.67 1540.8,1321.55 1543.07,1322.43 1545.34,1323.3 1547.6,1324.17 1549.87,1325.04 1552.14,1325.9 1554.41,1326.76 1556.68,1327.61 1558.94,1328.46 1561.21,1329.31 1563.48,1330.16 1565.75,1331 1568.02,1331.83 1570.28,1332.67 1572.55,1333.5 1574.82,1334.32 1577.09,1335.14 1579.36,1335.96 1581.63,1336.78 1583.89,1337.59 1586.16,1338.4 1588.43,1339.2 1590.7,1340 1592.97,1340.8 1595.23,1341.6 1597.5,1342.39 1599.77,1343.17 1602.04,1343.96 1604.31,1344.74 1606.57,1345.52 1608.84,1346.29 1611.11,1347.06 1613.38,1347.83 1615.65,1348.59 1617.91,1349.35 1620.18,1350.11 1622.45,1350.86 1624.72,1351.61 1626.99,1352.36 1629.25,1353.1 1631.52,1353.85 1633.79,1354.58 1636.06,1355.32 1638.33,1356.05 1640.59,1356.78 1642.86,1357.5 1645.13,1358.22 1647.4,1358.94 1649.67,1359.66 1651.93,1360.37 1654.2,1361.08 1656.47,1361.79 1658.74,1362.49 1661.01,1363.19 1663.27,1363.89 1665.54,1364.58 1667.81,1365.27 1670.08,1365.96 1672.35,1366.64 1674.61,1367.33 1676.88,1368 1679.15,1368.68 1681.42,1369.35 1683.69,1370.02 1685.95,1370.69 1688.22,1371.36 1690.49,1372.02 1692.76,1372.68 1695.03,1373.33 1697.29,1373.98 1699.56,1374.63 1701.83,1375.28 1704.1,1375.93 1706.37,1376.57 1708.63,1377.21 1710.9,1377.84 1713.17,1378.47 1715.44,1379.1 1717.71,1379.73 1719.98,1380.36 1722.24,1380.98 1724.51,1381.6 1726.78,1382.21 1729.05,1382.83 1731.32,1383.44 1733.58,1384.05 1735.85,1384.65 1738.12,1385.26 1740.39,1385.86 1742.66,1386.46 1744.92,1387.05 1747.19,1387.64 1749.46,1388.23 1751.73,1388.82 1754,1389.41 1756.26,1389.99 1758.53,1390.57 1760.8,1391.15 1763.07,1391.72 1765.34,1392.29 1767.6,1392.86 1769.87,1393.43 1772.14,1393.99 1774.41,1394.56 1776.68,1395.12 1778.94,1395.67 1781.21,1396.23 1783.48,1396.78 1785.75,1397.33 1788.02,1397.88 1790.28,1398.42 1792.55,1398.97 1794.82,1399.51 1797.09,1400.04 1799.36,1400.58 1801.62,1401.11 1803.89,1401.64 1806.16,1402.17 1808.43,1402.7 1810.7,1403.22 1812.96,1403.74 1815.23,1404.26 1817.5,1404.78 1819.77,1405.3 1822.04,1405.81 1824.3,1406.32 1826.57,1406.83 1828.84,1407.33 1831.11,1407.84 1833.38,1408.34 1835.64,1408.84 1837.91,1409.33 1840.18,1409.83 1842.45,1410.32 1844.72,1410.81 1846.98,1411.3 1849.25,1411.79 1851.52,1412.27 1853.79,1412.75 1856.06,1413.23 1858.32,1413.71 1860.59,1414.18 1862.86,1414.66 1865.13,1415.13 1867.4,1415.6 1869.67,1416.07 1871.93,1416.53 1874.2,1416.99 1876.47,1417.46 1878.74,1417.91 1881.01,1418.37 1883.27,1418.83 1885.54,1419.28 1887.81,1419.73 1890.08,1420.18 1892.35,1420.63 1894.61,1421.07 1896.88,1421.52 1899.15,1421.96 1901.42,1422.4 1903.69,1422.83 1905.95,1423.27 1908.22,1423.7 1910.49,1424.13 1912.76,1424.56 1915.03,1424.99 1917.29,1425.42 1919.56,1425.84 1921.83,1426.26 1924.1,1426.68 1926.37,1427.1 1928.63,1427.52 1930.9,1427.93 1933.17,1428.35 1935.44,1428.76 1937.71,1429.17 1939.97,1429.57 1942.24,1429.98 1944.51,1430.38 1946.78,1430.79 1949.05,1431.19 1951.31,1431.59 1953.58,1431.98 1955.85,1432.38 1958.12,1432.77 1960.39,1433.16 1962.65,1433.55 1964.92,1433.94 1967.19,1434.33 1969.46,1434.71 1971.73,1435.09 1973.99,1435.48 1976.26,1435.86 1978.53,1436.23 1980.8,1436.61 1983.07,1436.98 1985.33,1437.36 1987.6,1437.73 1989.87,1438.1 1992.14,1438.47 1994.41,1438.83 1996.67,1439.2 1998.94,1439.56 2001.21,1439.92 2003.48,1440.28 2005.75,1440.64 2008.02,1441 2010.28,1441.35 2012.55,1441.71 2014.82,1442.06 2017.09,1442.41 2019.36,1442.76 2021.62,1443.11 2023.89,1443.45 2026.16,1443.8 2028.43,1444.14 2030.7,1444.48 2032.96,1444.82 2035.23,1445.16 2037.5,1445.49 2039.77,1445.83 2042.04,1446.16 2044.3,1446.5 2046.57,1446.83 2048.84,1447.16 2051.11,1447.48 2053.38,1447.81 2055.64,1448.14 2057.91,1448.46 2060.18,1448.78 2062.45,1449.1 2064.72,1449.42 2066.98,1449.74 2069.25,1450.06 2071.52,1450.37 2073.79,1450.69 2076.06,1451 2078.32,1451.31 2080.59,1451.62 2082.86,1451.93 2085.13,1452.23 2087.4,1452.54 2089.66,1452.84 2091.93,1453.15 2094.2,1453.45 2096.47,1453.75 2098.74,1454.05 2101,1454.34 2103.27,1454.64 2105.54,1454.93 2107.81,1455.23 2110.08,1455.52 2112.34,1455.81 2114.61,1456.1 2116.88,1456.39 2119.15,1456.68 2121.42,1456.96 2123.68,1457.25 2125.95,1457.53 2128.22,1457.81 2130.49,1458.09 2132.76,1458.37 2135.02,1458.65 2137.29,1458.93 2139.56,1459.2 2141.83,1459.48 2144.1,1459.75 2146.37,1460.02 2148.63,1460.29 2150.9,1460.56 2153.17,1460.83 2155.44,1461.1 2157.71,1461.37 2159.97,1461.63 2162.24,1461.9 2164.51,1462.16 2166.78,1462.42 2169.05,1462.68 2171.31,1462.94 2173.58,1463.2 2175.85,1463.46 2178.12,1463.71 2180.39,1463.97 2182.65,1464.22 2184.92,1464.47 2187.19,1464.72 2189.46,1464.97 2191.73,1465.22 2193.99,1465.47 2196.26,1465.72 2198.53,1465.96 2200.8,1466.21 2203.07,1466.45 2205.33,1466.69 2207.6,1466.94 2209.87,1467.18 2212.14,1467.41 2214.41,1467.65 2216.67,1467.89 2218.94,1468.13 2221.21,1468.36 2223.48,1468.6 2225.75,1468.83 2228.01,1469.06 2230.28,1469.29 2232.55,1469.52 2234.82,1469.75 2237.09,1469.98 2239.35,1470.21 2241.62,1470.43 2243.89,1470.66 2246.16,1470.88 2248.43,1471.1 2250.69,1471.33 2252.96,1471.55 2255.23,1471.77 2257.5,1471.98 2259.77,1472.2 2262.03,1472.42 2264.3,1472.64 2266.57,1472.85 2268.84,1473.07 2271.11,1473.28 2273.37,1473.49 2275.64,1473.7 2277.91,1473.91 2280.18,1474.12 2282.45,1474.33 2284.71,1474.54 2286.98,1474.74 2289.25,1474.95 2291.52,1475.16 2293.79,1475.36 2296.06,1475.56 2298.32,1475.76 2300.59,1475.97 2302.86,1476.17 2305.13,1476.37 2307.4,1476.56 2309.66,1476.76 2311.93,1476.96 2314.2,1477.15 2316.47,1477.35 2318.74,1477.54 2321,1477.74 2323.27,1477.93 2325.54,1478.12 2327.81,1478.31 2330.08,1478.5 2332.34,1478.69 2334.61,1478.88 2336.88,1479.07 2339.15,1479.25 2341.42,1479.44 2343.68,1479.62 2345.95,1479.81 2348.22,1479.99 2350.49,1480.17 2352.76,1480.36 "/>
<polyline clip-path="url(#clip512)" style="stroke:#3da44d; stroke-linecap:round; stroke-linejoin:round; stroke-width:32; stroke-opacity:0.8; fill:none" points="86.9921,1521.01 89.2602,1520.94 91.5282,1520.87 93.7962,1520.8 96.0643,1520.73 98.3323,1520.65 100.6,1520.58 102.868,1520.5 105.136,1520.42 107.404,1520.34 109.672,1520.25 111.94,1520.17 114.209,1520.08 116.477,1519.99 118.745,1519.89 121.013,1519.8 123.281,1519.7 125.549,1519.6 127.817,1519.5 130.085,1519.39 132.353,1519.28 134.621,1519.17 136.889,1519.06 139.157,1518.94 141.425,1518.82 143.693,1518.7 145.961,1518.57 148.229,1518.44 150.497,1518.31 152.765,1518.18 155.033,1518.04 157.301,1517.89 159.569,1517.75 161.837,1517.6 164.105,1517.44 166.373,1517.29 168.641,1517.13 170.909,1516.96 173.177,1516.79 175.445,1516.62 177.713,1516.44 179.981,1516.26 182.249,1516.07 184.517,1515.88 186.786,1515.68 189.054,1515.48 191.322,1515.27 193.59,1515.06 195.858,1514.85 198.126,1514.62 200.394,1514.4 202.662,1514.16 204.93,1513.92 207.198,1513.68 209.466,1513.43 211.734,1513.17 214.002,1512.91 216.27,1512.64 218.538,1512.36 220.806,1512.08 223.074,1511.79 225.342,1511.49 227.61,1511.19 229.878,1510.88 232.146,1510.56 234.414,1510.23 236.682,1509.9 238.95,1509.56 241.218,1509.21 243.486,1508.85 245.754,1508.48 248.022,1508.1 250.29,1507.72 252.558,1507.32 254.826,1506.92 257.095,1506.5 259.363,1506.08 261.631,1505.65 263.899,1505.2 266.167,1504.75 268.435,1504.29 270.703,1503.81 272.971,1503.32 275.239,1502.83 277.507,1502.32 279.775,1501.8 282.043,1501.26 284.311,1500.72 286.579,1500.16 288.847,1499.59 291.115,1499.01 293.383,1498.41 295.651,1497.8 297.919,1497.18 300.187,1496.54 302.455,1495.89 304.723,1495.22 306.991,1494.54 309.259,1493.84 311.527,1493.13 313.795,1492.4 316.063,1491.66 318.331,1490.9 320.599,1490.13 322.867,1489.33 325.135,1488.52 327.403,1487.7 329.672,1486.85 331.94,1485.99 334.208,1485.11 336.476,1484.21 338.744,1483.29 341.012,1482.36 343.28,1481.4 345.548,1480.42 347.816,1479.43 350.084,1478.41 352.352,1477.37 354.62,1476.32 356.888,1475.24 359.156,1474.14 361.424,1473.02 363.692,1471.87 365.96,1470.71 368.228,1469.52 370.496,1468.31 372.764,1467.07 375.032,1465.81 377.3,1464.53 379.568,1463.23 381.836,1461.9 384.104,1460.54 386.372,1459.16 388.64,1457.76 390.908,1456.33 393.176,1454.88 395.444,1453.39 397.712,1451.89 399.981,1450.35 402.249,1448.8 404.517,1447.21 406.785,1445.6 409.053,1443.96 411.321,1442.29 413.589,1440.59 415.857,1438.87 418.125,1437.12 420.393,1435.34 422.661,1433.54 424.929,1431.7 427.197,1429.84 429.465,1427.95 431.733,1426.03 434.001,1424.08 436.269,1422.11 438.537,1420.1 440.805,1418.07 443.073,1416 445.341,1413.91 447.609,1411.79 449.877,1409.63 452.145,1407.45 454.413,1405.24 456.681,1403 458.949,1400.74 461.217,1398.44 463.485,1396.11 465.753,1393.76 468.021,1391.37 470.29,1388.96 472.558,1386.52 474.826,1384.05 477.094,1381.55 479.362,1379.02 481.63,1376.47 483.898,1373.88 486.166,1371.27 488.434,1368.63 490.702,1365.97 492.97,1363.27 495.238,1360.55 497.506,1357.8 499.774,1355.03 502.042,1352.22 504.31,1349.4 506.578,1346.54 508.846,1343.66 511.114,1340.76 513.382,1337.82 515.65,1334.87 517.918,1331.89 520.186,1328.88 522.454,1325.85 524.722,1322.8 526.99,1319.72 529.258,1316.63 531.526,1313.5 533.794,1310.36 536.062,1307.19 538.33,1304 540.598,1300.79 542.867,1297.56 545.135,1294.31 547.403,1291.04 549.671,1287.75 551.939,1284.44 554.207,1281.11 556.475,1277.77 558.743,1274.4 561.011,1271.02 563.279,1267.62 565.547,1264.2 567.815,1260.77 570.083,1257.32 572.351,1253.86 574.619,1250.38 576.887,1246.88 579.155,1243.37 581.423,1239.85 583.691,1236.32 585.959,1232.77 588.227,1229.2 590.495,1225.63 592.763,1222.04 595.031,1218.45 597.299,1214.84 599.567,1211.22 601.835,1207.59 604.103,1203.95 606.371,1200.3 608.639,1196.64 610.907,1192.98 613.176,1189.3 615.444,1185.62 617.712,1181.93 619.98,1178.23 622.248,1174.53 624.516,1170.82 626.784,1167.1 629.052,1163.38 631.32,1159.65 633.588,1155.92 635.856,1152.19 638.124,1148.45 640.392,1144.71 642.66,1140.96 644.928,1137.21 647.196,1133.46 649.464,1129.7 651.732,1125.95 654,1122.19 656.268,1118.43 658.536,1114.66 660.804,1110.9 663.072,1107.14 665.34,1103.38 667.608,1099.61 669.876,1095.85 672.144,1092.09 674.412,1088.32 676.68,1084.56 678.948,1080.8 681.216,1077.05 683.484,1073.29 685.753,1069.54 688.021,1065.79 690.289,1062.04 692.557,1058.29 694.825,1054.55 697.093,1050.81 699.361,1047.07 701.629,1043.34 703.897,1039.61 706.165,1035.89 708.433,1032.17 710.701,1028.45 712.969,1024.74 715.237,1021.04 717.505,1017.34 719.773,1013.64 722.041,1009.95 724.309,1006.27 726.577,1002.59 728.845,998.923 731.113,995.259 733.381,991.601 735.649,987.95 737.917,984.306 740.185,980.668 742.453,977.038 744.721,973.414 746.989,969.798 749.257,966.19 751.525,962.589 753.793,958.995 756.062,955.41 758.33,951.832 760.598,948.262 762.866,944.7 765.134,941.146 767.402,937.601 769.67,934.064 771.938,930.536 774.206,927.016 776.474,923.505 778.742,920.002 781.01,916.509 783.278,913.024 785.546,909.548 787.814,906.082 790.082,902.625 792.35,899.176 794.618,895.738 796.886,892.309 799.154,888.889 801.422,885.479 803.69,882.078 805.958,878.687 808.226,875.306 810.494,871.935 812.762,868.573 815.03,865.222 817.298,861.88 819.566,858.549 821.834,855.227 824.102,851.916 826.37,848.615 828.639,845.324 830.907,842.043 833.175,838.772 835.443,835.512 837.711,832.262 839.979,829.023 842.247,825.794 844.515,822.575 846.783,819.367 849.051,816.169 851.319,812.982 853.587,809.805 855.855,806.639 858.123,803.483 860.391,800.338 862.659,797.203 864.927,794.079 867.195,790.966 869.463,787.863 871.731,784.77 873.999,781.689 876.267,778.617 878.535,775.557 880.803,772.507 883.071,769.468 885.339,766.439 887.607,763.421 889.875,760.414 892.143,757.417 894.411,754.431 896.679,751.456 898.948,748.491 901.216,745.537 903.484,742.593 905.752,739.661 908.02,736.738 910.288,733.827 912.556,730.926 914.824,728.036 917.092,725.156 919.36,722.287 921.628,719.429 923.896,716.581 926.164,713.744 928.432,710.918 930.7,708.102 932.968,705.296 935.236,702.501 937.504,699.717 939.772,696.943 942.04,694.18 944.308,691.427 946.576,688.685 948.844,685.953 951.112,683.231 953.38,680.52 955.648,677.819 957.916,675.129 960.184,672.449 962.452,669.78 964.72,667.12 966.988,664.471 969.257,661.833 971.525,659.204 973.793,656.586 976.061,653.978 978.329,651.38 980.597,648.793 982.865,646.215 985.133,643.648 987.401,641.09 989.669,638.543 991.937,636.006 994.205,633.479 996.473,630.962 998.741,628.455 1001.01,625.957 1003.28,623.47 1005.55,620.993 1007.81,618.525 1010.08,616.068 1012.35,613.62 1014.62,611.182 1016.89,608.753 1019.15,606.335 1021.42,603.926 1023.69,601.527 1025.96,599.138 1028.23,596.758 1030.49,594.388 1032.76,592.027 1035.03,589.676 1037.3,587.335 1039.57,585.003 1041.83,582.681 1044.1,580.368 1046.37,578.064 1048.64,575.77 1050.91,573.485 1053.17,571.21 1055.44,568.944 1057.71,566.687 1059.98,564.439 1062.25,562.201 1064.51,559.972 1066.78,557.752 1069.05,555.541 1071.32,553.339 1073.59,551.147 1075.85,548.963 1078.12,546.788 1080.39,544.623 1082.66,542.466 1084.93,540.319 1087.19,538.18 1089.46,536.05 1091.73,533.929 1094,531.816 1096.27,529.713 1098.53,527.618 1100.8,525.532 1103.07,523.455 1105.34,521.386 1107.61,519.326 1109.87,517.275 1112.14,515.232 1114.41,513.198 1116.68,511.172 1118.95,509.154 1121.21,507.145 1123.48,505.145 1125.75,503.153 1128.02,501.169 1130.29,499.194 1132.55,497.227 1134.82,495.268 1137.09,493.317 1139.36,491.375 1141.63,489.441 1143.89,487.515 1146.16,485.597 1148.43,483.687 1150.7,481.785 1152.97,479.892 1155.24,478.006 1157.5,476.128 1159.77,474.258 1162.04,472.397 1164.31,470.543 1166.58,468.696 1168.84,466.858 1171.11,465.028 1173.38,463.205 1175.65,461.39 1177.92,459.583 1180.18,457.783 1182.45,455.991 1184.72,454.207 1186.99,452.43 1189.26,450.661 1191.52,448.9 1193.79,447.146 1196.06,445.399 1198.33,443.66 1200.6,441.928 1202.86,440.204 1205.13,438.487 1207.4,436.777 1209.67,435.075 1211.94,433.38 1214.2,431.692 1216.47,430.012 1218.74,428.338 1221.01,426.672 1223.28,425.013 1225.54,423.361 1227.81,421.716 1230.08,420.078 1232.35,418.448 1234.62,416.824 1236.88,415.207 1239.15,413.597 1241.42,411.994 1243.69,410.398 1245.96,408.809 1248.22,407.227 1250.49,405.651 1252.76,404.082 1255.03,402.52 1257.3,400.965 1259.56,399.416 1261.83,397.874 1264.1,396.339 1266.37,394.81 1268.64,393.288 1270.9,391.773 1273.17,390.264 1275.44,388.761 1277.71,387.265 1279.98,385.776 1282.24,384.293 1284.51,382.816 1286.78,381.346 1289.05,379.882 1291.32,378.424 1293.59,376.973 1295.85,375.528 1298.12,374.089 1300.39,372.657 1302.66,371.231 1304.93,369.81 1307.19,368.397 1309.46,366.989 1311.73,365.587 1314,364.191 1316.27,362.802 1318.53,361.418 1320.8,360.04 1323.07,358.669 1325.34,357.303 1327.61,355.943 1329.87,354.59 1332.14,353.242 1334.41,351.9 1336.68,350.563 1338.95,349.233 1341.21,347.908 1343.48,346.589 1345.75,345.276 1348.02,343.969 1350.29,342.667 1352.55,341.371 1354.82,340.081 1357.09,338.796 1359.36,337.517 1361.63,336.243 1363.89,334.975 1366.16,333.712 1368.43,332.455 1370.7,331.204 1372.97,329.957 1375.23,328.717 1377.5,327.481 1379.77,326.252 1382.04,325.027 1384.31,323.808 1386.57,322.594 1388.84,321.385 1391.11,320.182 1393.38,318.984 1395.65,317.791 1397.91,316.604 1400.18,315.421 1402.45,314.244 1404.72,313.072 1406.99,311.905 1409.25,310.743 1411.52,309.586 1413.79,308.434 1416.06,307.288 1418.33,306.146 1420.59,305.009 1422.86,303.877 1425.13,302.75 1427.4,301.629 1429.67,300.512 1431.93,299.4 1434.2,298.292 1436.47,297.19 1438.74,296.092 1441.01,295 1443.28,293.912 1445.54,292.828 1447.81,291.75 1450.08,290.676 1452.35,289.607 1454.62,288.543 1456.88,287.483 1459.15,286.428 1461.42,285.378 1463.69,284.332 1465.96,283.29 1468.22,282.254 1470.49,281.222 1472.76,280.194 1475.03,279.171 1477.3,278.152 1479.56,277.138 1481.83,276.128 1484.1,275.123 1486.37,274.122 1488.64,273.126 1490.9,272.134 1493.17,271.146 1495.44,270.163 1497.71,269.184 1499.98,268.209 1502.24,267.238 1504.51,266.272 1506.78,265.31 1509.05,264.352 1511.32,263.399 1513.58,262.45 1515.85,261.504 1518.12,260.563 1520.39,259.626 1522.66,258.694 1524.92,257.765 1527.19,256.84 1529.46,255.92 1531.73,255.003 1534,254.091 1536.26,253.183 1538.53,252.278 1540.8,251.378 1543.07,250.481 1545.34,249.589 1547.6,248.7 1549.87,247.815 1552.14,246.935 1554.41,246.058 1556.68,245.185 1558.94,244.315 1561.21,243.45 1563.48,242.588 1565.75,241.731 1568.02,240.877 1570.28,240.026 1572.55,239.18 1574.82,238.337 1577.09,237.498 1579.36,236.663 1581.63,235.831 1583.89,235.003 1586.16,234.179 1588.43,233.358 1590.7,232.541 1592.97,231.727 1595.23,230.917 1597.5,230.111 1599.77,229.308 1602.04,228.509 1604.31,227.713 1606.57,226.921 1608.84,226.132 1611.11,225.347 1613.38,224.565 1615.65,223.787 1617.91,223.012 1620.18,222.24 1622.45,221.472 1624.72,220.707 1626.99,219.946 1629.25,219.188 1631.52,218.433 1633.79,217.682 1636.06,216.934 1638.33,216.189 1640.59,215.448 1642.86,214.71 1645.13,213.975 1647.4,213.243 1649.67,212.515 1651.93,211.789 1654.2,211.067 1656.47,210.348 1658.74,209.633 1661.01,208.92 1663.27,208.211 1665.54,207.505 1667.81,206.801 1670.08,206.101 1672.35,205.404 1674.61,204.711 1676.88,204.02 1679.15,203.332 1681.42,202.647 1683.69,201.966 1685.95,201.287 1688.22,200.611 1690.49,199.939 1692.76,199.269 1695.03,198.602 1697.29,197.938 1699.56,197.278 1701.83,196.62 1704.1,195.965 1706.37,195.313 1708.63,194.663 1710.9,194.017 1713.17,193.373 1715.44,192.733 1717.71,192.095 1719.98,191.46 1722.24,190.828 1724.51,190.198 1726.78,189.572 1729.05,188.948 1731.32,188.327 1733.58,187.709 1735.85,187.093 1738.12,186.48 1740.39,185.87 1742.66,185.262 1744.92,184.658 1747.19,184.056 1749.46,183.456 1751.73,182.859 1754,182.265 1756.26,181.674 1758.53,181.085 1760.8,180.499 1763.07,179.915 1765.34,179.334 1767.6,178.756 1769.87,178.18 1772.14,177.606 1774.41,177.035 1776.68,176.467 1778.94,175.901 1781.21,175.338 1783.48,174.777 1785.75,174.219 1788.02,173.663 1790.28,173.11 1792.55,172.559 1794.82,172.01 1797.09,171.464 1799.36,170.921 1801.62,170.379 1803.89,169.841 1806.16,169.304 1808.43,168.77 1810.7,168.238 1812.96,167.709 1815.23,167.182 1817.5,166.657 1819.77,166.135 1822.04,165.615 1824.3,165.097 1826.57,164.582 1828.84,164.069 1831.11,163.558 1833.38,163.049 1835.64,162.543 1837.91,162.039 1840.18,161.537 1842.45,161.037 1844.72,160.54 1846.98,160.045 1849.25,159.552 1851.52,159.061 1853.79,158.572 1856.06,158.085 1858.32,157.601 1860.59,157.119 1862.86,156.639 1865.13,156.161 1867.4,155.685 1869.67,155.211 1871.93,154.74 1874.2,154.27 1876.47,153.803 1878.74,153.337 1881.01,152.874 1883.27,152.413 1885.54,151.953 1887.81,151.496 1890.08,151.041 1892.35,150.588 1894.61,150.137 1896.88,149.687 1899.15,149.24 1901.42,148.795 1903.69,148.352 1905.95,147.91 1908.22,147.471 1910.49,147.034 1912.76,146.598 1915.03,146.165 1917.29,145.733 1919.56,145.304 1921.83,144.876 1924.1,144.45 1926.37,144.026 1928.63,143.604 1930.9,143.184 1933.17,142.765 1935.44,142.349 1937.71,141.934 1939.97,141.521 1942.24,141.11 1944.51,140.701 1946.78,140.294 1949.05,139.888 1951.31,139.484 1953.58,139.082 1955.85,138.682 1958.12,138.284 1960.39,137.887 1962.65,137.492 1964.92,137.099 1967.19,136.708 1969.46,136.318 1971.73,135.93 1973.99,135.544 1976.26,135.16 1978.53,134.777 1980.8,134.396 1983.07,134.017 1985.33,133.639 1987.6,133.263 1989.87,132.889 1992.14,132.516 1994.41,132.145 1996.67,131.776 1998.94,131.408 2001.21,131.042 2003.48,130.677 2005.75,130.315 2008.02,129.953 2010.28,129.594 2012.55,129.236 2014.82,128.879 2017.09,128.525 2019.36,128.171 2021.62,127.82 2023.89,127.469 2026.16,127.121 2028.43,126.774 2030.7,126.428 2032.96,126.084 2035.23,125.742 2037.5,125.401 2039.77,125.062 2042.04,124.724 2044.3,124.388 2046.57,124.053 2048.84,123.719 2051.11,123.387 2053.38,123.057 2055.64,122.728 2057.91,122.401 2060.18,122.074 2062.45,121.75 2064.72,121.427 2066.98,121.105 2069.25,120.785 2071.52,120.466 2073.79,120.148 2076.06,119.832 2078.32,119.518 2080.59,119.205 2082.86,118.893 2085.13,118.582 2087.4,118.273 2089.66,117.966 2091.93,117.659 2094.2,117.354 2096.47,117.051 2098.74,116.748 2101,116.447 2103.27,116.148 2105.54,115.85 2107.81,115.553 2110.08,115.257 2112.34,114.963 2114.61,114.67 2116.88,114.378 2119.15,114.088 2121.42,113.799 2123.68,113.511 2125.95,113.224 2128.22,112.939 2130.49,112.655 2132.76,112.372 2135.02,112.091 2137.29,111.81 2139.56,111.531 2141.83,111.254 2144.1,110.977 2146.37,110.702 2148.63,110.428 2150.9,110.155 2153.17,109.883 2155.44,109.613 2157.71,109.344 2159.97,109.076 2162.24,108.809 2164.51,108.543 2166.78,108.279 2169.05,108.015 2171.31,107.753 2173.58,107.492 2175.85,107.232 2178.12,106.974 2180.39,106.716 2182.65,106.46 2184.92,106.204 2187.19,105.95 2189.46,105.697 2191.73,105.445 2193.99,105.195 2196.26,104.945 2198.53,104.697 2200.8,104.449 2203.07,104.203 2205.33,103.958 2207.6,103.714 2209.87,103.471 2212.14,103.229 2214.41,102.988 2216.67,102.748 2218.94,102.509 2221.21,102.272 2223.48,102.035 2225.75,101.799 2228.01,101.565 2230.28,101.331 2232.55,101.099 2234.82,100.867 2237.09,100.637 2239.35,100.408 2241.62,100.179 2243.89,99.9521 2246.16,99.7258 2248.43,99.5005 2250.69,99.2762 2252.96,99.0529 2255.23,98.8306 2257.5,98.6093 2259.77,98.389 2262.03,98.1696 2264.3,97.9512 2266.57,97.7338 2268.84,97.5174 2271.11,97.3019 2273.37,97.0874 2275.64,96.8738 2277.91,96.6612 2280.18,96.4496 2282.45,96.2388 2284.71,96.0291 2286.98,95.8202 2289.25,95.6123 2291.52,95.4053 2293.79,95.1992 2296.06,94.994 2298.32,94.7898 2300.59,94.5864 2302.86,94.384 2305.13,94.1825 2307.4,93.9818 2309.66,93.7821 2311.93,93.5832 2314.2,93.3852 2316.47,93.1881 2318.74,92.9919 2321,92.7966 2323.27,92.6021 2325.54,92.4085 2327.81,92.2157 2330.08,92.0238 2332.34,91.8328 2334.61,91.6426 2336.88,91.4532 2339.15,91.2647 2341.42,91.0771 2343.68,90.8902 2345.95,90.7042 2348.22,90.5191 2350.49,90.3347 2352.76,90.1512 "/>
<circle clip-path="url(#clip512)" cx="162.518" cy="1463.97" r="28.8" fill="#e26f46" fill-rule="evenodd" fill-opacity="1" stroke="#000000" stroke-opacity="1" stroke-width="3.2"/>
<circle clip-path="url(#clip512)" cx="238.043" cy="1461.95" r="28.8" fill="#e26f46" fill-rule="evenodd" fill-opacity="1" stroke="#000000" stroke-opacity="1" stroke-width="3.2"/>
<circle clip-path="url(#clip512)" cx="313.569" cy="1402.64" r="28.8" fill="#e26f46" fill-rule="evenodd" fill-opacity="1" stroke="#000000" stroke-opacity="1" stroke-width="3.2"/>
<circle clip-path="url(#clip512)" cx="389.094" cy="1243.47" r="28.8" fill="#e26f46" fill-rule="evenodd" fill-opacity="1" stroke="#000000" stroke-opacity="1" stroke-width="3.2"/>
<circle clip-path="url(#clip512)" cx="464.619" cy="941.748" r="28.8" fill="#e26f46" fill-rule="evenodd" fill-opacity="1" stroke="#000000" stroke-opacity="1" stroke-width="3.2"/>
<circle clip-path="url(#clip512)" cx="540.145" cy="791.208" r="28.8" fill="#e26f46" fill-rule="evenodd" fill-opacity="1" stroke="#000000" stroke-opacity="1" stroke-width="3.2"/>
<path clip-path="url(#clip512)" d="M583.67 539.492 L583.67 603.492 L647.67 603.492 L647.67 539.492 L583.67 539.492 Z" fill="#e26f46" fill-rule="evenodd" fill-opacity="0.7" stroke="#000000" stroke-opacity="0.7" stroke-width="3.2"/>
<path clip-path="url(#clip512)" d="M659.196 475.564 L659.196 539.564 L723.196 539.564 L723.196 475.564 L659.196 475.564 Z" fill="#e26f46" fill-rule="evenodd" fill-opacity="0.7" stroke="#000000" stroke-opacity="0.7" stroke-width="3.2"/>
<path clip-path="url(#clip512)" d="M734.721 455.395 L734.721 519.395 L798.721 519.395 L798.721 455.395 L734.721 455.395 Z" fill="#e26f46" fill-rule="evenodd" fill-opacity="0.7" stroke="#000000" stroke-opacity="0.7" stroke-width="3.2"/>
<path clip-path="url(#clip512)" d="M810.247 583.349 L810.247 647.349 L874.247 647.349 L874.247 583.349 L810.247 583.349 Z" fill="#e26f46" fill-rule="evenodd" fill-opacity="0.7" stroke="#000000" stroke-opacity="0.7" stroke-width="3.2"/>
<path clip-path="url(#clip512)" d="M885.772 866.33 L885.772 930.33 L949.772 930.33 L949.772 866.33 L885.772 866.33 Z" fill="#e26f46" fill-rule="evenodd" fill-opacity="0.7" stroke="#000000" stroke-opacity="0.7" stroke-width="3.2"/>
<path clip-path="url(#clip512)" d="M961.298 826.949 L961.298 890.949 L1025.3 890.949 L1025.3 826.949 L961.298 826.949 Z" fill="#e26f46" fill-rule="evenodd" fill-opacity="0.7" stroke="#000000" stroke-opacity="0.7" stroke-width="3.2"/>
<path clip-path="url(#clip512)" d="M1036.82 700.775 L1036.82 764.775 L1100.82 764.775 L1100.82 700.775 L1036.82 700.775 Z" fill="#e26f46" fill-rule="evenodd" fill-opacity="0.7" stroke="#000000" stroke-opacity="0.7" stroke-width="3.2"/>
<path clip-path="url(#clip512)" d="M1112.35 1048.51 L1112.35 1112.51 L1176.35 1112.51 L1176.35 1048.51 L1112.35 1048.51 Z" fill="#e26f46" fill-rule="evenodd" fill-opacity="0.7" stroke="#000000" stroke-opacity="0.7" stroke-width="3.2"/>
<path clip-path="url(#clip512)" d="M1187.87 839.761 L1187.87 903.761 L1251.87 903.761 L1251.87 839.761 L1187.87 839.761 Z" fill="#e26f46" fill-rule="evenodd" fill-opacity="0.7" stroke="#000000" stroke-opacity="0.7" stroke-width="3.2"/>
<path clip-path="url(#clip512)" d="M1263.4 978.189 L1263.4 1042.19 L1327.4 1042.19 L1327.4 978.189 L1263.4 978.189 Z" fill="#e26f46" fill-rule="evenodd" fill-opacity="0.7" stroke="#000000" stroke-opacity="0.7" stroke-width="3.2"/>
<path clip-path="url(#clip512)" d="M1338.92 1027.82 L1338.92 1091.82 L1402.92 1091.82 L1402.92 1027.82 L1338.92 1027.82 Z" fill="#e26f46" fill-rule="evenodd" fill-opacity="0.7" stroke="#000000" stroke-opacity="0.7" stroke-width="3.2"/>
<path clip-path="url(#clip512)" d="M1414.45 1031.58 L1414.45 1095.58 L1478.45 1095.58 L1478.45 1031.58 L1414.45 1031.58 Z" fill="#e26f46" fill-rule="evenodd" fill-opacity="0.7" stroke="#000000" stroke-opacity="0.7" stroke-width="3.2"/>
<path clip-path="url(#clip512)" d="M1489.98 1092.04 L1489.98 1156.04 L1553.98 1156.04 L1553.98 1092.04 L1489.98 1092.04 Z" fill="#e26f46" fill-rule="evenodd" fill-opacity="0.7" stroke="#000000" stroke-opacity="0.7" stroke-width="3.2"/>
<path clip-path="url(#clip512)" d="M1565.5 1152.84 L1565.5 1216.84 L1629.5 1216.84 L1629.5 1152.84 L1565.5 1152.84 Z" fill="#e26f46" fill-rule="evenodd" fill-opacity="0.7" stroke="#000000" stroke-opacity="0.7" stroke-width="3.2"/>
<path clip-path="url(#clip512)" d="M1641.03 1238.19 L1641.03 1302.19 L1705.03 1302.19 L1705.03 1238.19 L1641.03 1238.19 Z" fill="#e26f46" fill-rule="evenodd" fill-opacity="0.7" stroke="#000000" stroke-opacity="0.7" stroke-width="3.2"/>
<path clip-path="url(#clip512)" d="M1716.55 1234.1 L1716.55 1298.1 L1780.55 1298.1 L1780.55 1234.1 L1716.55 1234.1 Z" fill="#e26f46" fill-rule="evenodd" fill-opacity="0.7" stroke="#000000" stroke-opacity="0.7" stroke-width="3.2"/>
<path clip-path="url(#clip512)" d="M1792.08 1292.48 L1792.08 1356.48 L1856.08 1356.48 L1856.08 1292.48 L1792.08 1292.48 Z" fill="#e26f46" fill-rule="evenodd" fill-opacity="0.7" stroke="#000000" stroke-opacity="0.7" stroke-width="3.2"/>
<path clip-path="url(#clip512)" d="M1867.6 1216.4 L1867.6 1280.4 L1931.6 1280.4 L1931.6 1216.4 L1867.6 1216.4 Z" fill="#e26f46" fill-rule="evenodd" fill-opacity="0.7" stroke="#000000" stroke-opacity="0.7" stroke-width="3.2"/>
<path clip-path="url(#clip512)" d="M1943.13 1225.12 L1943.13 1289.12 L2007.13 1289.12 L2007.13 1225.12 L1943.13 1225.12 Z" fill="#e26f46" fill-rule="evenodd" fill-opacity="0.7" stroke="#000000" stroke-opacity="0.7" stroke-width="3.2"/>
<path clip-path="url(#clip512)" d="M2018.65 1288.1 L2018.65 1352.1 L2082.65 1352.1 L2082.65 1288.1 L2018.65 1288.1 Z" fill="#e26f46" fill-rule="evenodd" fill-opacity="0.7" stroke="#000000" stroke-opacity="0.7" stroke-width="3.2"/>
<path clip-path="url(#clip512)" d="M2094.18 1263.59 L2094.18 1327.59 L2158.18 1327.59 L2158.18 1263.59 L2094.18 1263.59 Z" fill="#e26f46" fill-rule="evenodd" fill-opacity="0.7" stroke="#000000" stroke-opacity="0.7" stroke-width="3.2"/>
<path clip-path="url(#clip512)" d="M2169.7 1277.96 L2169.7 1341.96 L2233.7 1341.96 L2233.7 1277.96 L2169.7 1277.96 Z" fill="#e26f46" fill-rule="evenodd" fill-opacity="0.7" stroke="#000000" stroke-opacity="0.7" stroke-width="3.2"/>
<path clip-path="url(#clip512)" d="M2245.23 1373.14 L2245.23 1437.14 L2309.23 1437.14 L2309.23 1373.14 L2245.23 1373.14 Z" fill="#e26f46" fill-rule="evenodd" fill-opacity="0.7" stroke="#000000" stroke-opacity="0.7" stroke-width="3.2"/>
</svg>
