<?xml version="1.0" encoding="utf-8"?>
<svg xmlns="http://www.w3.org/2000/svg" xmlns:xlink="http://www.w3.org/1999/xlink" width="600" height="400" viewBox="0 0 2400 1600">
<defs>
  <clipPath id="clip270">
    <rect x="0" y="0" width="2400" height="1600"/>
  </clipPath>
</defs>
<path clip-path="url(#clip270)" d="M0 1600 L2400 1600 L2400 0 L0 0  Z" fill="#ffffff" fill-rule="evenodd" fill-opacity="1"/>
<defs>
  <clipPath id="clip271">
    <rect x="480" y="0" width="1681" height="1600"/>
  </clipPath>
</defs>
<defs>
  <clipPath id="clip272">
    <rect x="86" y="47" width="2267" height="1475"/>
  </clipPath>
</defs>
<polyline clip-path="url(#clip272)" style="stroke:#000000; stroke-linecap:round; stroke-linejoin:round; stroke-width:2; stroke-opacity:0.1; fill:none" points="86.9921,1521.01 86.9921,47.2441 "/>
<polyline clip-path="url(#clip272)" style="stroke:#000000; stroke-linecap:round; stroke-linejoin:round; stroke-width:2; stroke-opacity:0.1; fill:none" points="842.247,1521.01 842.247,47.2441 "/>
<polyline clip-path="url(#clip272)" style="stroke:#000000; stroke-linecap:round; stroke-linejoin:round; stroke-width:2; stroke-opacity:0.1; fill:none" points="1597.5,1521.01 1597.5,47.2441 "/>
<polyline clip-path="url(#clip272)" style="stroke:#000000; stroke-linecap:round; stroke-linejoin:round; stroke-width:2; stroke-opacity:0.1; fill:none" points="2352.76,1521.01 2352.76,47.2441 "/>
<polyline clip-path="url(#clip272)" style="stroke:#000000; stroke-linecap:round; stroke-linejoin:round; stroke-width:2; stroke-opacity:0.1; fill:none" points="86.9921,1521.01 86.9921,47.2441 "/>
<polyline clip-path="url(#clip272)" style="stroke:#000000; stroke-linecap:round; stroke-linejoin:round; stroke-width:2; stroke-opacity:0.1; fill:none" points="842.247,1521.01 842.247,47.2441 "/>
<polyline clip-path="url(#clip272)" style="stroke:#000000; stroke-linecap:round; stroke-linejoin:round; stroke-width:2; stroke-opacity:0.1; fill:none" points="1597.5,1521.01 1597.5,47.2441 "/>
<polyline clip-path="url(#clip272)" style="stroke:#000000; stroke-linecap:round; stroke-linejoin:round; stroke-width:2; stroke-opacity:0.1; fill:none" points="2352.76,1521.01 2352.76,47.2441 "/>
<polyline clip-path="url(#clip272)" style="stroke:#000000; stroke-linecap:round; stroke-linejoin:round; stroke-width:2; stroke-opacity:0.1; fill:none" points="86.9921,1521.01 2352.76,1521.01 "/>
<polyline clip-path="url(#clip272)" style="stroke:#000000; stroke-linecap:round; stroke-linejoin:round; stroke-width:2; stroke-opacity:0.1; fill:none" points="86.9921,1226.26 2352.76,1226.26 "/>
<polyline clip-path="url(#clip272)" style="stroke:#000000; stroke-linecap:round; stroke-linejoin:round; stroke-width:2; stroke-opacity:0.1; fill:none" points="86.9921,931.502 2352.76,931.502 "/>
<polyline clip-path="url(#clip272)" style="stroke:#000000; stroke-linecap:round; stroke-linejoin:round; stroke-width:2; stroke-opacity:0.1; fill:none" points="86.9921,636.75 2352.76,636.75 "/>
<polyline clip-path="url(#clip272)" style="stroke:#000000; stroke-linecap:round; stroke-linejoin:round; stroke-width:2; stroke-opacity:0.1; fill:none" points="86.9921,341.997 2352.76,341.997 "/>
<polyline clip-path="url(#clip272)" style="stroke:#000000; stroke-linecap:round; stroke-linejoin:round; stroke-width:2; stroke-opacity:0.1; fill:none" points="86.9921,47.2441 2352.76,47.2441 "/>
<polyline clip-path="url(#clip272)" style="stroke:#000000; stroke-linecap:round; stroke-linejoin:round; stroke-width:2; stroke-opacity:0.1; fill:none" points="86.9921,1521.01 2352.76,1521.01 "/>
<polyline clip-path="url(#clip272)" style="stroke:#000000; stroke-linecap:round; stroke-linejoin:round; stroke-width:2; stroke-opacity:0.1; fill:none" points="86.9921,1226.26 2352.76,1226.26 "/>
<polyline clip-path="url(#clip272)" style="stroke:#000000; stroke-linecap:round; stroke-linejoin:round; stroke-width:2; stroke-opacity:0.1; fill:none" points="86.9921,931.502 2352.76,931.502 "/>
<polyline clip-path="url(#clip272)" style="stroke:#000000; stroke-linecap:round; stroke-linejoin:round; stroke-width:2; stroke-opacity:0.1; fill:none" points="86.9921,636.75 2352.76,636.75 "/>
<polyline clip-path="url(#clip272)" style="stroke:#000000; stroke-linecap:round; stroke-linejoin:round; stroke-width:2; stroke-opacity:0.1; fill:none" points="86.9921,341.997 2352.76,341.997 "/>
<polyline clip-path="url(#clip272)" style="stroke:#000000; stroke-linecap:round; stroke-linejoin:round; stroke-width:2; stroke-opacity:0.1; fill:none" points="86.9921,47.2441 2352.76,47.2441 "/>
<polyline clip-path="url(#clip270)" style="stroke:#000000; stroke-linecap:round; stroke-linejoin:round; stroke-width:4; stroke-opacity:1; fill:none" points="86.9921,1521.01 2352.76,1521.01 "/>
<polyline clip-path="url(#clip270)" style="stroke:#000000; stroke-linecap:round; stroke-linejoin:round; stroke-width:4; stroke-opacity:1; fill:none" points="86.9921,47.2441 2352.76,47.2441 "/>
<polyline clip-path="url(#clip270)" style="stroke:#000000; stroke-linecap:round; stroke-linejoin:round; stroke-width:4; stroke-opacity:1; fill:none" points="86.9921,1521.01 86.9921,1502.11 "/>
<polyline clip-path="url(#clip270)" style="stroke:#000000; stroke-linecap:round; stroke-linejoin:round; stroke-width:4; stroke-opacity:1; fill:none" points="842.247,1521.01 842.247,1502.11 "/>
<polyline clip-path="url(#clip270)" style="stroke:#000000; stroke-linecap:round; stroke-linejoin:round; stroke-width:4; stroke-opacity:1; fill:none" points="1597.5,1521.01 1597.5,1502.11 "/>
<polyline clip-path="url(#clip270)" style="stroke:#000000; stroke-linecap:round; stroke-linejoin:round; stroke-width:4; stroke-opacity:1; fill:none" points="2352.76,1521.01 2352.76,1502.11 "/>
<polyline clip-path="url(#clip270)" style="stroke:#000000; stroke-linecap:round; stroke-linejoin:round; stroke-width:4; stroke-opacity:1; fill:none" points="86.9921,47.2441 86.9921,66.1417 "/>
<polyline clip-path="url(#clip270)" style="stroke:#000000; stroke-linecap:round; stroke-linejoin:round; stroke-width:4; stroke-opacity:1; fill:none" points="842.247,47.2441 842.247,66.1417 "/>
<polyline clip-path="url(#clip270)" style="stroke:#000000; stroke-linecap:round; stroke-linejoin:round; stroke-width:4; stroke-opacity:1; fill:none" points="1597.5,47.2441 1597.5,66.1417 "/>
<polyline clip-path="url(#clip270)" style="stroke:#000000; stroke-linecap:round; stroke-linejoin:round; stroke-width:4; stroke-opacity:1; fill:none" points="2352.76,47.2441 2352.76,66.1417 "/>
<polyline clip-path="url(#clip270)" style="stroke:#000000; stroke-linecap:round; stroke-linejoin:round; stroke-width:4; stroke-opacity:1; fill:none" points="86.9921,1521.01 86.9921,47.2441 "/>
<polyline clip-path="url(#clip270)" style="stroke:#000000; stroke-linecap:round; stroke-linejoin:round; stroke-width:4; stroke-opacity:1; fill:none" points="2352.76,1521.01 2352.76,47.2441 "/>
<polyline clip-path="url(#clip270)" style="stroke:#000000; stroke-linecap:round; stroke-linejoin:round; stroke-width:4; stroke-opacity:1; fill:none" points="86.9921,1521.01 105.89,1521.01 "/>
<polyline clip-path="url(#clip270)" style="stroke:#000000; stroke-linecap:round; stroke-linejoin:round; stroke-width:4; stroke-opacity:1; fill:none" points="86.9921,1226.26 105.89,1226.26 "/>
<polyline clip-path="url(#clip270)" style="stroke:#000000; stroke-linecap:round; stroke-linejoin:round; stroke-width:4; stroke-opacity:1; fill:none" points="86.9921,931.502 105.89,931.502 "/>
<polyline clip-path="url(#clip270)" style="stroke:#000000; stroke-linecap:round; stroke-linejoin:round; stroke-width:4; stroke-opacity:1; fill:none" points="86.9921,636.75 105.89,636.75 "/>
<polyline clip-path="url(#clip270)" style="stroke:#000000; stroke-linecap:round; stroke-linejoin:round; stroke-width:4; stroke-opacity:1; fill:none" points="86.9921,341.997 105.89,341.997 "/>
<polyline clip-path="url(#clip270)" style="stroke:#000000; stroke-linecap:round; stroke-linejoin:round; stroke-width:4; stroke-opacity:1; fill:none" points="86.9921,47.2441 105.89,47.2441 "/>
<polyline clip-path="url(#clip270)" style="stroke:#000000; stroke-linecap:round; stroke-linejoin:round; stroke-width:4; stroke-opacity:1; fill:none" points="2352.76,1521.01 2333.86,1521.01 "/>
<polyline clip-path="url(#clip270)" style="stroke:#000000; stroke-linecap:round; stroke-linejoin:round; stroke-width:4; stroke-opacity:1; fill:none" points="2352.76,1226.26 2333.86,1226.26 "/>
<polyline clip-path="url(#clip270)" style="stroke:#000000; stroke-linecap:round; stroke-linejoin:round; stroke-width:4; stroke-opacity:1; fill:none" points="2352.76,931.502 2333.86,931.502 "/>
<polyline clip-path="url(#clip270)" style="stroke:#000000; stroke-linecap:round; stroke-linejoin:round; stroke-width:4; stroke-opacity:1; fill:none" points="2352.76,636.75 2333.86,636.75 "/>
<polyline clip-path="url(#clip270)" style="stroke:#000000; stroke-linecap:round; stroke-linejoin:round; stroke-width:4; stroke-opacity:1; fill:none" points="2352.76,341.997 2333.86,341.997 "/>
<polyline clip-path="url(#clip270)" style="stroke:#000000; stroke-linecap:round; stroke-linejoin:round; stroke-width:4; stroke-opacity:1; fill:none" points="2352.76,47.2441 2333.86,47.2441 "/>
<polyline clip-path="url(#clip272)" style="stroke:#009af9; stroke-linecap:round; stroke-linejoin:round; stroke-width:32; stroke-opacity:0.8; fill:none" points="86.9921,61.9817 89.2602,62.4257 91.5282,62.8816 93.7962,63.3496 96.0643,63.8302 98.3323,64.3236 100.6,64.8302 102.868,65.3503 105.136,65.8842 107.404,66.4323 109.672,66.9951 111.94,67.5727 114.209,68.1658 116.477,68.7745 118.745,69.3994 121.013,70.0409 123.281,70.6993 125.549,71.3751 127.817,72.0688 130.085,72.7808 132.353,73.5115 134.621,74.2615 136.889,75.0311 139.157,75.821 141.425,76.6316 143.693,77.4635 145.961,78.3171 148.229,79.193 150.497,80.0918 152.765,81.0139 155.033,81.9601 157.301,82.9309 159.569,83.9269 161.837,84.9487 164.105,85.9969 166.373,87.0721 168.641,88.1751 170.909,89.3065 173.177,90.4669 175.445,91.6571 177.713,92.8778 179.981,94.1297 182.249,95.4135 184.517,96.73 186.786,98.0799 189.054,99.464 191.322,100.883 193.59,102.338 195.858,103.83 198.126,105.359 200.394,106.926 202.662,108.533 204.93,110.179 207.198,111.867 209.466,113.596 211.734,115.368 214.002,117.184 216.27,119.045 218.538,120.951 220.806,122.903 223.074,124.904 225.342,126.953 227.61,129.051 229.878,131.2 232.146,133.401 234.414,135.654 236.682,137.962 238.95,140.324 241.218,142.742 243.486,145.217 245.754,147.75 248.022,150.342 250.29,152.994 252.558,155.708 254.826,158.485 257.095,161.325 259.363,164.23 261.631,167.202 263.899,170.241 266.167,173.348 268.435,176.524 270.703,179.772 272.971,183.091 275.239,186.483 277.507,189.949 279.775,193.491 282.043,197.109 284.311,200.804 286.579,204.578 288.847,208.432 291.115,212.367 293.383,216.383 295.651,220.483 297.919,224.667 300.187,228.936 302.455,233.291 304.723,237.733 306.991,242.263 309.259,246.882 311.527,251.591 313.795,256.392 316.063,261.284 318.331,266.269 320.599,271.348 322.867,276.521 325.135,281.789 327.403,287.152 329.672,292.611 331.94,298.167 334.208,303.821 336.476,309.571 338.744,315.419 341.012,321.366 343.28,327.411 345.548,333.554 347.816,339.797 350.084,346.138 352.352,352.578 354.62,359.118 356.888,365.756 359.156,372.493 361.424,379.328 363.692,386.262 365.96,393.294 368.228,400.422 370.496,407.647 372.764,414.967 375.032,422.383 377.3,429.892 379.568,437.494 381.836,445.188 384.104,452.973 386.372,460.847 388.64,468.809 390.908,476.857 393.176,484.991 395.444,493.208 397.712,501.506 399.981,509.885 402.249,518.341 404.517,526.874 406.785,535.48 409.053,544.159 411.321,552.907 413.589,561.722 415.857,570.602 418.125,579.544 420.393,588.547 422.661,597.606 424.929,606.72 427.197,615.885 429.465,625.098 431.733,634.358 434.001,643.662 436.269,653.006 438.537,662.388 440.805,671.804 443.073,681.25 445.341,690.722 447.609,700.217 449.877,709.733 452.145,719.264 454.413,728.808 456.681,738.362 458.949,747.922 461.217,757.484 463.485,767.046 465.753,776.605 468.021,786.156 470.29,795.697 472.558,805.225 474.826,814.737 477.094,824.228 479.362,833.697 481.63,843.141 483.898,852.555 486.166,861.938 488.434,871.286 490.702,880.596 492.97,889.865 495.238,899.091 497.506,908.271 499.774,917.401 502.042,926.48 504.31,935.504 506.578,944.47 508.846,953.376 511.114,962.219 513.382,970.996 515.65,979.706 517.918,988.344 520.186,996.91 522.454,1005.4 524.722,1013.82 526.99,1022.16 529.258,1030.42 531.526,1038.6 533.794,1046.7 536.062,1054.71 538.33,1062.64 540.598,1070.49 542.867,1078.25 545.135,1085.92 547.403,1093.5 549.671,1100.99 551.939,1108.4 554.207,1115.71 556.475,1122.93 558.743,1130.06 561.011,1137.09 563.279,1144.03 565.547,1150.88 567.815,1157.64 570.083,1164.3 572.351,1170.86 574.619,1177.33 576.887,1183.71 579.155,1189.99 581.423,1196.18 583.691,1202.27 585.959,1208.27 588.227,1214.17 590.495,1219.99 592.763,1225.71 595.031,1231.33 597.299,1236.87 599.567,1242.32 601.835,1247.67 604.103,1252.94 606.371,1258.11 608.639,1263.2 610.907,1268.21 613.176,1273.12 615.444,1277.95 617.712,1282.7 619.98,1287.36 622.248,1291.94 624.516,1296.44 626.784,1300.85 629.052,1305.19 631.32,1309.45 633.588,1313.62 635.856,1317.73 638.124,1321.75 640.392,1325.7 642.66,1329.58 644.928,1333.38 647.196,1337.11 649.464,1340.77 651.732,1344.36 654,1347.88 656.268,1351.33 658.536,1354.71 660.804,1358.03 663.072,1361.28 665.34,1364.47 667.608,1367.59 669.876,1370.65 672.144,1373.65 674.412,1376.59 676.68,1379.47 678.948,1382.29 681.216,1385.05 683.484,1387.76 685.753,1390.41 688.021,1393.01 690.289,1395.56 692.557,1398.05 694.825,1400.49 697.093,1402.88 699.361,1405.23 701.629,1407.52 703.897,1409.77 706.165,1411.97 708.433,1414.13 710.701,1416.25 712.969,1418.32 715.237,1420.35 717.505,1422.34 719.773,1424.29 722.041,1426.19 724.309,1428.06 726.577,1429.89 728.845,1431.68 731.113,1433.43 733.381,1435.15 735.649,1436.83 737.917,1438.48 740.185,1440.09 742.453,1441.66 744.721,1443.21 746.989,1444.72 749.257,1446.2 751.525,1447.65 753.793,1449.07 756.062,1450.46 758.33,1451.82 760.598,1453.16 762.866,1454.46 765.134,1455.74 767.402,1456.99 769.67,1458.21 771.938,1459.41 774.206,1460.59 776.474,1461.74 778.742,1462.86 781.01,1463.97 783.278,1465.05 785.546,1466.1 787.814,1467.14 790.082,1468.15 792.35,1469.15 794.618,1470.12 796.886,1471.07 799.154,1472 801.422,1472.92 803.69,1473.81 805.958,1474.69 808.226,1475.55 810.494,1476.39 812.762,1477.21 815.03,1478.02 817.298,1478.81 819.566,1479.59 821.834,1480.34 824.102,1481.09 826.37,1481.82 828.639,1482.53 830.907,1483.23 833.175,1483.91 835.443,1484.58 837.711,1485.24 839.979,1485.88 842.247,1486.51 844.515,1487.13 846.783,1487.73 849.051,1488.33 851.319,1488.91 853.587,1489.48 855.855,1490.03 858.123,1490.58 860.391,1491.12 862.659,1491.64 864.927,1492.16 867.195,1492.66 869.463,1493.15 871.731,1493.64 873.999,1494.11 876.267,1494.58 878.535,1495.04 880.803,1495.48 883.071,1495.92 885.339,1496.35 887.607,1496.77 889.875,1497.19 892.143,1497.59 894.411,1497.99 896.679,1498.38 898.948,1498.76 901.216,1499.14 903.484,1499.5 905.752,1499.87 908.02,1500.22 910.288,1500.57 912.556,1500.91 914.824,1501.24 917.092,1501.57 919.36,1501.89 921.628,1502.2 923.896,1502.51 926.164,1502.81 928.432,1503.11 930.7,1503.4 932.968,1503.69 935.236,1503.97 937.504,1504.25 939.772,1504.52 942.04,1504.78 944.308,1505.04 946.576,1505.3 948.844,1505.55 951.112,1505.79 953.38,1506.03 955.648,1506.27 957.916,1506.5 960.184,1506.73 962.452,1506.96 964.72,1507.18 966.988,1507.39 969.257,1507.6 971.525,1507.81 973.793,1508.02 976.061,1508.22 978.329,1508.41 980.597,1508.61 982.865,1508.8 985.133,1508.98 987.401,1509.17 989.669,1509.35 991.937,1509.52 994.205,1509.7 996.473,1509.87 998.741,1510.04 1001.01,1510.2 1003.28,1510.36 1005.55,1510.52 1007.81,1510.68 1010.08,1510.83 1012.35,1510.98 1014.62,1511.13 1016.89,1511.27 1019.15,1511.42 1021.42,1511.56 1023.69,1511.69 1025.96,1511.83 1028.23,1511.96 1030.49,1512.09 1032.76,1512.22 1035.03,1512.35 1037.3,1512.47 1039.57,1512.59 1041.83,1512.71 1044.1,1512.83 1046.37,1512.95 1048.64,1513.06 1050.91,1513.17 1053.17,1513.28 1055.44,1513.39 1057.71,1513.5 1059.98,1513.6 1062.25,1513.71 1064.51,1513.81 1066.78,1513.91 1069.05,1514 1071.32,1514.1 1073.59,1514.19 1075.85,1514.29 1078.12,1514.38 1080.39,1514.47 1082.66,1514.56 1084.93,1514.65 1087.19,1514.73 1089.46,1514.82 1091.73,1514.9 1094,1514.98 1096.27,1515.06 1098.53,1515.14 1100.8,1515.22 1103.07,1515.29 1105.34,1515.37 1107.61,1515.44 1109.87,1515.52 1112.14,1515.59 1114.41,1515.66 1116.68,1515.73 1118.95,1515.8 1121.21,1515.86 1123.48,1515.93 1125.75,1515.99 1128.02,1516.06 1130.29,1516.12 1132.55,1516.18 1134.82,1516.24 1137.09,1516.3 1139.36,1516.36 1141.63,1516.42 1143.89,1516.48 1146.16,1516.54 1148.43,1516.59 1150.7,1516.65 1152.97,1516.7 1155.24,1516.75 1157.5,1516.81 1159.77,1516.86 1162.04,1516.91 1164.31,1516.96 1166.58,1517.01 1168.84,1517.06 1171.11,1517.1 1173.38,1517.15 1175.65,1517.2 1177.92,1517.24 1180.18,1517.29 1182.45,1517.33 1184.72,1517.38 1186.99,1517.42 1189.26,1517.46 1191.52,1517.5 1193.79,1517.55 1196.06,1517.59 1198.33,1517.63 1200.6,1517.67 1202.86,1517.7 1205.13,1517.74 1207.4,1517.78 1209.67,1517.82 1211.94,1517.85 1214.2,1517.89 1216.47,1517.93 1218.74,1517.96 1221.01,1518 1223.28,1518.03 1225.54,1518.06 1227.81,1518.1 1230.08,1518.13 1232.35,1518.16 1234.62,1518.19 1236.88,1518.22 1239.15,1518.26 1241.42,1518.29 1243.69,1518.32 1245.96,1518.35 1248.22,1518.37 1250.49,1518.4 1252.76,1518.43 1255.03,1518.46 1257.3,1518.49 1259.56,1518.51 1261.83,1518.54 1264.1,1518.57 1266.37,1518.59 1268.64,1518.62 1270.9,1518.65 1273.17,1518.67 1275.44,1518.7 1277.71,1518.72 1279.98,1518.74 1282.24,1518.77 1284.51,1518.79 1286.78,1518.81 1289.05,1518.84 1291.32,1518.86 1293.59,1518.88 1295.85,1518.9 1298.12,1518.93 1300.39,1518.95 1302.66,1518.97 1304.93,1518.99 1307.19,1519.01 1309.46,1519.03 1311.73,1519.05 1314,1519.07 1316.27,1519.09 1318.53,1519.11 1320.8,1519.13 1323.07,1519.14 1325.34,1519.16 1327.61,1519.18 1329.87,1519.2 1332.14,1519.22 1334.41,1519.23 1336.68,1519.25 1338.95,1519.27 1341.21,1519.29 1343.48,1519.3 1345.75,1519.32 1348.02,1519.34 1350.29,1519.35 1352.55,1519.37 1354.82,1519.38 1357.09,1519.4 1359.36,1519.41 1361.63,1519.43 1363.89,1519.44 1366.16,1519.46 1368.43,1519.47 1370.7,1519.49 1372.97,1519.5 1375.23,1519.52 1377.5,1519.53 1379.77,1519.54 1382.04,1519.56 1384.31,1519.57 1386.57,1519.58 1388.84,1519.6 1391.11,1519.61 1393.38,1519.62 1395.65,1519.63 1397.91,1519.65 1400.18,1519.66 1402.45,1519.67 1404.72,1519.68 1406.99,1519.69 1409.25,1519.71 1411.52,1519.72 1413.79,1519.73 1416.06,1519.74 1418.33,1519.75 1420.59,1519.76 1422.86,1519.77 1425.13,1519.78 1427.4,1519.8 1429.67,1519.81 1431.93,1519.82 1434.2,1519.83 1436.47,1519.84 1438.74,1519.85 1441.01,1519.86 1443.28,1519.87 1445.54,1519.88 1447.81,1519.89 1450.08,1519.89 1452.35,1519.9 1454.62,1519.91 1456.88,1519.92 1459.15,1519.93 1461.42,1519.94 1463.69,1519.95 1465.96,1519.96 1468.22,1519.97 1470.49,1519.98 1472.76,1519.98 1475.03,1519.99 1477.3,1520 1479.56,1520.01 1481.83,1520.02 1484.1,1520.02 1486.37,1520.03 1488.64,1520.04 1490.9,1520.05 1493.17,1520.06 1495.44,1520.06 1497.71,1520.07 1499.98,1520.08 1502.24,1520.09 1504.51,1520.09 1506.78,1520.1 1509.05,1520.11 1511.32,1520.11 1513.58,1520.12 1515.85,1520.13 1518.12,1520.13 1520.39,1520.14 1522.66,1520.15 1524.92,1520.15 1527.19,1520.16 1529.46,1520.17 1531.73,1520.17 1534,1520.18 1536.26,1520.19 1538.53,1520.19 1540.8,1520.2 1543.07,1520.2 1545.34,1520.21 1547.6,1520.22 1549.87,1520.22 1552.14,1520.23 1554.41,1520.23 1556.68,1520.24 1558.94,1520.25 1561.21,1520.25 1563.48,1520.26 1565.75,1520.26 1568.02,1520.27 1570.28,1520.27 1572.55,1520.28 1574.82,1520.28 1577.09,1520.29 1579.36,1520.29 1581.63,1520.3 1583.89,1520.3 1586.16,1520.31 1588.43,1520.31 1590.7,1520.32 1592.97,1520.32 1595.23,1520.33 1597.5,1520.33 1599.77,1520.34 1602.04,1520.34 1604.31,1520.35 1606.57,1520.35 1608.84,1520.36 1611.11,1520.36 1613.38,1520.36 1615.65,1520.37 1617.91,1520.37 1620.18,1520.38 1622.45,1520.38 1624.72,1520.39 1626.99,1520.39 1629.25,1520.39 1631.52,1520.4 1633.79,1520.4 1636.06,1520.41 1638.33,1520.41 1640.59,1520.41 1642.86,1520.42 1645.13,1520.42 1647.4,1520.43 1649.67,1520.43 1651.93,1520.43 1654.2,1520.44 1656.47,1520.44 1658.74,1520.44 1661.01,1520.45 1663.27,1520.45 1665.54,1520.45 1667.81,1520.46 1670.08,1520.46 1672.35,1520.46 1674.61,1520.47 1676.88,1520.47 1679.15,1520.48 1681.42,1520.48 1683.69,1520.48 1685.95,1520.48 1688.22,1520.49 1690.49,1520.49 1692.76,1520.49 1695.03,1520.5 1697.29,1520.5 1699.56,1520.5 1701.83,1520.51 1704.1,1520.51 1706.37,1520.51 1708.63,1520.52 1710.9,1520.52 1713.17,1520.52 1715.44,1520.52 1717.71,1520.53 1719.98,1520.53 1722.24,1520.53 1724.51,1520.54 1726.78,1520.54 1729.05,1520.54 1731.32,1520.54 1733.58,1520.55 1735.85,1520.55 1738.12,1520.55 1740.39,1520.55 1742.66,1520.56 1744.92,1520.56 1747.19,1520.56 1749.46,1520.57 1751.73,1520.57 1754,1520.57 1756.26,1520.57 1758.53,1520.58 1760.8,1520.58 1763.07,1520.58 1765.34,1520.58 1767.6,1520.58 1769.87,1520.59 1772.14,1520.59 1774.41,1520.59 1776.68,1520.59 1778.94,1520.6 1781.21,1520.6 1783.48,1520.6 1785.75,1520.6 1788.02,1520.61 1790.28,1520.61 1792.55,1520.61 1794.82,1520.61 1797.09,1520.61 1799.36,1520.62 1801.62,1520.62 1803.89,1520.62 1806.16,1520.62 1808.43,1520.62 1810.7,1520.63 1812.96,1520.63 1815.23,1520.63 1817.5,1520.63 1819.77,1520.63 1822.04,1520.64 1824.3,1520.64 1826.57,1520.64 1828.84,1520.64 1831.11,1520.64 1833.38,1520.65 1835.64,1520.65 1837.91,1520.65 1840.18,1520.65 1842.45,1520.65 1844.72,1520.65 1846.98,1520.66 1849.25,1520.66 1851.52,1520.66 1853.79,1520.66 1856.06,1520.66 1858.32,1520.66 1860.59,1520.67 1862.86,1520.67 1865.13,1520.67 1867.4,1520.67 1869.67,1520.67 1871.93,1520.67 1874.2,1520.68 1876.47,1520.68 1878.74,1520.68 1881.01,1520.68 1883.27,1520.68 1885.54,1520.68 1887.81,1520.69 1890.08,1520.69 1892.35,1520.69 1894.61,1520.69 1896.88,1520.69 1899.15,1520.69 1901.42,1520.69 1903.69,1520.7 1905.95,1520.7 1908.22,1520.7 1910.49,1520.7 1912.76,1520.7 1915.03,1520.7 1917.29,1520.7 1919.56,1520.71 1921.83,1520.71 1924.1,1520.71 1926.37,1520.71 1928.63,1520.71 1930.9,1520.71 1933.17,1520.71 1935.44,1520.72 1937.71,1520.72 1939.97,1520.72 1942.24,1520.72 1944.51,1520.72 1946.78,1520.72 1949.05,1520.72 1951.31,1520.72 1953.58,1520.73 1955.85,1520.73 1958.12,1520.73 1960.39,1520.73 1962.65,1520.73 1964.92,1520.73 1967.19,1520.73 1969.46,1520.73 1971.73,1520.73 1973.99,1520.74 1976.26,1520.74 1978.53,1520.74 1980.8,1520.74 1983.07,1520.74 1985.33,1520.74 1987.6,1520.74 1989.87,1520.74 1992.14,1520.75 1994.41,1520.75 1996.67,1520.75 1998.94,1520.75 2001.21,1520.75 2003.48,1520.75 2005.75,1520.75 2008.02,1520.75 2010.28,1520.75 2012.55,1520.75 2014.82,1520.76 2017.09,1520.76 2019.36,1520.76 2021.62,1520.76 2023.89,1520.76 2026.16,1520.76 2028.43,1520.76 2030.7,1520.76 2032.96,1520.76 2035.23,1520.76 2037.5,1520.77 2039.77,1520.77 2042.04,1520.77 2044.3,1520.77 2046.57,1520.77 2048.84,1520.77 2051.11,1520.77 2053.38,1520.77 2055.64,1520.77 2057.91,1520.77 2060.18,1520.77 2062.45,1520.78 2064.72,1520.78 2066.98,1520.78 2069.25,1520.78 2071.52,1520.78 2073.79,1520.78 2076.06,1520.78 2078.32,1520.78 2080.59,1520.78 2082.86,1520.78 2085.13,1520.78 2087.4,1520.78 2089.66,1520.79 2091.93,1520.79 2094.2,1520.79 2096.47,1520.79 2098.74,1520.79 2101,1520.79 2103.27,1520.79 2105.54,1520.79 2107.81,1520.79 2110.08,1520.79 2112.34,1520.79 2114.61,1520.79 2116.88,1520.79 2119.15,1520.8 2121.42,1520.8 2123.68,1520.8 2125.95,1520.8 2128.22,1520.8 2130.49,1520.8 2132.76,1520.8 2135.02,1520.8 2137.29,1520.8 2139.56,1520.8 2141.83,1520.8 2144.1,1520.8 2146.37,1520.8 2148.63,1520.8 2150.9,1520.81 2153.17,1520.81 2155.44,1520.81 2157.71,1520.81 2159.97,1520.81 2162.24,1520.81 2164.51,1520.81 2166.78,1520.81 2169.05,1520.81 2171.31,1520.81 2173.58,1520.81 2175.85,1520.81 2178.12,1520.81 2180.39,1520.81 2182.65,1520.81 2184.92,1520.82 2187.19,1520.82 2189.46,1520.82 2191.73,1520.82 2193.99,1520.82 2196.26,1520.82 2198.53,1520.82 2200.8,1520.82 2203.07,1520.82 2205.33,1520.82 2207.6,1520.82 2209.87,1520.82 2212.14,1520.82 2214.41,1520.82 2216.67,1520.82 2218.94,1520.82 2221.21,1520.82 2223.48,1520.83 2225.75,1520.83 2228.01,1520.83 2230.28,1520.83 2232.55,1520.83 2234.82,1520.83 2237.09,1520.83 2239.35,1520.83 2241.62,1520.83 2243.89,1520.83 2246.16,1520.83 2248.43,1520.83 2250.69,1520.83 2252.96,1520.83 2255.23,1520.83 2257.5,1520.83 2259.77,1520.83 2262.03,1520.83 2264.3,1520.83 2266.57,1520.84 2268.84,1520.84 2271.11,1520.84 2273.37,1520.84 2275.64,1520.84 2277.91,1520.84 2280.18,1520.84 2282.45,1520.84 2284.71,1520.84 2286.98,1520.84 2289.25,1520.84 2291.52,1520.84 2293.79,1520.84 2296.06,1520.84 2298.32,1520.84 2300.59,1520.84 2302.86,1520.84 2305.13,1520.84 2307.4,1520.84 2309.66,1520.84 2311.93,1520.84 2314.2,1520.84 2316.47,1520.85 2318.74,1520.85 2321,1520.85 2323.27,1520.85 2325.54,1520.85 2327.81,1520.85 2330.08,1520.85 2332.34,1520.85 2334.61,1520.85 2336.88,1520.85 2339.15,1520.85 2341.42,1520.85 2343.68,1520.85 2345.95,1520.85 2348.22,1520.85 2350.49,1520.85 2352.76,1520.85 "/>
<polyline clip-path="url(#clip272)" style="stroke:#e26f46; stroke-linecap:round; stroke-linejoin:round; stroke-width:32; stroke-opacity:0.8; fill:none" points="86.9921,1506.27 89.2602,1505.87 91.5282,1505.46 93.7962,1505.04 96.0643,1504.61 98.3323,1504.17 100.6,1503.71 102.868,1503.24 105.136,1502.76 107.404,1502.27 109.672,1501.76 111.94,1501.25 114.209,1500.71 116.477,1500.17 118.745,1499.6 121.013,1499.03 123.281,1498.44 125.549,1497.83 127.817,1497.21 130.085,1496.57 132.353,1495.91 134.621,1495.24 136.889,1494.54 139.157,1493.84 141.425,1493.11 143.693,1492.36 145.961,1491.59 148.229,1490.81 150.497,1490 152.765,1489.17 155.033,1488.32 157.301,1487.45 159.569,1486.56 161.837,1485.64 164.105,1484.7 166.373,1483.74 168.641,1482.75 170.909,1481.73 173.177,1480.69 175.445,1479.62 177.713,1478.53 179.981,1477.41 182.249,1476.25 184.517,1475.07 186.786,1473.86 189.054,1472.62 191.322,1471.35 193.59,1470.05 195.858,1468.71 198.126,1467.34 200.394,1465.94 202.662,1464.5 204.93,1463.02 207.198,1461.51 209.466,1459.96 211.734,1458.38 214.002,1456.75 216.27,1455.09 218.538,1453.38 220.806,1451.63 223.074,1449.85 225.342,1448.01 227.61,1446.14 229.878,1444.21 232.146,1442.25 234.414,1440.23 236.682,1438.17 238.95,1436.06 241.218,1433.9 243.486,1431.69 245.754,1429.43 248.022,1427.12 250.29,1424.75 252.558,1422.33 254.826,1419.85 257.095,1417.32 259.363,1414.73 261.631,1412.08 263.899,1409.37 266.167,1406.61 268.435,1403.78 270.703,1400.89 272.971,1397.93 275.239,1394.91 277.507,1391.83 279.775,1388.68 282.043,1385.47 284.311,1382.18 286.579,1378.83 288.847,1375.41 291.115,1371.92 293.383,1368.35 295.651,1364.72 297.919,1361.01 300.187,1357.23 302.455,1353.37 304.723,1349.44 306.991,1345.43 309.259,1341.34 311.527,1337.18 313.795,1332.94 316.063,1328.61 318.331,1324.21 320.599,1319.73 322.867,1315.17 325.135,1310.53 327.403,1305.8 329.672,1301 331.94,1296.11 334.208,1291.14 336.476,1286.09 338.744,1280.95 341.012,1275.73 343.28,1270.43 345.548,1265.05 347.816,1259.58 350.084,1254.04 352.352,1248.41 354.62,1242.69 356.888,1236.9 359.156,1231.03 361.424,1225.07 363.692,1219.03 365.96,1212.92 368.228,1206.72 370.496,1200.45 372.764,1194.1 375.032,1187.68 377.3,1181.18 379.568,1174.61 381.836,1167.97 384.104,1161.25 386.372,1154.47 388.64,1147.62 390.908,1140.7 393.176,1133.72 395.444,1126.68 397.712,1119.57 399.981,1112.41 402.249,1105.19 404.517,1097.92 406.785,1090.59 409.053,1083.22 411.321,1075.8 413.589,1068.33 415.857,1060.82 418.125,1053.27 420.393,1045.69 422.661,1038.06 424.929,1030.41 427.197,1022.73 429.465,1015.03 431.733,1007.3 434.001,999.549 436.269,991.782 438.537,984.001 440.805,976.21 443.073,968.413 445.341,960.612 447.609,952.811 449.877,945.014 452.145,937.225 454.413,929.445 456.681,921.68 458.949,913.932 461.217,906.204 463.485,898.5 465.753,890.822 468.021,883.175 470.29,875.56 472.558,867.982 474.826,860.443 477.094,852.946 479.362,845.494 481.63,838.091 483.898,830.738 486.166,823.439 488.434,816.196 490.702,809.013 492.97,801.892 495.238,794.836 497.506,787.848 499.774,780.929 502.042,774.083 504.31,767.312 506.578,760.62 508.846,754.007 511.114,747.477 513.382,741.032 515.65,734.675 517.918,728.407 520.186,722.231 522.454,716.146 524.722,710.156 526.99,704.261 529.258,698.463 531.526,692.762 533.794,687.159 536.062,681.657 538.33,676.254 540.598,670.954 542.867,665.756 545.135,660.66 547.403,655.669 549.671,650.781 551.939,645.999 554.207,641.321 556.475,636.75 558.743,632.284 561.011,627.924 563.279,623.67 565.547,619.523 567.815,615.482 570.083,611.547 572.351,607.719 574.619,603.996 576.887,600.379 579.155,596.867 581.423,593.46 583.691,590.157 585.959,586.958 588.227,583.863 590.495,580.869 592.763,577.977 595.031,575.186 597.299,572.494 599.567,569.902 601.835,567.407 604.103,565.008 606.371,562.705 608.639,560.496 610.907,558.381 613.176,556.359 615.444,554.428 617.712,552.587 619.98,550.835 622.248,549.171 624.516,547.594 626.784,546.102 629.052,544.695 631.32,543.371 633.588,542.129 635.856,540.967 638.124,539.886 640.392,538.882 642.66,537.957 644.928,537.107 647.196,536.332 649.464,535.631 651.732,535.002 654,534.445 656.268,533.957 658.536,533.539 660.804,533.189 663.072,532.905 665.34,532.686 667.608,532.531 669.876,532.44 672.144,532.41 674.412,532.44 676.68,532.53 678.948,532.678 681.216,532.882 683.484,533.143 685.753,533.457 688.021,533.825 690.289,534.244 692.557,534.715 694.825,535.234 697.093,535.802 699.361,536.417 701.629,537.077 703.897,537.782 706.165,538.53 708.433,539.32 710.701,540.151 712.969,541.023 715.237,541.935 717.505,542.886 719.773,543.875 722.041,544.901 724.309,545.963 726.577,547.061 728.845,548.193 731.113,549.36 733.381,550.559 735.649,551.79 737.917,553.053 740.185,554.346 742.453,555.669 744.721,557.021 746.989,558.401 749.257,559.808 751.525,561.243 753.793,562.703 756.062,564.189 758.33,565.699 760.598,567.233 762.866,568.79 765.134,570.37 767.402,571.972 769.67,573.595 771.938,575.238 774.206,576.902 776.474,578.585 778.742,580.287 781.01,582.007 783.278,583.745 785.546,585.499 787.814,587.271 790.082,589.058 792.35,590.861 794.618,592.679 796.886,594.512 799.154,596.358 801.422,598.218 803.69,600.091 805.958,601.977 808.226,603.875 810.494,605.785 812.762,607.706 815.03,609.638 817.298,611.582 819.566,613.535 821.834,615.499 824.102,617.472 826.37,619.454 828.639,621.446 830.907,623.445 833.175,625.454 835.443,627.47 837.711,629.493 839.979,631.524 842.247,633.562 844.515,635.607 846.783,637.657 849.051,639.714 851.319,641.777 853.587,643.845 855.855,645.919 858.123,647.997 860.391,650.08 862.659,652.168 864.927,654.259 867.195,656.355 869.463,658.454 871.731,660.557 873.999,662.663 876.267,664.772 878.535,666.884 880.803,668.998 883.071,671.115 885.339,673.234 887.607,675.355 889.875,677.478 892.143,679.602 894.411,681.728 896.679,683.856 898.948,685.984 901.216,688.113 903.484,690.244 905.752,692.375 908.02,694.506 910.288,696.638 912.556,698.77 914.824,700.902 917.092,703.034 919.36,705.166 921.628,707.298 923.896,709.43 926.164,711.561 928.432,713.691 930.7,715.82 932.968,717.949 935.236,720.077 937.504,722.203 939.772,724.329 942.04,726.453 944.308,728.576 946.576,730.697 948.844,732.816 951.112,734.934 953.38,737.05 955.648,739.165 957.916,741.277 960.184,743.387 962.452,745.495 964.72,747.601 966.988,749.704 969.257,751.806 971.525,753.904 973.793,756 976.061,758.094 978.329,760.185 980.597,762.273 982.865,764.358 985.133,766.441 987.401,768.521 989.669,770.597 991.937,772.671 994.205,774.742 996.473,776.809 998.741,778.873 1001.01,780.934 1003.28,782.992 1005.55,785.046 1007.81,787.097 1010.08,789.145 1012.35,791.189 1014.62,793.23 1016.89,795.267 1019.15,797.301 1021.42,799.331 1023.69,801.357 1025.96,803.38 1028.23,805.399 1030.49,807.414 1032.76,809.425 1035.03,811.433 1037.3,813.436 1039.57,815.436 1041.83,817.432 1044.1,819.424 1046.37,821.412 1048.64,823.396 1050.91,825.376 1053.17,827.352 1055.44,829.324 1057.71,831.292 1059.98,833.256 1062.25,835.215 1064.51,837.17 1066.78,839.122 1069.05,841.069 1071.32,843.011 1073.59,844.95 1075.85,846.884 1078.12,848.814 1080.39,850.74 1082.66,852.661 1084.93,854.578 1087.19,856.491 1089.46,858.399 1091.73,860.303 1094,862.203 1096.27,864.098 1098.53,865.989 1100.8,867.876 1103.07,869.758 1105.34,871.635 1107.61,873.509 1109.87,875.377 1112.14,877.242 1114.41,879.102 1116.68,880.957 1118.95,882.808 1121.21,884.654 1123.48,886.496 1125.75,888.334 1128.02,890.167 1130.29,891.995 1132.55,893.82 1134.82,895.639 1137.09,897.454 1139.36,899.265 1141.63,901.071 1143.89,902.872 1146.16,904.669 1148.43,906.461 1150.7,908.249 1152.97,910.033 1155.24,911.812 1157.5,913.586 1159.77,915.356 1162.04,917.121 1164.31,918.882 1166.58,920.638 1168.84,922.39 1171.11,924.137 1173.38,925.88 1175.65,927.618 1177.92,929.352 1180.18,931.081 1182.45,932.806 1184.72,934.526 1186.99,936.241 1189.26,937.952 1191.52,939.659 1193.79,941.361 1196.06,943.059 1198.33,944.752 1200.6,946.44 1202.86,948.124 1205.13,949.804 1207.4,951.479 1209.67,953.149 1211.94,954.816 1214.2,956.477 1216.47,958.134 1218.74,959.787 1221.01,961.435 1223.28,963.079 1225.54,964.719 1227.81,966.354 1230.08,967.984 1232.35,969.61 1234.62,971.232 1236.88,972.849 1239.15,974.462 1241.42,976.07 1243.69,977.674 1245.96,979.274 1248.22,980.869 1250.49,982.46 1252.76,984.046 1255.03,985.629 1257.3,987.206 1259.56,988.78 1261.83,990.349 1264.1,991.914 1266.37,993.474 1268.64,995.03 1270.9,996.582 1273.17,998.129 1275.44,999.672 1277.71,1001.21 1279.98,1002.75 1282.24,1004.28 1284.51,1005.8 1286.78,1007.32 1289.05,1008.84 1291.32,1010.35 1293.59,1011.86 1295.85,1013.37 1298.12,1014.87 1300.39,1016.37 1302.66,1017.86 1304.93,1019.35 1307.19,1020.83 1309.46,1022.31 1311.73,1023.78 1314,1025.26 1316.27,1026.72 1318.53,1028.19 1320.8,1029.64 1323.07,1031.1 1325.34,1032.55 1327.61,1034 1329.87,1035.44 1332.14,1036.88 1334.41,1038.31 1336.68,1039.74 1338.95,1041.17 1341.21,1042.59 1343.48,1044.01 1345.75,1045.42 1348.02,1046.83 1350.29,1048.24 1352.55,1049.64 1354.82,1051.04 1357.09,1052.43 1359.36,1053.82 1361.63,1055.2 1363.89,1056.59 1366.16,1057.96 1368.43,1059.34 1370.7,1060.71 1372.97,1062.07 1375.23,1063.44 1377.5,1064.79 1379.77,1066.15 1382.04,1067.5 1384.31,1068.85 1386.57,1070.19 1388.84,1071.53 1391.11,1072.86 1393.38,1074.19 1395.65,1075.52 1397.91,1076.84 1400.18,1078.16 1402.45,1079.48 1404.72,1080.79 1406.99,1082.1 1409.25,1083.4 1411.52,1084.7 1413.79,1086 1416.06,1087.29 1418.33,1088.58 1420.59,1089.87 1422.86,1091.15 1425.13,1092.43 1427.4,1093.7 1429.67,1094.98 1431.93,1096.24 1434.2,1097.51 1436.47,1098.77 1438.74,1100.02 1441.01,1101.27 1443.28,1102.52 1445.54,1103.77 1447.81,1105.01 1450.08,1106.25 1452.35,1107.48 1454.62,1108.71 1456.88,1109.94 1459.15,1111.16 1461.42,1112.38 1463.69,1113.6 1465.96,1114.81 1468.22,1116.02 1470.49,1117.23 1472.76,1118.43 1475.03,1119.63 1477.3,1120.82 1479.56,1122.02 1481.83,1123.2 1484.1,1124.39 1486.37,1125.57 1488.64,1126.75 1490.9,1127.92 1493.17,1129.09 1495.44,1130.26 1497.71,1131.43 1499.98,1132.59 1502.24,1133.74 1504.51,1134.9 1506.78,1136.05 1509.05,1137.2 1511.32,1138.34 1513.58,1139.48 1515.85,1140.62 1518.12,1141.75 1520.39,1142.88 1522.66,1144.01 1524.92,1145.13 1527.19,1146.25 1529.46,1147.37 1531.73,1148.48 1534,1149.6 1536.26,1150.7 1538.53,1151.81 1540.8,1152.91 1543.07,1154.01 1545.34,1155.1 1547.6,1156.19 1549.87,1157.28 1552.14,1158.36 1554.41,1159.45 1556.68,1160.52 1558.94,1161.6 1561.21,1162.67 1563.48,1163.74 1565.75,1164.81 1568.02,1165.87 1570.28,1166.93 1572.55,1167.99 1574.82,1169.04 1577.09,1170.09 1579.36,1171.14 1581.63,1172.18 1583.89,1173.22 1586.16,1174.26 1588.43,1175.29 1590.7,1176.33 1592.97,1177.35 1595.23,1178.38 1597.5,1179.4 1599.77,1180.42 1602.04,1181.44 1604.31,1182.45 1606.57,1183.46 1608.84,1184.47 1611.11,1185.48 1613.38,1186.48 1615.65,1187.48 1617.91,1188.47 1620.18,1189.46 1622.45,1190.45 1624.72,1191.44 1626.99,1192.43 1629.25,1193.41 1631.52,1194.38 1633.79,1195.36 1636.06,1196.33 1638.33,1197.3 1640.59,1198.27 1642.86,1199.23 1645.13,1200.19 1647.4,1201.15 1649.67,1202.11 1651.93,1203.06 1654.2,1204.01 1656.47,1204.96 1658.74,1205.9 1661.01,1206.84 1663.27,1207.78 1665.54,1208.72 1667.81,1209.65 1670.08,1210.58 1672.35,1211.51 1674.61,1212.43 1676.88,1213.35 1679.15,1214.27 1681.42,1215.19 1683.69,1216.1 1685.95,1217.01 1688.22,1217.92 1690.49,1218.83 1692.76,1219.73 1695.03,1220.63 1697.29,1221.53 1699.56,1222.42 1701.83,1223.31 1704.1,1224.2 1706.37,1225.09 1708.63,1225.98 1710.9,1226.86 1713.17,1227.74 1715.44,1228.61 1717.71,1229.49 1719.98,1230.36 1722.24,1231.23 1724.51,1232.09 1726.78,1232.96 1729.05,1233.82 1731.32,1234.68 1733.58,1235.53 1735.85,1236.38 1738.12,1237.24 1740.39,1238.08 1742.66,1238.93 1744.92,1239.77 1747.19,1240.61 1749.46,1241.45 1751.73,1242.29 1754,1243.12 1756.26,1243.95 1758.53,1244.78 1760.8,1245.61 1763.07,1246.43 1765.34,1247.25 1767.6,1248.07 1769.87,1248.88 1772.14,1249.7 1774.41,1250.51 1776.68,1251.32 1778.94,1252.12 1781.21,1252.93 1783.48,1253.73 1785.75,1254.53 1788.02,1255.33 1790.28,1256.12 1792.55,1256.91 1794.82,1257.7 1797.09,1258.49 1799.36,1259.28 1801.62,1260.06 1803.89,1260.84 1806.16,1261.62 1808.43,1262.39 1810.7,1263.17 1812.96,1263.94 1815.23,1264.71 1817.5,1265.47 1819.77,1266.24 1822.04,1267 1824.3,1267.76 1826.57,1268.52 1828.84,1269.27 1831.11,1270.02 1833.38,1270.77 1835.64,1271.52 1837.91,1272.27 1840.18,1273.01 1842.45,1273.76 1844.72,1274.5 1846.98,1275.23 1849.25,1275.97 1851.52,1276.7 1853.79,1277.43 1856.06,1278.16 1858.32,1278.89 1860.59,1279.61 1862.86,1280.33 1865.13,1281.05 1867.4,1281.77 1869.67,1282.49 1871.93,1283.2 1874.2,1283.91 1876.47,1284.62 1878.74,1285.33 1881.01,1286.03 1883.27,1286.74 1885.54,1287.44 1887.81,1288.14 1890.08,1288.83 1892.35,1289.53 1894.61,1290.22 1896.88,1290.91 1899.15,1291.6 1901.42,1292.29 1903.69,1292.97 1905.95,1293.65 1908.22,1294.33 1910.49,1295.01 1912.76,1295.69 1915.03,1296.36 1917.29,1297.03 1919.56,1297.7 1921.83,1298.37 1924.1,1299.04 1926.37,1299.7 1928.63,1300.36 1930.9,1301.02 1933.17,1301.68 1935.44,1302.34 1937.71,1302.99 1939.97,1303.65 1942.24,1304.3 1944.51,1304.95 1946.78,1305.59 1949.05,1306.24 1951.31,1306.88 1953.58,1307.52 1955.85,1308.16 1958.12,1308.8 1960.39,1309.43 1962.65,1310.06 1964.92,1310.7 1967.19,1311.33 1969.46,1311.95 1971.73,1312.58 1973.99,1313.2 1976.26,1313.82 1978.53,1314.44 1980.8,1315.06 1983.07,1315.68 1985.33,1316.29 1987.6,1316.91 1989.87,1317.52 1992.14,1318.13 1994.41,1318.73 1996.67,1319.34 1998.94,1319.94 2001.21,1320.54 2003.48,1321.14 2005.75,1321.74 2008.02,1322.34 2010.28,1322.93 2012.55,1323.53 2014.82,1324.12 2017.09,1324.71 2019.36,1325.29 2021.62,1325.88 2023.89,1326.46 2026.16,1327.05 2028.43,1327.63 2030.7,1328.21 2032.96,1328.78 2035.23,1329.36 2037.5,1329.93 2039.77,1330.5 2042.04,1331.08 2044.3,1331.64 2046.57,1332.21 2048.84,1332.78 2051.11,1333.34 2053.38,1333.9 2055.64,1334.46 2057.91,1335.02 2060.18,1335.58 2062.45,1336.13 2064.72,1336.69 2066.98,1337.24 2069.25,1337.79 2071.52,1338.34 2073.79,1338.88 2076.06,1339.43 2078.32,1339.97 2080.59,1340.51 2082.86,1341.05 2085.13,1341.59 2087.4,1342.13 2089.66,1342.67 2091.93,1343.2 2094.2,1343.73 2096.47,1344.26 2098.74,1344.79 2101,1345.32 2103.27,1345.85 2105.54,1346.37 2107.81,1346.89 2110.08,1347.41 2112.34,1347.93 2114.61,1348.45 2116.88,1348.97 2119.15,1349.48 2121.42,1350 2123.68,1350.51 2125.95,1351.02 2128.22,1351.53 2130.49,1352.04 2132.76,1352.54 2135.02,1353.05 2137.29,1353.55 2139.56,1354.05 2141.83,1354.55 2144.1,1355.05 2146.37,1355.55 2148.63,1356.04 2150.9,1356.54 2153.17,1357.03 2155.44,1357.52 2157.71,1358.01 2159.97,1358.5 2162.24,1358.98 2164.51,1359.47 2166.78,1359.95 2169.05,1360.43 2171.31,1360.92 2173.58,1361.4 2175.85,1361.87 2178.12,1362.35 2180.39,1362.82 2182.65,1363.3 2184.92,1363.77 2187.19,1364.24 2189.46,1364.71 2191.73,1365.18 2193.99,1365.65 2196.26,1366.11 2198.53,1366.57 2200.8,1367.04 2203.07,1367.5 2205.33,1367.96 2207.6,1368.42 2209.87,1368.87 2212.14,1369.33 2214.41,1369.78 2216.67,1370.24 2218.94,1370.69 2221.21,1371.14 2223.48,1371.59 2225.75,1372.03 2228.01,1372.48 2230.28,1372.92 2232.55,1373.37 2234.82,1373.81 2237.09,1374.25 2239.35,1374.69 2241.62,1375.13 2243.89,1375.57 2246.16,1376 2248.43,1376.44 2250.69,1376.87 2252.96,1377.3 2255.23,1377.73 2257.5,1378.16 2259.77,1378.59 2262.03,1379.01 2264.3,1379.44 2266.57,1379.86 2268.84,1380.29 2271.11,1380.71 2273.37,1381.13 2275.64,1381.55 2277.91,1381.96 2280.18,1382.38 2282.45,1382.8 2284.71,1383.21 2286.98,1383.62 2289.25,1384.03 2291.52,1384.44 2293.79,1384.85 2296.06,1385.26 2298.32,1385.67 2300.59,1386.07 2302.86,1386.48 2305.13,1386.88 2307.4,1387.28 2309.66,1387.68 2311.93,1388.08 2314.2,1388.48 2316.47,1388.88 2318.74,1389.27 2321,1389.67 2323.27,1390.06 2325.54,1390.45 2327.81,1390.84 2330.08,1391.23 2332.34,1391.62 2334.61,1392.01 2336.88,1392.4 2339.15,1392.78 2341.42,1393.17 2343.68,1393.55 2345.95,1393.93 2348.22,1394.31 2350.49,1394.69 2352.76,1395.07 "/>
<polyline clip-path="url(#clip272)" style="stroke:#3da44d; stroke-linecap:round; stroke-linejoin:round; stroke-width:32; stroke-opacity:0.8; fill:none" points="86.9921,1521.01 89.2602,1520.96 91.5282,1520.92 93.7962,1520.87 96.0643,1520.82 98.3323,1520.77 100.6,1520.72 102.868,1520.67 105.136,1520.61 107.404,1520.56 109.672,1520.5 111.94,1520.44 114.209,1520.38 116.477,1520.32 118.745,1520.26 121.013,1520.19 123.281,1520.12 125.549,1520.06 127.817,1519.99 130.085,1519.91 132.353,1519.84 134.621,1519.76 136.889,1519.68 139.157,1519.6 141.425,1519.52 143.693,1519.44 145.961,1519.35 148.229,1519.26 150.497,1519.17 152.765,1519.07 155.033,1518.98 157.301,1518.88 159.569,1518.77 161.837,1518.67 164.105,1518.56 166.373,1518.45 168.641,1518.34 170.909,1518.22 173.177,1518.1 175.445,1517.98 177.713,1517.85 179.981,1517.72 182.249,1517.59 184.517,1517.46 186.786,1517.32 189.054,1517.17 191.322,1517.03 193.59,1516.87 195.858,1516.72 198.126,1516.56 200.394,1516.4 202.662,1516.23 204.93,1516.06 207.198,1515.88 209.466,1515.7 211.734,1515.51 214.002,1515.32 216.27,1515.13 218.538,1514.93 220.806,1514.72 223.074,1514.51 225.342,1514.29 227.61,1514.07 229.878,1513.84 232.146,1513.61 234.414,1513.37 236.682,1513.13 238.95,1512.87 241.218,1512.62 243.486,1512.35 245.754,1512.08 248.022,1511.8 250.29,1511.52 252.558,1511.22 254.826,1510.92 257.095,1510.62 259.363,1510.3 261.631,1509.98 263.899,1509.65 266.167,1509.31 268.435,1508.96 270.703,1508.6 272.971,1508.24 275.239,1507.86 277.507,1507.48 279.775,1507.09 282.043,1506.68 284.311,1506.27 286.579,1505.85 288.847,1505.42 291.115,1504.98 293.383,1504.52 295.651,1504.06 297.919,1503.58 300.187,1503.1 302.455,1502.6 304.723,1502.09 306.991,1501.57 309.259,1501.04 311.527,1500.49 313.795,1499.93 316.063,1499.36 318.331,1498.78 320.599,1498.18 322.867,1497.57 325.135,1496.94 327.403,1496.3 329.672,1495.65 331.94,1494.98 334.208,1494.3 336.476,1493.6 338.744,1492.89 341.012,1492.16 343.28,1491.42 345.548,1490.65 347.816,1489.88 350.084,1489.08 352.352,1488.27 354.62,1487.45 356.888,1486.6 359.156,1485.74 361.424,1484.86 363.692,1483.96 365.96,1483.05 368.228,1482.11 370.496,1481.16 372.764,1480.19 375.032,1479.2 377.3,1478.19 379.568,1477.16 381.836,1476.11 384.104,1475.04 386.372,1473.94 388.64,1472.83 390.908,1471.7 393.176,1470.55 395.444,1469.38 397.712,1468.18 399.981,1466.96 402.249,1465.73 404.517,1464.47 406.785,1463.19 409.053,1461.88 411.321,1460.56 413.589,1459.21 415.857,1457.84 418.125,1456.44 420.393,1455.03 422.661,1453.59 424.929,1452.13 427.197,1450.64 429.465,1449.13 431.733,1447.6 434.001,1446.05 436.269,1444.47 438.537,1442.87 440.805,1441.25 443.073,1439.6 445.341,1437.93 447.609,1436.23 449.877,1434.51 452.145,1432.77 454.413,1431.01 456.681,1429.22 458.949,1427.41 461.217,1425.57 463.485,1423.71 465.753,1421.83 468.021,1419.93 470.29,1418 472.558,1416.05 474.826,1414.08 477.094,1412.09 479.362,1410.07 481.63,1408.03 483.898,1405.97 486.166,1403.88 488.434,1401.78 490.702,1399.65 492.97,1397.5 495.238,1395.33 497.506,1393.14 499.774,1390.93 502.042,1388.7 504.31,1386.44 506.578,1384.17 508.846,1381.88 511.114,1379.56 513.382,1377.23 515.65,1374.88 517.918,1372.51 520.186,1370.12 522.454,1367.71 524.722,1365.28 526.99,1362.84 529.258,1360.38 531.526,1357.9 533.794,1355.4 536.062,1352.89 538.33,1350.36 540.598,1347.82 542.867,1345.26 545.135,1342.68 547.403,1340.09 549.671,1337.48 551.939,1334.86 554.207,1332.23 556.475,1329.58 558.743,1326.92 561.011,1324.24 563.279,1321.56 565.547,1318.85 567.815,1316.14 570.083,1313.42 572.351,1310.68 574.619,1307.93 576.887,1305.17 579.155,1302.4 581.423,1299.62 583.691,1296.83 585.959,1294.03 588.227,1291.22 590.495,1288.4 592.763,1285.58 595.031,1282.74 597.299,1279.9 599.567,1277.04 601.835,1274.18 604.103,1271.32 606.371,1268.44 608.639,1265.56 610.907,1262.67 613.176,1259.78 615.444,1256.88 617.712,1253.98 619.98,1251.07 622.248,1248.15 624.516,1245.23 626.784,1242.31 629.052,1239.38 631.32,1236.44 633.588,1233.51 635.856,1230.57 638.124,1227.62 640.392,1224.67 642.66,1221.72 644.928,1218.77 647.196,1215.82 649.464,1212.86 651.732,1209.9 654,1206.94 656.268,1203.97 658.536,1201.01 660.804,1198.04 663.072,1195.08 665.34,1192.11 667.608,1189.14 669.876,1186.17 672.144,1183.2 674.412,1180.23 676.68,1177.26 678.948,1174.29 681.216,1171.33 683.484,1168.36 685.753,1165.39 688.021,1162.43 690.289,1159.46 692.557,1156.5 694.825,1153.54 697.093,1150.58 699.361,1147.62 701.629,1144.66 703.897,1141.71 706.165,1138.75 708.433,1135.81 710.701,1132.86 712.969,1129.91 715.237,1126.97 717.505,1124.03 719.773,1121.1 722.041,1118.17 724.309,1115.24 726.577,1112.31 728.845,1109.39 731.113,1106.47 733.381,1103.55 735.649,1100.64 737.917,1097.73 740.185,1094.83 742.453,1091.93 744.721,1089.03 746.989,1086.14 749.257,1083.25 751.525,1080.36 753.793,1077.48 756.062,1074.61 758.33,1071.74 760.598,1068.87 762.866,1066.01 765.134,1063.15 767.402,1060.3 769.67,1057.45 771.938,1054.61 774.206,1051.77 776.474,1048.94 778.742,1046.11 781.01,1043.29 783.278,1040.47 785.546,1037.66 787.814,1034.85 790.082,1032.05 792.35,1029.25 794.618,1026.46 796.886,1023.68 799.154,1020.9 801.422,1018.12 803.69,1015.36 805.958,1012.59 808.226,1009.84 810.494,1007.09 812.762,1004.34 815.03,1001.6 817.298,998.866 819.566,996.138 821.834,993.416 824.102,990.7 826.37,987.99 828.639,985.286 830.907,982.587 833.175,979.895 835.443,977.209 837.711,974.528 839.979,971.854 842.247,969.186 844.515,966.524 846.783,963.868 849.051,961.219 851.319,958.575 853.587,955.938 855.855,953.307 858.123,950.682 860.391,948.063 862.659,945.451 864.927,942.845 867.195,940.245 869.463,937.652 871.731,935.064 873.999,932.484 876.267,929.909 878.535,927.341 880.803,924.779 883.071,922.224 885.339,919.674 887.607,917.132 889.875,914.595 892.143,912.065 894.411,909.542 896.679,907.025 898.948,904.514 901.216,902.01 903.484,899.512 905.752,897.02 908.02,894.535 910.288,892.056 912.556,889.584 914.824,887.118 917.092,884.658 919.36,882.205 921.628,879.759 923.896,877.318 926.164,874.884 928.432,872.457 930.7,870.036 932.968,867.621 935.236,865.212 937.504,862.81 939.772,860.415 942.04,858.025 944.308,855.643 946.576,853.266 948.844,850.896 951.112,848.532 953.38,846.175 955.648,843.824 957.916,841.479 960.184,839.141 962.452,836.808 964.72,834.483 966.988,832.163 969.257,829.85 971.525,827.543 973.793,825.243 976.061,822.949 978.329,820.661 980.597,818.379 982.865,816.104 985.133,813.835 987.401,811.572 989.669,809.315 991.937,807.065 994.205,804.821 996.473,802.583 998.741,800.351 1001.01,798.126 1003.28,795.906 1005.55,793.693 1007.81,791.486 1010.08,789.285 1012.35,787.09 1014.62,784.902 1016.89,782.719 1019.15,780.543 1021.42,778.373 1023.69,776.209 1025.96,774.051 1028.23,771.899 1030.49,769.753 1032.76,767.613 1035.03,765.479 1037.3,763.351 1039.57,761.229 1041.83,759.114 1044.1,757.004 1046.37,754.9 1048.64,752.802 1050.91,750.71 1053.17,748.624 1055.44,746.544 1057.71,744.47 1059.98,742.401 1062.25,740.339 1064.51,738.282 1066.78,736.232 1069.05,734.187 1071.32,732.148 1073.59,730.115 1075.85,728.088 1078.12,726.066 1080.39,724.05 1082.66,722.04 1084.93,720.036 1087.19,718.038 1089.46,716.045 1091.73,714.058 1094,712.077 1096.27,710.101 1098.53,708.131 1100.8,706.167 1103.07,704.209 1105.34,702.256 1107.61,700.309 1109.87,698.367 1112.14,696.431 1114.41,694.501 1116.68,692.576 1118.95,690.656 1121.21,688.743 1123.48,686.834 1125.75,684.932 1128.02,683.035 1130.29,681.143 1132.55,679.257 1134.82,677.376 1137.09,675.501 1139.36,673.631 1141.63,671.767 1143.89,669.908 1146.16,668.054 1148.43,666.206 1150.7,664.363 1152.97,662.526 1155.24,660.694 1157.5,658.867 1159.77,657.045 1162.04,655.229 1164.31,653.418 1166.58,651.613 1168.84,649.813 1171.11,648.018 1173.38,646.228 1175.65,644.443 1177.92,642.664 1180.18,640.89 1182.45,639.121 1184.72,637.357 1186.99,635.598 1189.26,633.845 1191.52,632.097 1193.79,630.353 1196.06,628.615 1198.33,626.882 1200.6,625.154 1202.86,623.431 1205.13,621.713 1207.4,620.001 1209.67,618.293 1211.94,616.59 1214.2,614.892 1216.47,613.199 1218.74,611.512 1221.01,609.829 1223.28,608.151 1225.54,606.478 1227.81,604.81 1230.08,603.147 1232.35,601.488 1234.62,599.835 1236.88,598.186 1239.15,596.543 1241.42,594.904 1243.69,593.27 1245.96,591.64 1248.22,590.016 1250.49,588.396 1252.76,586.781 1255.03,585.171 1257.3,583.566 1259.56,581.965 1261.83,580.369 1264.1,578.778 1266.37,577.192 1268.64,575.61 1270.9,574.033 1273.17,572.46 1275.44,570.892 1277.71,569.329 1279.98,567.77 1282.24,566.216 1284.51,564.667 1286.78,563.122 1289.05,561.582 1291.32,560.046 1293.59,558.515 1295.85,556.988 1298.12,555.466 1300.39,553.948 1302.66,552.435 1304.93,550.926 1307.19,549.422 1309.46,547.922 1311.73,546.427 1314,544.936 1316.27,543.449 1318.53,541.967 1320.8,540.489 1323.07,539.016 1325.34,537.547 1327.61,536.082 1329.87,534.622 1332.14,533.166 1334.41,531.714 1336.68,530.267 1338.95,528.824 1341.21,527.385 1343.48,525.95 1345.75,524.52 1348.02,523.094 1350.29,521.672 1352.55,520.254 1354.82,518.841 1357.09,517.432 1359.36,516.027 1361.63,514.626 1363.89,513.229 1366.16,511.836 1368.43,510.448 1370.7,509.064 1372.97,507.683 1375.23,506.307 1377.5,504.935 1379.77,503.567 1382.04,502.203 1384.31,500.844 1386.57,499.488 1388.84,498.136 1391.11,496.788 1393.38,495.444 1395.65,494.105 1397.91,492.769 1400.18,491.437 1402.45,490.109 1404.72,488.785 1406.99,487.465 1409.25,486.149 1411.52,484.837 1413.79,483.529 1416.06,482.224 1418.33,480.924 1420.59,479.627 1422.86,478.334 1425.13,477.045 1427.4,475.76 1429.67,474.479 1431.93,473.201 1434.2,471.928 1436.47,470.658 1438.74,469.392 1441.01,468.129 1443.28,466.871 1445.54,465.616 1447.81,464.365 1450.08,463.117 1452.35,461.874 1454.62,460.634 1456.88,459.398 1459.15,458.165 1461.42,456.936 1463.69,455.711 1465.96,454.489 1468.22,453.271 1470.49,452.057 1472.76,450.846 1475.03,449.639 1477.3,448.435 1479.56,447.235 1481.83,446.039 1484.1,444.846 1486.37,443.657 1488.64,442.471 1490.9,441.289 1493.17,440.11 1495.44,438.935 1497.71,437.763 1499.98,436.595 1502.24,435.431 1504.51,434.269 1506.78,433.112 1509.05,431.957 1511.32,430.806 1513.58,429.659 1515.85,428.515 1518.12,427.374 1520.39,426.237 1522.66,425.103 1524.92,423.973 1527.19,422.846 1529.46,421.722 1531.73,420.602 1534,419.485 1536.26,418.371 1538.53,417.261 1540.8,416.154 1543.07,415.05 1545.34,413.949 1547.6,412.852 1549.87,411.758 1552.14,410.668 1554.41,409.58 1556.68,408.496 1558.94,407.415 1561.21,406.337 1563.48,405.263 1565.75,404.192 1568.02,403.124 1570.28,402.059 1572.55,400.997 1574.82,399.938 1577.09,398.883 1579.36,397.831 1581.63,396.782 1583.89,395.736 1586.16,394.693 1588.43,393.653 1590.7,392.617 1592.97,391.583 1595.23,390.553 1597.5,389.525 1599.77,388.501 1602.04,387.48 1604.31,386.461 1606.57,385.446 1608.84,384.434 1611.11,383.425 1613.38,382.419 1615.65,381.416 1617.91,380.416 1620.18,379.419 1622.45,378.424 1624.72,377.433 1626.99,376.445 1629.25,375.46 1631.52,374.477 1633.79,373.498 1636.06,372.522 1638.33,371.548 1640.59,370.577 1642.86,369.61 1645.13,368.645 1647.4,367.683 1649.67,366.724 1651.93,365.768 1654.2,364.814 1656.47,363.864 1658.74,362.916 1661.01,361.971 1663.27,361.029 1665.54,360.09 1667.81,359.153 1670.08,358.22 1672.35,357.289 1674.61,356.361 1676.88,355.436 1679.15,354.513 1681.42,353.593 1683.69,352.676 1685.95,351.762 1688.22,350.851 1690.49,349.942 1692.76,349.036 1695.03,348.132 1697.29,347.232 1699.56,346.334 1701.83,345.438 1704.1,344.546 1706.37,343.656 1708.63,342.768 1710.9,341.884 1713.17,341.002 1715.44,340.122 1717.71,339.246 1719.98,338.372 1722.24,337.5 1724.51,336.631 1726.78,335.765 1729.05,334.901 1731.32,334.04 1733.58,333.181 1735.85,332.325 1738.12,331.472 1740.39,330.621 1742.66,329.773 1744.92,328.927 1747.19,328.084 1749.46,327.243 1751.73,326.405 1754,325.569 1756.26,324.736 1758.53,323.905 1760.8,323.077 1763.07,322.251 1765.34,321.427 1767.6,320.607 1769.87,319.788 1772.14,318.972 1774.41,318.159 1776.68,317.347 1778.94,316.539 1781.21,315.733 1783.48,314.929 1785.75,314.127 1788.02,313.328 1790.28,312.532 1792.55,311.737 1794.82,310.945 1797.09,310.156 1799.36,309.369 1801.62,308.584 1803.89,307.801 1806.16,307.021 1808.43,306.243 1810.7,305.468 1812.96,304.695 1815.23,303.924 1817.5,303.155 1819.77,302.389 1822.04,301.625 1824.3,300.864 1826.57,300.104 1828.84,299.347 1831.11,298.592 1833.38,297.84 1835.64,297.089 1837.91,296.341 1840.18,295.595 1842.45,294.852 1844.72,294.11 1846.98,293.371 1849.25,292.634 1851.52,291.9 1853.79,291.167 1856.06,290.437 1858.32,289.708 1860.59,288.982 1862.86,288.259 1865.13,287.537 1867.4,286.817 1869.67,286.1 1871.93,285.385 1874.2,284.672 1876.47,283.961 1878.74,283.252 1881.01,282.545 1883.27,281.841 1885.54,281.138 1887.81,280.438 1890.08,279.74 1892.35,279.044 1894.61,278.349 1896.88,277.657 1899.15,276.968 1901.42,276.28 1903.69,275.594 1905.95,274.91 1908.22,274.228 1910.49,273.549 1912.76,272.871 1915.03,272.195 1917.29,271.522 1919.56,270.85 1921.83,270.181 1924.1,269.513 1926.37,268.848 1928.63,268.184 1930.9,267.522 1933.17,266.863 1935.44,266.205 1937.71,265.549 1939.97,264.896 1942.24,264.244 1944.51,263.594 1946.78,262.946 1949.05,262.3 1951.31,261.656 1953.58,261.014 1955.85,260.374 1958.12,259.736 1960.39,259.1 1962.65,258.465 1964.92,257.833 1967.19,257.202 1969.46,256.573 1971.73,255.947 1973.99,255.322 1976.26,254.698 1978.53,254.077 1980.8,253.458 1983.07,252.84 1985.33,252.225 1987.6,251.611 1989.87,250.999 1992.14,250.389 1994.41,249.78 1996.67,249.174 1998.94,248.569 2001.21,247.966 2003.48,247.365 2005.75,246.766 2008.02,246.168 2010.28,245.573 2012.55,244.979 2014.82,244.387 2017.09,243.796 2019.36,243.208 2021.62,242.621 2023.89,242.036 2026.16,241.452 2028.43,240.871 2030.7,240.291 2032.96,239.713 2035.23,239.136 2037.5,238.562 2039.77,237.989 2042.04,237.417 2044.3,236.848 2046.57,236.28 2048.84,235.714 2051.11,235.15 2053.38,234.587 2055.64,234.026 2057.91,233.466 2060.18,232.909 2062.45,232.353 2064.72,231.798 2066.98,231.246 2069.25,230.695 2071.52,230.145 2073.79,229.597 2076.06,229.051 2078.32,228.507 2080.59,227.964 2082.86,227.423 2085.13,226.883 2087.4,226.345 2089.66,225.809 2091.93,225.274 2094.2,224.741 2096.47,224.209 2098.74,223.679 2101,223.151 2103.27,222.624 2105.54,222.099 2107.81,221.575 2110.08,221.053 2112.34,220.533 2114.61,220.014 2116.88,219.496 2119.15,218.98 2121.42,218.466 2123.68,217.953 2125.95,217.442 2128.22,216.932 2130.49,216.424 2132.76,215.918 2135.02,215.412 2137.29,214.909 2139.56,214.407 2141.83,213.906 2144.1,213.407 2146.37,212.909 2148.63,212.413 2150.9,211.919 2153.17,211.425 2155.44,210.934 2157.71,210.443 2159.97,209.955 2162.24,209.467 2164.51,208.982 2166.78,208.497 2169.05,208.014 2171.31,207.533 2173.58,207.053 2175.85,206.574 2178.12,206.097 2180.39,205.621 2182.65,205.147 2184.92,204.674 2187.19,204.203 2189.46,203.733 2191.73,203.264 2193.99,202.797 2196.26,202.331 2198.53,201.866 2200.8,201.403 2203.07,200.942 2205.33,200.481 2207.6,200.022 2209.87,199.565 2212.14,199.109 2214.41,198.654 2216.67,198.201 2218.94,197.748 2221.21,197.298 2223.48,196.848 2225.75,196.4 2228.01,195.954 2230.28,195.508 2232.55,195.064 2234.82,194.622 2237.09,194.18 2239.35,193.74 2241.62,193.301 2243.89,192.864 2246.16,192.428 2248.43,191.993 2250.69,191.56 2252.96,191.127 2255.23,190.696 2257.5,190.267 2259.77,189.839 2262.03,189.411 2264.3,188.986 2266.57,188.561 2268.84,188.138 2271.11,187.716 2273.37,187.295 2275.64,186.876 2277.91,186.458 2280.18,186.041 2282.45,185.625 2284.71,185.211 2286.98,184.798 2289.25,184.386 2291.52,183.975 2293.79,183.565 2296.06,183.157 2298.32,182.75 2300.59,182.344 2302.86,181.94 2305.13,181.536 2307.4,181.134 2309.66,180.733 2311.93,180.333 2314.2,179.935 2316.47,179.537 2318.74,179.141 2321,178.746 2323.27,178.352 2325.54,177.96 2327.81,177.568 2330.08,177.178 2332.34,176.789 2334.61,176.401 2336.88,176.014 2339.15,175.628 2341.42,175.244 2343.68,174.861 2345.95,174.478 2348.22,174.097 2350.49,173.717 2352.76,173.339 "/>
<circle clip-path="url(#clip272)" cx="102.097" cy="64.9293" r="43.2" fill="#009af9" fill-rule="evenodd" fill-opacity="0.8" stroke="#000000" stroke-opacity="0.8" stroke-width="3.2"/>
<circle clip-path="url(#clip272)" cx="102.097" cy="1503.32" r="43.2" fill="#e26f46" fill-rule="evenodd" fill-opacity="0.9" stroke="#000000" stroke-opacity="0.9" stroke-width="3.2"/>
<circle clip-path="url(#clip272)" cx="102.097" cy="1518.06" r="43.2" fill="#3da44d" fill-rule="evenodd" fill-opacity="0.6" stroke="#000000" stroke-opacity="0.6" stroke-width="3.2"/>
</svg>
