<?xml version="1.0" encoding="utf-8"?>
<svg xmlns="http://www.w3.org/2000/svg" xmlns:xlink="http://www.w3.org/1999/xlink" width="1400" height="400" viewBox="0 0 5600 1600">
<defs>
  <clipPath id="clip190">
    <rect x="0" y="0" width="5600" height="1600"/>
  </clipPath>
</defs>
<path clip-path="url(#clip190)" d="M0 1600 L5600 1600 L5600 0 L0 0  Z" fill="#ffffff" fill-rule="evenodd" fill-opacity="1"/>
<defs>
  <clipPath id="clip191">
    <rect x="1120" y="0" width="3921" height="1600"/>
  </clipPath>
</defs>
<defs>
  <clipPath id="clip192">
    <rect x="118" y="47" width="1701" height="1475"/>
  </clipPath>
</defs>
<polyline clip-path="url(#clip192)" style="stroke:#000000; stroke-linecap:round; stroke-linejoin:round; stroke-width:2; stroke-opacity:0.1; fill:none" points="118.992,1521.01 118.992,47.2441 "/>
<polyline clip-path="url(#clip192)" style="stroke:#000000; stroke-linecap:round; stroke-linejoin:round; stroke-width:2; stroke-opacity:0.1; fill:none" points="685.802,1521.01 685.802,47.2441 "/>
<polyline clip-path="url(#clip192)" style="stroke:#000000; stroke-linecap:round; stroke-linejoin:round; stroke-width:2; stroke-opacity:0.1; fill:none" points="1252.61,1521.01 1252.61,47.2441 "/>
<polyline clip-path="url(#clip192)" style="stroke:#000000; stroke-linecap:round; stroke-linejoin:round; stroke-width:2; stroke-opacity:0.1; fill:none" points="1819.42,1521.01 1819.42,47.2441 "/>
<polyline clip-path="url(#clip192)" style="stroke:#000000; stroke-linecap:round; stroke-linejoin:round; stroke-width:2; stroke-opacity:0.1; fill:none" points="118.992,1521.01 118.992,47.2441 "/>
<polyline clip-path="url(#clip192)" style="stroke:#000000; stroke-linecap:round; stroke-linejoin:round; stroke-width:2; stroke-opacity:0.1; fill:none" points="685.802,1521.01 685.802,47.2441 "/>
<polyline clip-path="url(#clip192)" style="stroke:#000000; stroke-linecap:round; stroke-linejoin:round; stroke-width:2; stroke-opacity:0.1; fill:none" points="1252.61,1521.01 1252.61,47.2441 "/>
<polyline clip-path="url(#clip192)" style="stroke:#000000; stroke-linecap:round; stroke-linejoin:round; stroke-width:2; stroke-opacity:0.1; fill:none" points="1819.42,1521.01 1819.42,47.2441 "/>
<polyline clip-path="url(#clip192)" style="stroke:#000000; stroke-linecap:round; stroke-linejoin:round; stroke-width:2; stroke-opacity:0.1; fill:none" points="118.992,1521.01 1819.42,1521.01 "/>
<polyline clip-path="url(#clip192)" style="stroke:#000000; stroke-linecap:round; stroke-linejoin:round; stroke-width:2; stroke-opacity:0.1; fill:none" points="118.992,1226.26 1819.42,1226.26 "/>
<polyline clip-path="url(#clip192)" style="stroke:#000000; stroke-linecap:round; stroke-linejoin:round; stroke-width:2; stroke-opacity:0.1; fill:none" points="118.992,931.502 1819.42,931.502 "/>
<polyline clip-path="url(#clip192)" style="stroke:#000000; stroke-linecap:round; stroke-linejoin:round; stroke-width:2; stroke-opacity:0.1; fill:none" points="118.992,636.75 1819.42,636.75 "/>
<polyline clip-path="url(#clip192)" style="stroke:#000000; stroke-linecap:round; stroke-linejoin:round; stroke-width:2; stroke-opacity:0.1; fill:none" points="118.992,341.997 1819.42,341.997 "/>
<polyline clip-path="url(#clip192)" style="stroke:#000000; stroke-linecap:round; stroke-linejoin:round; stroke-width:2; stroke-opacity:0.1; fill:none" points="118.992,47.2441 1819.42,47.2441 "/>
<polyline clip-path="url(#clip192)" style="stroke:#000000; stroke-linecap:round; stroke-linejoin:round; stroke-width:2; stroke-opacity:0.1; fill:none" points="118.992,1521.01 1819.42,1521.01 "/>
<polyline clip-path="url(#clip192)" style="stroke:#000000; stroke-linecap:round; stroke-linejoin:round; stroke-width:2; stroke-opacity:0.1; fill:none" points="118.992,1226.26 1819.42,1226.26 "/>
<polyline clip-path="url(#clip192)" style="stroke:#000000; stroke-linecap:round; stroke-linejoin:round; stroke-width:2; stroke-opacity:0.1; fill:none" points="118.992,931.502 1819.42,931.502 "/>
<polyline clip-path="url(#clip192)" style="stroke:#000000; stroke-linecap:round; stroke-linejoin:round; stroke-width:2; stroke-opacity:0.1; fill:none" points="118.992,636.75 1819.42,636.75 "/>
<polyline clip-path="url(#clip192)" style="stroke:#000000; stroke-linecap:round; stroke-linejoin:round; stroke-width:2; stroke-opacity:0.1; fill:none" points="118.992,341.997 1819.42,341.997 "/>
<polyline clip-path="url(#clip192)" style="stroke:#000000; stroke-linecap:round; stroke-linejoin:round; stroke-width:2; stroke-opacity:0.1; fill:none" points="118.992,47.2441 1819.42,47.2441 "/>
<polyline clip-path="url(#clip190)" style="stroke:#000000; stroke-linecap:round; stroke-linejoin:round; stroke-width:4; stroke-opacity:1; fill:none" points="118.992,1521.01 1819.42,1521.01 "/>
<polyline clip-path="url(#clip190)" style="stroke:#000000; stroke-linecap:round; stroke-linejoin:round; stroke-width:4; stroke-opacity:1; fill:none" points="118.992,47.2441 1819.42,47.2441 "/>
<polyline clip-path="url(#clip190)" style="stroke:#000000; stroke-linecap:round; stroke-linejoin:round; stroke-width:4; stroke-opacity:1; fill:none" points="118.992,1521.01 118.992,1502.11 "/>
<polyline clip-path="url(#clip190)" style="stroke:#000000; stroke-linecap:round; stroke-linejoin:round; stroke-width:4; stroke-opacity:1; fill:none" points="685.802,1521.01 685.802,1502.11 "/>
<polyline clip-path="url(#clip190)" style="stroke:#000000; stroke-linecap:round; stroke-linejoin:round; stroke-width:4; stroke-opacity:1; fill:none" points="1252.61,1521.01 1252.61,1502.11 "/>
<polyline clip-path="url(#clip190)" style="stroke:#000000; stroke-linecap:round; stroke-linejoin:round; stroke-width:4; stroke-opacity:1; fill:none" points="1819.42,1521.01 1819.42,1502.11 "/>
<polyline clip-path="url(#clip190)" style="stroke:#000000; stroke-linecap:round; stroke-linejoin:round; stroke-width:4; stroke-opacity:1; fill:none" points="118.992,47.2441 118.992,66.1417 "/>
<polyline clip-path="url(#clip190)" style="stroke:#000000; stroke-linecap:round; stroke-linejoin:round; stroke-width:4; stroke-opacity:1; fill:none" points="685.802,47.2441 685.802,66.1417 "/>
<polyline clip-path="url(#clip190)" style="stroke:#000000; stroke-linecap:round; stroke-linejoin:round; stroke-width:4; stroke-opacity:1; fill:none" points="1252.61,47.2441 1252.61,66.1417 "/>
<polyline clip-path="url(#clip190)" style="stroke:#000000; stroke-linecap:round; stroke-linejoin:round; stroke-width:4; stroke-opacity:1; fill:none" points="1819.42,47.2441 1819.42,66.1417 "/>
<polyline clip-path="url(#clip190)" style="stroke:#000000; stroke-linecap:round; stroke-linejoin:round; stroke-width:4; stroke-opacity:1; fill:none" points="118.992,1521.01 118.992,47.2441 "/>
<polyline clip-path="url(#clip190)" style="stroke:#000000; stroke-linecap:round; stroke-linejoin:round; stroke-width:4; stroke-opacity:1; fill:none" points="1819.42,1521.01 1819.42,47.2441 "/>
<polyline clip-path="url(#clip190)" style="stroke:#000000; stroke-linecap:round; stroke-linejoin:round; stroke-width:4; stroke-opacity:1; fill:none" points="118.992,1521.01 137.89,1521.01 "/>
<polyline clip-path="url(#clip190)" style="stroke:#000000; stroke-linecap:round; stroke-linejoin:round; stroke-width:4; stroke-opacity:1; fill:none" points="118.992,1226.26 137.89,1226.26 "/>
<polyline clip-path="url(#clip190)" style="stroke:#000000; stroke-linecap:round; stroke-linejoin:round; stroke-width:4; stroke-opacity:1; fill:none" points="118.992,931.502 137.89,931.502 "/>
<polyline clip-path="url(#clip190)" style="stroke:#000000; stroke-linecap:round; stroke-linejoin:round; stroke-width:4; stroke-opacity:1; fill:none" points="118.992,636.75 137.89,636.75 "/>
<polyline clip-path="url(#clip190)" style="stroke:#000000; stroke-linecap:round; stroke-linejoin:round; stroke-width:4; stroke-opacity:1; fill:none" points="118.992,341.997 137.89,341.997 "/>
<polyline clip-path="url(#clip190)" style="stroke:#000000; stroke-linecap:round; stroke-linejoin:round; stroke-width:4; stroke-opacity:1; fill:none" points="118.992,47.2441 137.89,47.2441 "/>
<polyline clip-path="url(#clip190)" style="stroke:#000000; stroke-linecap:round; stroke-linejoin:round; stroke-width:4; stroke-opacity:1; fill:none" points="1819.42,1521.01 1800.52,1521.01 "/>
<polyline clip-path="url(#clip190)" style="stroke:#000000; stroke-linecap:round; stroke-linejoin:round; stroke-width:4; stroke-opacity:1; fill:none" points="1819.42,1226.26 1800.52,1226.26 "/>
<polyline clip-path="url(#clip190)" style="stroke:#000000; stroke-linecap:round; stroke-linejoin:round; stroke-width:4; stroke-opacity:1; fill:none" points="1819.42,931.502 1800.52,931.502 "/>
<polyline clip-path="url(#clip190)" style="stroke:#000000; stroke-linecap:round; stroke-linejoin:round; stroke-width:4; stroke-opacity:1; fill:none" points="1819.42,636.75 1800.52,636.75 "/>
<polyline clip-path="url(#clip190)" style="stroke:#000000; stroke-linecap:round; stroke-linejoin:round; stroke-width:4; stroke-opacity:1; fill:none" points="1819.42,341.997 1800.52,341.997 "/>
<polyline clip-path="url(#clip190)" style="stroke:#000000; stroke-linecap:round; stroke-linejoin:round; stroke-width:4; stroke-opacity:1; fill:none" points="1819.42,47.2441 1800.52,47.2441 "/>
<circle clip-path="url(#clip192)" cx="175.673" cy="1463.97" r="28.8" fill="#e26f46" fill-rule="evenodd" fill-opacity="1" stroke="#000000" stroke-opacity="1" stroke-width="3.2"/>
<circle clip-path="url(#clip192)" cx="232.354" cy="1461.95" r="28.8" fill="#e26f46" fill-rule="evenodd" fill-opacity="1" stroke="#000000" stroke-opacity="1" stroke-width="3.2"/>
<circle clip-path="url(#clip192)" cx="289.035" cy="1402.64" r="28.8" fill="#e26f46" fill-rule="evenodd" fill-opacity="1" stroke="#000000" stroke-opacity="1" stroke-width="3.2"/>
<circle clip-path="url(#clip192)" cx="345.716" cy="1243.47" r="28.8" fill="#e26f46" fill-rule="evenodd" fill-opacity="1" stroke="#000000" stroke-opacity="1" stroke-width="3.2"/>
<circle clip-path="url(#clip192)" cx="402.397" cy="941.748" r="28.8" fill="#e26f46" fill-rule="evenodd" fill-opacity="1" stroke="#000000" stroke-opacity="1" stroke-width="3.2"/>
<circle clip-path="url(#clip192)" cx="459.078" cy="791.208" r="28.8" fill="#e26f46" fill-rule="evenodd" fill-opacity="1" stroke="#000000" stroke-opacity="1" stroke-width="3.2"/>
<path clip-path="url(#clip192)" d="M515.759 291.377 L483.759 323.377 L515.759 355.377 L547.759 323.377 L515.759 291.377 Z" fill="#e26f46" fill-rule="evenodd" fill-opacity="0.7" stroke="#000000" stroke-opacity="0.7" stroke-width="3.2"/>
<path clip-path="url(#clip192)" d="M572.44 173.659 L540.44 205.659 L572.44 237.659 L604.44 205.659 L572.44 173.659 Z" fill="#e26f46" fill-rule="evenodd" fill-opacity="0.7" stroke="#000000" stroke-opacity="0.7" stroke-width="3.2"/>
<path clip-path="url(#clip192)" d="M629.121 697.877 L597.121 729.877 L629.121 761.877 L661.121 729.877 L629.121 697.877 Z" fill="#e26f46" fill-rule="evenodd" fill-opacity="0.7" stroke="#000000" stroke-opacity="0.7" stroke-width="3.2"/>
<path clip-path="url(#clip192)" d="M685.802 473.837 L653.802 505.837 L685.802 537.837 L717.802 505.837 L685.802 473.837 Z" fill="#e26f46" fill-rule="evenodd" fill-opacity="0.7" stroke="#000000" stroke-opacity="0.7" stroke-width="3.2"/>
<path clip-path="url(#clip192)" d="M742.483 417.767 L710.483 449.767 L742.483 481.767 L774.483 449.767 L742.483 417.767 Z" fill="#e26f46" fill-rule="evenodd" fill-opacity="0.7" stroke="#000000" stroke-opacity="0.7" stroke-width="3.2"/>
<path clip-path="url(#clip192)" d="M799.164 837.306 L767.164 869.306 L799.164 901.306 L831.164 869.306 L799.164 837.306 Z" fill="#e26f46" fill-rule="evenodd" fill-opacity="0.7" stroke="#000000" stroke-opacity="0.7" stroke-width="3.2"/>
<path clip-path="url(#clip192)" d="M855.845 841.819 L823.845 873.819 L855.845 905.819 L887.845 873.819 L855.845 841.819 Z" fill="#e26f46" fill-rule="evenodd" fill-opacity="0.7" stroke="#000000" stroke-opacity="0.7" stroke-width="3.2"/>
<path clip-path="url(#clip192)" d="M912.526 982.518 L880.526 1014.52 L912.526 1046.52 L944.526 1014.52 L912.526 982.518 Z" fill="#e26f46" fill-rule="evenodd" fill-opacity="0.7" stroke="#000000" stroke-opacity="0.7" stroke-width="3.2"/>
<path clip-path="url(#clip192)" d="M969.207 787.048 L937.207 819.048 L969.207 851.048 L1001.21 819.048 L969.207 787.048 Z" fill="#e26f46" fill-rule="evenodd" fill-opacity="0.7" stroke="#000000" stroke-opacity="0.7" stroke-width="3.2"/>
<path clip-path="url(#clip192)" d="M1025.89 879.137 L993.888 911.137 L1025.89 943.137 L1057.89 911.137 L1025.89 879.137 Z" fill="#e26f46" fill-rule="evenodd" fill-opacity="0.7" stroke="#000000" stroke-opacity="0.7" stroke-width="3.2"/>
<path clip-path="url(#clip192)" d="M1082.57 1126.03 L1050.57 1158.03 L1082.57 1190.03 L1114.57 1158.03 L1082.57 1126.03 Z" fill="#e26f46" fill-rule="evenodd" fill-opacity="0.7" stroke="#000000" stroke-opacity="0.7" stroke-width="3.2"/>
<path clip-path="url(#clip192)" d="M1139.25 1181.8 L1107.25 1213.8 L1139.25 1245.8 L1171.25 1213.8 L1139.25 1181.8 Z" fill="#e26f46" fill-rule="evenodd" fill-opacity="0.7" stroke="#000000" stroke-opacity="0.7" stroke-width="3.2"/>
<path clip-path="url(#clip192)" d="M1195.93 1104.44 L1163.93 1136.44 L1195.93 1168.44 L1227.93 1136.44 L1195.93 1104.44 Z" fill="#e26f46" fill-rule="evenodd" fill-opacity="0.7" stroke="#000000" stroke-opacity="0.7" stroke-width="3.2"/>
<path clip-path="url(#clip192)" d="M1252.61 1238.43 L1220.61 1270.43 L1252.61 1302.43 L1284.61 1270.43 L1252.61 1238.43 Z" fill="#e26f46" fill-rule="evenodd" fill-opacity="0.7" stroke="#000000" stroke-opacity="0.7" stroke-width="3.2"/>
<path clip-path="url(#clip192)" d="M1309.29 1214.51 L1277.29 1246.51 L1309.29 1278.51 L1341.29 1246.51 L1309.29 1214.51 Z" fill="#e26f46" fill-rule="evenodd" fill-opacity="0.7" stroke="#000000" stroke-opacity="0.7" stroke-width="3.2"/>
<path clip-path="url(#clip192)" d="M1365.97 1210.93 L1333.97 1242.93 L1365.97 1274.93 L1397.97 1242.93 L1365.97 1210.93 Z" fill="#e26f46" fill-rule="evenodd" fill-opacity="0.7" stroke="#000000" stroke-opacity="0.7" stroke-width="3.2"/>
<path clip-path="url(#clip192)" d="M1422.66 1211.15 L1390.66 1243.15 L1422.66 1275.15 L1454.66 1243.15 L1422.66 1211.15 Z" fill="#e26f46" fill-rule="evenodd" fill-opacity="0.7" stroke="#000000" stroke-opacity="0.7" stroke-width="3.2"/>
<path clip-path="url(#clip192)" d="M1479.34 1257.46 L1447.34 1289.46 L1479.34 1321.46 L1511.34 1289.46 L1479.34 1257.46 Z" fill="#e26f46" fill-rule="evenodd" fill-opacity="0.7" stroke="#000000" stroke-opacity="0.7" stroke-width="3.2"/>
<path clip-path="url(#clip192)" d="M1536.02 1359.52 L1504.02 1391.52 L1536.02 1423.52 L1568.02 1391.52 L1536.02 1359.52 Z" fill="#e26f46" fill-rule="evenodd" fill-opacity="0.7" stroke="#000000" stroke-opacity="0.7" stroke-width="3.2"/>
<path clip-path="url(#clip192)" d="M1592.7 1220.32 L1560.7 1252.32 L1592.7 1284.32 L1624.7 1252.32 L1592.7 1220.32 Z" fill="#e26f46" fill-rule="evenodd" fill-opacity="0.7" stroke="#000000" stroke-opacity="0.7" stroke-width="3.2"/>
<path clip-path="url(#clip192)" d="M1649.38 1248.21 L1617.38 1280.21 L1649.38 1312.21 L1681.38 1280.21 L1649.38 1248.21 Z" fill="#e26f46" fill-rule="evenodd" fill-opacity="0.7" stroke="#000000" stroke-opacity="0.7" stroke-width="3.2"/>
<path clip-path="url(#clip192)" d="M1706.06 1385.18 L1674.06 1417.18 L1706.06 1449.18 L1738.06 1417.18 L1706.06 1385.18 Z" fill="#e26f46" fill-rule="evenodd" fill-opacity="0.7" stroke="#000000" stroke-opacity="0.7" stroke-width="3.2"/>
<path clip-path="url(#clip192)" d="M1762.74 1292.35 L1730.74 1324.35 L1762.74 1356.35 L1794.74 1324.35 L1762.74 1292.35 Z" fill="#e26f46" fill-rule="evenodd" fill-opacity="0.7" stroke="#000000" stroke-opacity="0.7" stroke-width="3.2"/>
<path clip-path="url(#clip192)" d="M1819.42 1411.6 L1787.42 1443.6 L1819.42 1475.6 L1851.42 1443.6 L1819.42 1411.6 Z" fill="#e26f46" fill-rule="evenodd" fill-opacity="0.7" stroke="#000000" stroke-opacity="0.7" stroke-width="3.2"/>
<defs>
  <clipPath id="clip193">
    <rect x="1985" y="47" width="1701" height="1475"/>
  </clipPath>
</defs>
<polyline clip-path="url(#clip193)" style="stroke:#000000; stroke-linecap:round; stroke-linejoin:round; stroke-width:2; stroke-opacity:0.1; fill:none" points="1985.66,1521.01 1985.66,47.2441 "/>
<polyline clip-path="url(#clip193)" style="stroke:#000000; stroke-linecap:round; stroke-linejoin:round; stroke-width:2; stroke-opacity:0.1; fill:none" points="2552.47,1521.01 2552.47,47.2441 "/>
<polyline clip-path="url(#clip193)" style="stroke:#000000; stroke-linecap:round; stroke-linejoin:round; stroke-width:2; stroke-opacity:0.1; fill:none" points="3119.28,1521.01 3119.28,47.2441 "/>
<polyline clip-path="url(#clip193)" style="stroke:#000000; stroke-linecap:round; stroke-linejoin:round; stroke-width:2; stroke-opacity:0.1; fill:none" points="3686.09,1521.01 3686.09,47.2441 "/>
<polyline clip-path="url(#clip193)" style="stroke:#000000; stroke-linecap:round; stroke-linejoin:round; stroke-width:2; stroke-opacity:0.1; fill:none" points="1985.66,1521.01 1985.66,47.2441 "/>
<polyline clip-path="url(#clip193)" style="stroke:#000000; stroke-linecap:round; stroke-linejoin:round; stroke-width:2; stroke-opacity:0.1; fill:none" points="2552.47,1521.01 2552.47,47.2441 "/>
<polyline clip-path="url(#clip193)" style="stroke:#000000; stroke-linecap:round; stroke-linejoin:round; stroke-width:2; stroke-opacity:0.1; fill:none" points="3119.28,1521.01 3119.28,47.2441 "/>
<polyline clip-path="url(#clip193)" style="stroke:#000000; stroke-linecap:round; stroke-linejoin:round; stroke-width:2; stroke-opacity:0.1; fill:none" points="3686.09,1521.01 3686.09,47.2441 "/>
<polyline clip-path="url(#clip193)" style="stroke:#000000; stroke-linecap:round; stroke-linejoin:round; stroke-width:2; stroke-opacity:0.1; fill:none" points="1985.66,1521.01 3686.09,1521.01 "/>
<polyline clip-path="url(#clip193)" style="stroke:#000000; stroke-linecap:round; stroke-linejoin:round; stroke-width:2; stroke-opacity:0.1; fill:none" points="1985.66,1226.26 3686.09,1226.26 "/>
<polyline clip-path="url(#clip193)" style="stroke:#000000; stroke-linecap:round; stroke-linejoin:round; stroke-width:2; stroke-opacity:0.1; fill:none" points="1985.66,931.502 3686.09,931.502 "/>
<polyline clip-path="url(#clip193)" style="stroke:#000000; stroke-linecap:round; stroke-linejoin:round; stroke-width:2; stroke-opacity:0.1; fill:none" points="1985.66,636.75 3686.09,636.75 "/>
<polyline clip-path="url(#clip193)" style="stroke:#000000; stroke-linecap:round; stroke-linejoin:round; stroke-width:2; stroke-opacity:0.1; fill:none" points="1985.66,341.997 3686.09,341.997 "/>
<polyline clip-path="url(#clip193)" style="stroke:#000000; stroke-linecap:round; stroke-linejoin:round; stroke-width:2; stroke-opacity:0.1; fill:none" points="1985.66,47.2441 3686.09,47.2441 "/>
<polyline clip-path="url(#clip193)" style="stroke:#000000; stroke-linecap:round; stroke-linejoin:round; stroke-width:2; stroke-opacity:0.1; fill:none" points="1985.66,1521.01 3686.09,1521.01 "/>
<polyline clip-path="url(#clip193)" style="stroke:#000000; stroke-linecap:round; stroke-linejoin:round; stroke-width:2; stroke-opacity:0.1; fill:none" points="1985.66,1226.26 3686.09,1226.26 "/>
<polyline clip-path="url(#clip193)" style="stroke:#000000; stroke-linecap:round; stroke-linejoin:round; stroke-width:2; stroke-opacity:0.1; fill:none" points="1985.66,931.502 3686.09,931.502 "/>
<polyline clip-path="url(#clip193)" style="stroke:#000000; stroke-linecap:round; stroke-linejoin:round; stroke-width:2; stroke-opacity:0.1; fill:none" points="1985.66,636.75 3686.09,636.75 "/>
<polyline clip-path="url(#clip193)" style="stroke:#000000; stroke-linecap:round; stroke-linejoin:round; stroke-width:2; stroke-opacity:0.1; fill:none" points="1985.66,341.997 3686.09,341.997 "/>
<polyline clip-path="url(#clip193)" style="stroke:#000000; stroke-linecap:round; stroke-linejoin:round; stroke-width:2; stroke-opacity:0.1; fill:none" points="1985.66,47.2441 3686.09,47.2441 "/>
<polyline clip-path="url(#clip190)" style="stroke:#000000; stroke-linecap:round; stroke-linejoin:round; stroke-width:4; stroke-opacity:1; fill:none" points="1985.66,1521.01 3686.09,1521.01 "/>
<polyline clip-path="url(#clip190)" style="stroke:#000000; stroke-linecap:round; stroke-linejoin:round; stroke-width:4; stroke-opacity:1; fill:none" points="1985.66,47.2441 3686.09,47.2441 "/>
<polyline clip-path="url(#clip190)" style="stroke:#000000; stroke-linecap:round; stroke-linejoin:round; stroke-width:4; stroke-opacity:1; fill:none" points="1985.66,1521.01 1985.66,1502.11 "/>
<polyline clip-path="url(#clip190)" style="stroke:#000000; stroke-linecap:round; stroke-linejoin:round; stroke-width:4; stroke-opacity:1; fill:none" points="2552.47,1521.01 2552.47,1502.11 "/>
<polyline clip-path="url(#clip190)" style="stroke:#000000; stroke-linecap:round; stroke-linejoin:round; stroke-width:4; stroke-opacity:1; fill:none" points="3119.28,1521.01 3119.28,1502.11 "/>
<polyline clip-path="url(#clip190)" style="stroke:#000000; stroke-linecap:round; stroke-linejoin:round; stroke-width:4; stroke-opacity:1; fill:none" points="3686.09,1521.01 3686.09,1502.11 "/>
<polyline clip-path="url(#clip190)" style="stroke:#000000; stroke-linecap:round; stroke-linejoin:round; stroke-width:4; stroke-opacity:1; fill:none" points="1985.66,47.2441 1985.66,66.1417 "/>
<polyline clip-path="url(#clip190)" style="stroke:#000000; stroke-linecap:round; stroke-linejoin:round; stroke-width:4; stroke-opacity:1; fill:none" points="2552.47,47.2441 2552.47,66.1417 "/>
<polyline clip-path="url(#clip190)" style="stroke:#000000; stroke-linecap:round; stroke-linejoin:round; stroke-width:4; stroke-opacity:1; fill:none" points="3119.28,47.2441 3119.28,66.1417 "/>
<polyline clip-path="url(#clip190)" style="stroke:#000000; stroke-linecap:round; stroke-linejoin:round; stroke-width:4; stroke-opacity:1; fill:none" points="3686.09,47.2441 3686.09,66.1417 "/>
<polyline clip-path="url(#clip190)" style="stroke:#000000; stroke-linecap:round; stroke-linejoin:round; stroke-width:4; stroke-opacity:1; fill:none" points="1985.66,1521.01 1985.66,47.2441 "/>
<polyline clip-path="url(#clip190)" style="stroke:#000000; stroke-linecap:round; stroke-linejoin:round; stroke-width:4; stroke-opacity:1; fill:none" points="3686.09,1521.01 3686.09,47.2441 "/>
<polyline clip-path="url(#clip190)" style="stroke:#000000; stroke-linecap:round; stroke-linejoin:round; stroke-width:4; stroke-opacity:1; fill:none" points="1985.66,1521.01 2004.56,1521.01 "/>
<polyline clip-path="url(#clip190)" style="stroke:#000000; stroke-linecap:round; stroke-linejoin:round; stroke-width:4; stroke-opacity:1; fill:none" points="1985.66,1226.26 2004.56,1226.26 "/>
<polyline clip-path="url(#clip190)" style="stroke:#000000; stroke-linecap:round; stroke-linejoin:round; stroke-width:4; stroke-opacity:1; fill:none" points="1985.66,931.502 2004.56,931.502 "/>
<polyline clip-path="url(#clip190)" style="stroke:#000000; stroke-linecap:round; stroke-linejoin:round; stroke-width:4; stroke-opacity:1; fill:none" points="1985.66,636.75 2004.56,636.75 "/>
<polyline clip-path="url(#clip190)" style="stroke:#000000; stroke-linecap:round; stroke-linejoin:round; stroke-width:4; stroke-opacity:1; fill:none" points="1985.66,341.997 2004.56,341.997 "/>
<polyline clip-path="url(#clip190)" style="stroke:#000000; stroke-linecap:round; stroke-linejoin:round; stroke-width:4; stroke-opacity:1; fill:none" points="1985.66,47.2441 2004.56,47.2441 "/>
<polyline clip-path="url(#clip190)" style="stroke:#000000; stroke-linecap:round; stroke-linejoin:round; stroke-width:4; stroke-opacity:1; fill:none" points="3686.09,1521.01 3667.19,1521.01 "/>
<polyline clip-path="url(#clip190)" style="stroke:#000000; stroke-linecap:round; stroke-linejoin:round; stroke-width:4; stroke-opacity:1; fill:none" points="3686.09,1226.26 3667.19,1226.26 "/>
<polyline clip-path="url(#clip190)" style="stroke:#000000; stroke-linecap:round; stroke-linejoin:round; stroke-width:4; stroke-opacity:1; fill:none" points="3686.09,931.502 3667.19,931.502 "/>
<polyline clip-path="url(#clip190)" style="stroke:#000000; stroke-linecap:round; stroke-linejoin:round; stroke-width:4; stroke-opacity:1; fill:none" points="3686.09,636.75 3667.19,636.75 "/>
<polyline clip-path="url(#clip190)" style="stroke:#000000; stroke-linecap:round; stroke-linejoin:round; stroke-width:4; stroke-opacity:1; fill:none" points="3686.09,341.997 3667.19,341.997 "/>
<polyline clip-path="url(#clip190)" style="stroke:#000000; stroke-linecap:round; stroke-linejoin:round; stroke-width:4; stroke-opacity:1; fill:none" points="3686.09,47.2441 3667.19,47.2441 "/>
<circle clip-path="url(#clip193)" cx="2042.34" cy="1463.97" r="28.8" fill="#e26f46" fill-rule="evenodd" fill-opacity="1" stroke="#000000" stroke-opacity="1" stroke-width="3.2"/>
<circle clip-path="url(#clip193)" cx="2099.02" cy="1461.95" r="28.8" fill="#e26f46" fill-rule="evenodd" fill-opacity="1" stroke="#000000" stroke-opacity="1" stroke-width="3.2"/>
<circle clip-path="url(#clip193)" cx="2155.7" cy="1402.64" r="28.8" fill="#e26f46" fill-rule="evenodd" fill-opacity="1" stroke="#000000" stroke-opacity="1" stroke-width="3.2"/>
<circle clip-path="url(#clip193)" cx="2212.38" cy="1243.47" r="28.8" fill="#e26f46" fill-rule="evenodd" fill-opacity="1" stroke="#000000" stroke-opacity="1" stroke-width="3.2"/>
<circle clip-path="url(#clip193)" cx="2269.06" cy="941.748" r="28.8" fill="#e26f46" fill-rule="evenodd" fill-opacity="1" stroke="#000000" stroke-opacity="1" stroke-width="3.2"/>
<circle clip-path="url(#clip193)" cx="2325.74" cy="791.208" r="28.8" fill="#e26f46" fill-rule="evenodd" fill-opacity="1" stroke="#000000" stroke-opacity="1" stroke-width="3.2"/>
<path clip-path="url(#clip193)" d="M2350.43 539.492 L2350.43 603.492 L2414.43 603.492 L2414.43 539.492 L2350.43 539.492 Z" fill="#e26f46" fill-rule="evenodd" fill-opacity="0.7" stroke="#000000" stroke-opacity="0.7" stroke-width="3.2"/>
<path clip-path="url(#clip193)" d="M2407.11 475.564 L2407.11 539.564 L2471.11 539.564 L2471.11 475.564 L2407.11 475.564 Z" fill="#e26f46" fill-rule="evenodd" fill-opacity="0.7" stroke="#000000" stroke-opacity="0.7" stroke-width="3.2"/>
<path clip-path="url(#clip193)" d="M2463.79 455.395 L2463.79 519.395 L2527.79 519.395 L2527.79 455.395 L2463.79 455.395 Z" fill="#e26f46" fill-rule="evenodd" fill-opacity="0.7" stroke="#000000" stroke-opacity="0.7" stroke-width="3.2"/>
<path clip-path="url(#clip193)" d="M2520.47 583.349 L2520.47 647.349 L2584.47 647.349 L2584.47 583.349 L2520.47 583.349 Z" fill="#e26f46" fill-rule="evenodd" fill-opacity="0.7" stroke="#000000" stroke-opacity="0.7" stroke-width="3.2"/>
<path clip-path="url(#clip193)" d="M2577.15 866.33 L2577.15 930.33 L2641.15 930.33 L2641.15 866.33 L2577.15 866.33 Z" fill="#e26f46" fill-rule="evenodd" fill-opacity="0.7" stroke="#000000" stroke-opacity="0.7" stroke-width="3.2"/>
<path clip-path="url(#clip193)" d="M2633.83 826.949 L2633.83 890.949 L2697.83 890.949 L2697.83 826.949 L2633.83 826.949 Z" fill="#e26f46" fill-rule="evenodd" fill-opacity="0.7" stroke="#000000" stroke-opacity="0.7" stroke-width="3.2"/>
<path clip-path="url(#clip193)" d="M2690.51 700.775 L2690.51 764.775 L2754.51 764.775 L2754.51 700.775 L2690.51 700.775 Z" fill="#e26f46" fill-rule="evenodd" fill-opacity="0.7" stroke="#000000" stroke-opacity="0.7" stroke-width="3.2"/>
<path clip-path="url(#clip193)" d="M2747.19 1048.51 L2747.19 1112.51 L2811.19 1112.51 L2811.19 1048.51 L2747.19 1048.51 Z" fill="#e26f46" fill-rule="evenodd" fill-opacity="0.7" stroke="#000000" stroke-opacity="0.7" stroke-width="3.2"/>
<path clip-path="url(#clip193)" d="M2803.87 839.761 L2803.87 903.761 L2867.87 903.761 L2867.87 839.761 L2803.87 839.761 Z" fill="#e26f46" fill-rule="evenodd" fill-opacity="0.7" stroke="#000000" stroke-opacity="0.7" stroke-width="3.2"/>
<path clip-path="url(#clip193)" d="M2860.56 978.189 L2860.56 1042.19 L2924.56 1042.19 L2924.56 978.189 L2860.56 978.189 Z" fill="#e26f46" fill-rule="evenodd" fill-opacity="0.7" stroke="#000000" stroke-opacity="0.7" stroke-width="3.2"/>
<path clip-path="url(#clip193)" d="M2917.24 1027.82 L2917.24 1091.82 L2981.24 1091.82 L2981.24 1027.82 L2917.24 1027.82 Z" fill="#e26f46" fill-rule="evenodd" fill-opacity="0.7" stroke="#000000" stroke-opacity="0.7" stroke-width="3.2"/>
<path clip-path="url(#clip193)" d="M2973.92 1031.58 L2973.92 1095.58 L3037.92 1095.58 L3037.92 1031.58 L2973.92 1031.58 Z" fill="#e26f46" fill-rule="evenodd" fill-opacity="0.7" stroke="#000000" stroke-opacity="0.7" stroke-width="3.2"/>
<path clip-path="url(#clip193)" d="M3030.6 1092.04 L3030.6 1156.04 L3094.6 1156.04 L3094.6 1092.04 L3030.6 1092.04 Z" fill="#e26f46" fill-rule="evenodd" fill-opacity="0.7" stroke="#000000" stroke-opacity="0.7" stroke-width="3.2"/>
<path clip-path="url(#clip193)" d="M3087.28 1152.84 L3087.28 1216.84 L3151.28 1216.84 L3151.28 1152.84 L3087.28 1152.84 Z" fill="#e26f46" fill-rule="evenodd" fill-opacity="0.7" stroke="#000000" stroke-opacity="0.7" stroke-width="3.2"/>
<path clip-path="url(#clip193)" d="M3143.96 1238.19 L3143.96 1302.19 L3207.96 1302.19 L3207.96 1238.19 L3143.96 1238.19 Z" fill="#e26f46" fill-rule="evenodd" fill-opacity="0.7" stroke="#000000" stroke-opacity="0.7" stroke-width="3.2"/>
<path clip-path="url(#clip193)" d="M3200.64 1234.1 L3200.64 1298.1 L3264.64 1298.1 L3264.64 1234.1 L3200.64 1234.1 Z" fill="#e26f46" fill-rule="evenodd" fill-opacity="0.7" stroke="#000000" stroke-opacity="0.7" stroke-width="3.2"/>
<path clip-path="url(#clip193)" d="M3257.32 1292.48 L3257.32 1356.48 L3321.32 1356.48 L3321.32 1292.48 L3257.32 1292.48 Z" fill="#e26f46" fill-rule="evenodd" fill-opacity="0.7" stroke="#000000" stroke-opacity="0.7" stroke-width="3.2"/>
<path clip-path="url(#clip193)" d="M3314 1216.4 L3314 1280.4 L3378 1280.4 L3378 1216.4 L3314 1216.4 Z" fill="#e26f46" fill-rule="evenodd" fill-opacity="0.7" stroke="#000000" stroke-opacity="0.7" stroke-width="3.2"/>
<path clip-path="url(#clip193)" d="M3370.68 1225.12 L3370.68 1289.12 L3434.68 1289.12 L3434.68 1225.12 L3370.68 1225.12 Z" fill="#e26f46" fill-rule="evenodd" fill-opacity="0.7" stroke="#000000" stroke-opacity="0.7" stroke-width="3.2"/>
<path clip-path="url(#clip193)" d="M3427.37 1288.1 L3427.37 1352.1 L3491.37 1352.1 L3491.37 1288.1 L3427.37 1288.1 Z" fill="#e26f46" fill-rule="evenodd" fill-opacity="0.7" stroke="#000000" stroke-opacity="0.7" stroke-width="3.2"/>
<path clip-path="url(#clip193)" d="M3484.05 1263.59 L3484.05 1327.59 L3548.05 1327.59 L3548.05 1263.59 L3484.05 1263.59 Z" fill="#e26f46" fill-rule="evenodd" fill-opacity="0.7" stroke="#000000" stroke-opacity="0.7" stroke-width="3.2"/>
<path clip-path="url(#clip193)" d="M3540.73 1277.96 L3540.73 1341.96 L3604.73 1341.96 L3604.73 1277.96 L3540.73 1277.96 Z" fill="#e26f46" fill-rule="evenodd" fill-opacity="0.7" stroke="#000000" stroke-opacity="0.7" stroke-width="3.2"/>
<path clip-path="url(#clip193)" d="M3597.41 1373.14 L3597.41 1437.14 L3661.41 1437.14 L3661.41 1373.14 L3597.41 1373.14 Z" fill="#e26f46" fill-rule="evenodd" fill-opacity="0.7" stroke="#000000" stroke-opacity="0.7" stroke-width="3.2"/>
<path clip-path="url(#clip193)" d="M3654.09 1381.73 L3654.09 1445.73 L3718.09 1445.73 L3718.09 1381.73 L3654.09 1381.73 Z" fill="#e26f46" fill-rule="evenodd" fill-opacity="0.7" stroke="#000000" stroke-opacity="0.7" stroke-width="3.2"/>
<defs>
  <clipPath id="clip194">
    <rect x="3852" y="47" width="1701" height="1475"/>
  </clipPath>
</defs>
<polyline clip-path="url(#clip194)" style="stroke:#000000; stroke-linecap:round; stroke-linejoin:round; stroke-width:2; stroke-opacity:0.1; fill:none" points="3852.33,1521.01 3852.33,47.2441 "/>
<polyline clip-path="url(#clip194)" style="stroke:#000000; stroke-linecap:round; stroke-linejoin:round; stroke-width:2; stroke-opacity:0.1; fill:none" points="4419.14,1521.01 4419.14,47.2441 "/>
<polyline clip-path="url(#clip194)" style="stroke:#000000; stroke-linecap:round; stroke-linejoin:round; stroke-width:2; stroke-opacity:0.1; fill:none" points="4985.95,1521.01 4985.95,47.2441 "/>
<polyline clip-path="url(#clip194)" style="stroke:#000000; stroke-linecap:round; stroke-linejoin:round; stroke-width:2; stroke-opacity:0.1; fill:none" points="5552.76,1521.01 5552.76,47.2441 "/>
<polyline clip-path="url(#clip194)" style="stroke:#000000; stroke-linecap:round; stroke-linejoin:round; stroke-width:2; stroke-opacity:0.1; fill:none" points="3852.33,1521.01 3852.33,47.2441 "/>
<polyline clip-path="url(#clip194)" style="stroke:#000000; stroke-linecap:round; stroke-linejoin:round; stroke-width:2; stroke-opacity:0.1; fill:none" points="4419.14,1521.01 4419.14,47.2441 "/>
<polyline clip-path="url(#clip194)" style="stroke:#000000; stroke-linecap:round; stroke-linejoin:round; stroke-width:2; stroke-opacity:0.1; fill:none" points="4985.95,1521.01 4985.95,47.2441 "/>
<polyline clip-path="url(#clip194)" style="stroke:#000000; stroke-linecap:round; stroke-linejoin:round; stroke-width:2; stroke-opacity:0.1; fill:none" points="5552.76,1521.01 5552.76,47.2441 "/>
<polyline clip-path="url(#clip194)" style="stroke:#000000; stroke-linecap:round; stroke-linejoin:round; stroke-width:2; stroke-opacity:0.1; fill:none" points="3852.33,1521.01 5552.76,1521.01 "/>
<polyline clip-path="url(#clip194)" style="stroke:#000000; stroke-linecap:round; stroke-linejoin:round; stroke-width:2; stroke-opacity:0.1; fill:none" points="3852.33,1226.26 5552.76,1226.26 "/>
<polyline clip-path="url(#clip194)" style="stroke:#000000; stroke-linecap:round; stroke-linejoin:round; stroke-width:2; stroke-opacity:0.1; fill:none" points="3852.33,931.502 5552.76,931.502 "/>
<polyline clip-path="url(#clip194)" style="stroke:#000000; stroke-linecap:round; stroke-linejoin:round; stroke-width:2; stroke-opacity:0.1; fill:none" points="3852.33,636.75 5552.76,636.75 "/>
<polyline clip-path="url(#clip194)" style="stroke:#000000; stroke-linecap:round; stroke-linejoin:round; stroke-width:2; stroke-opacity:0.1; fill:none" points="3852.33,341.997 5552.76,341.997 "/>
<polyline clip-path="url(#clip194)" style="stroke:#000000; stroke-linecap:round; stroke-linejoin:round; stroke-width:2; stroke-opacity:0.1; fill:none" points="3852.33,47.2441 5552.76,47.2441 "/>
<polyline clip-path="url(#clip194)" style="stroke:#000000; stroke-linecap:round; stroke-linejoin:round; stroke-width:2; stroke-opacity:0.1; fill:none" points="3852.33,1521.01 5552.76,1521.01 "/>
<polyline clip-path="url(#clip194)" style="stroke:#000000; stroke-linecap:round; stroke-linejoin:round; stroke-width:2; stroke-opacity:0.1; fill:none" points="3852.33,1226.26 5552.76,1226.26 "/>
<polyline clip-path="url(#clip194)" style="stroke:#000000; stroke-linecap:round; stroke-linejoin:round; stroke-width:2; stroke-opacity:0.1; fill:none" points="3852.33,931.502 5552.76,931.502 "/>
<polyline clip-path="url(#clip194)" style="stroke:#000000; stroke-linecap:round; stroke-linejoin:round; stroke-width:2; stroke-opacity:0.1; fill:none" points="3852.33,636.75 5552.76,636.75 "/>
<polyline clip-path="url(#clip194)" style="stroke:#000000; stroke-linecap:round; stroke-linejoin:round; stroke-width:2; stroke-opacity:0.1; fill:none" points="3852.33,341.997 5552.76,341.997 "/>
<polyline clip-path="url(#clip194)" style="stroke:#000000; stroke-linecap:round; stroke-linejoin:round; stroke-width:2; stroke-opacity:0.1; fill:none" points="3852.33,47.2441 5552.76,47.2441 "/>
<polyline clip-path="url(#clip190)" style="stroke:#000000; stroke-linecap:round; stroke-linejoin:round; stroke-width:4; stroke-opacity:1; fill:none" points="3852.33,1521.01 5552.76,1521.01 "/>
<polyline clip-path="url(#clip190)" style="stroke:#000000; stroke-linecap:round; stroke-linejoin:round; stroke-width:4; stroke-opacity:1; fill:none" points="3852.33,47.2441 5552.76,47.2441 "/>
<polyline clip-path="url(#clip190)" style="stroke:#000000; stroke-linecap:round; stroke-linejoin:round; stroke-width:4; stroke-opacity:1; fill:none" points="3852.33,1521.01 3852.33,1502.11 "/>
<polyline clip-path="url(#clip190)" style="stroke:#000000; stroke-linecap:round; stroke-linejoin:round; stroke-width:4; stroke-opacity:1; fill:none" points="4419.14,1521.01 4419.14,1502.11 "/>
<polyline clip-path="url(#clip190)" style="stroke:#000000; stroke-linecap:round; stroke-linejoin:round; stroke-width:4; stroke-opacity:1; fill:none" points="4985.95,1521.01 4985.95,1502.11 "/>
<polyline clip-path="url(#clip190)" style="stroke:#000000; stroke-linecap:round; stroke-linejoin:round; stroke-width:4; stroke-opacity:1; fill:none" points="5552.76,1521.01 5552.76,1502.11 "/>
<polyline clip-path="url(#clip190)" style="stroke:#000000; stroke-linecap:round; stroke-linejoin:round; stroke-width:4; stroke-opacity:1; fill:none" points="3852.33,47.2441 3852.33,66.1417 "/>
<polyline clip-path="url(#clip190)" style="stroke:#000000; stroke-linecap:round; stroke-linejoin:round; stroke-width:4; stroke-opacity:1; fill:none" points="4419.14,47.2441 4419.14,66.1417 "/>
<polyline clip-path="url(#clip190)" style="stroke:#000000; stroke-linecap:round; stroke-linejoin:round; stroke-width:4; stroke-opacity:1; fill:none" points="4985.95,47.2441 4985.95,66.1417 "/>
<polyline clip-path="url(#clip190)" style="stroke:#000000; stroke-linecap:round; stroke-linejoin:round; stroke-width:4; stroke-opacity:1; fill:none" points="5552.76,47.2441 5552.76,66.1417 "/>
<polyline clip-path="url(#clip190)" style="stroke:#000000; stroke-linecap:round; stroke-linejoin:round; stroke-width:4; stroke-opacity:1; fill:none" points="3852.33,1521.01 3852.33,47.2441 "/>
<polyline clip-path="url(#clip190)" style="stroke:#000000; stroke-linecap:round; stroke-linejoin:round; stroke-width:4; stroke-opacity:1; fill:none" points="5552.76,1521.01 5552.76,47.2441 "/>
<polyline clip-path="url(#clip190)" style="stroke:#000000; stroke-linecap:round; stroke-linejoin:round; stroke-width:4; stroke-opacity:1; fill:none" points="3852.33,1521.01 3871.22,1521.01 "/>
<polyline clip-path="url(#clip190)" style="stroke:#000000; stroke-linecap:round; stroke-linejoin:round; stroke-width:4; stroke-opacity:1; fill:none" points="3852.33,1226.26 3871.22,1226.26 "/>
<polyline clip-path="url(#clip190)" style="stroke:#000000; stroke-linecap:round; stroke-linejoin:round; stroke-width:4; stroke-opacity:1; fill:none" points="3852.33,931.502 3871.22,931.502 "/>
<polyline clip-path="url(#clip190)" style="stroke:#000000; stroke-linecap:round; stroke-linejoin:round; stroke-width:4; stroke-opacity:1; fill:none" points="3852.33,636.75 3871.22,636.75 "/>
<polyline clip-path="url(#clip190)" style="stroke:#000000; stroke-linecap:round; stroke-linejoin:round; stroke-width:4; stroke-opacity:1; fill:none" points="3852.33,341.997 3871.22,341.997 "/>
<polyline clip-path="url(#clip190)" style="stroke:#000000; stroke-linecap:round; stroke-linejoin:round; stroke-width:4; stroke-opacity:1; fill:none" points="3852.33,47.2441 3871.22,47.2441 "/>
<polyline clip-path="url(#clip190)" style="stroke:#000000; stroke-linecap:round; stroke-linejoin:round; stroke-width:4; stroke-opacity:1; fill:none" points="5552.76,1521.01 5533.86,1521.01 "/>
<polyline clip-path="url(#clip190)" style="stroke:#000000; stroke-linecap:round; stroke-linejoin:round; stroke-width:4; stroke-opacity:1; fill:none" points="5552.76,1226.26 5533.86,1226.26 "/>
<polyline clip-path="url(#clip190)" style="stroke:#000000; stroke-linecap:round; stroke-linejoin:round; stroke-width:4; stroke-opacity:1; fill:none" points="5552.76,931.502 5533.86,931.502 "/>
<polyline clip-path="url(#clip190)" style="stroke:#000000; stroke-linecap:round; stroke-linejoin:round; stroke-width:4; stroke-opacity:1; fill:none" points="5552.76,636.75 5533.86,636.75 "/>
<polyline clip-path="url(#clip190)" style="stroke:#000000; stroke-linecap:round; stroke-linejoin:round; stroke-width:4; stroke-opacity:1; fill:none" points="5552.76,341.997 5533.86,341.997 "/>
<polyline clip-path="url(#clip190)" style="stroke:#000000; stroke-linecap:round; stroke-linejoin:round; stroke-width:4; stroke-opacity:1; fill:none" points="5552.76,47.2441 5533.86,47.2441 "/>
<circle clip-path="url(#clip194)" cx="3909.01" cy="1463.97" r="28.8" fill="#e26f46" fill-rule="evenodd" fill-opacity="1" stroke="#000000" stroke-opacity="1" stroke-width="3.2"/>
<circle clip-path="url(#clip194)" cx="3965.69" cy="1461.95" r="28.8" fill="#e26f46" fill-rule="evenodd" fill-opacity="1" stroke="#000000" stroke-opacity="1" stroke-width="3.2"/>
<circle clip-path="url(#clip194)" cx="4022.37" cy="1402.64" r="28.8" fill="#e26f46" fill-rule="evenodd" fill-opacity="1" stroke="#000000" stroke-opacity="1" stroke-width="3.2"/>
<circle clip-path="url(#clip194)" cx="4079.05" cy="1243.47" r="28.8" fill="#e26f46" fill-rule="evenodd" fill-opacity="1" stroke="#000000" stroke-opacity="1" stroke-width="3.2"/>
<circle clip-path="url(#clip194)" cx="4135.73" cy="941.748" r="28.8" fill="#e26f46" fill-rule="evenodd" fill-opacity="1" stroke="#000000" stroke-opacity="1" stroke-width="3.2"/>
<circle clip-path="url(#clip194)" cx="4192.41" cy="791.208" r="28.8" fill="#e26f46" fill-rule="evenodd" fill-opacity="1" stroke="#000000" stroke-opacity="1" stroke-width="3.2"/>
<path clip-path="url(#clip194)" d="M4249.09 675.893 L4241.57 697.525 L4218.66 698.005 L4236.93 711.861 L4230.28 733.781 L4249.09 720.693 L4267.91 733.781 L4261.25 711.861 L4279.52 698.005 L4256.61 697.525 L4249.09 675.893 Z" fill="#e26f46" fill-rule="evenodd" fill-opacity="0.7" stroke="#000000" stroke-opacity="0.7" stroke-width="3.2"/>
<path clip-path="url(#clip194)" d="M4305.77 797.86 L4298.25 819.492 L4275.34 819.972 L4293.61 833.828 L4286.96 855.748 L4305.77 842.66 L4324.59 855.748 L4317.93 833.828 L4336.21 819.972 L4313.29 819.492 L4305.77 797.86 Z" fill="#e26f46" fill-rule="evenodd" fill-opacity="0.7" stroke="#000000" stroke-opacity="0.7" stroke-width="3.2"/>
<path clip-path="url(#clip194)" d="M4362.45 672.364 L4354.93 693.996 L4332.02 694.476 L4350.29 708.332 L4343.64 730.252 L4362.45 717.164 L4381.27 730.252 L4374.61 708.332 L4392.89 694.476 L4369.97 693.996 L4362.45 672.364 Z" fill="#e26f46" fill-rule="evenodd" fill-opacity="0.7" stroke="#000000" stroke-opacity="0.7" stroke-width="3.2"/>
<path clip-path="url(#clip194)" d="M4419.14 768.713 L4411.62 790.345 L4388.7 790.825 L4406.98 804.681 L4400.32 826.601 L4419.14 813.513 L4437.95 826.601 L4431.3 804.681 L4449.57 790.825 L4426.66 790.345 L4419.14 768.713 Z" fill="#e26f46" fill-rule="evenodd" fill-opacity="0.7" stroke="#000000" stroke-opacity="0.7" stroke-width="3.2"/>
<path clip-path="url(#clip194)" d="M4475.82 915.623 L4468.3 937.255 L4445.38 937.735 L4463.66 951.591 L4457 973.511 L4475.82 960.423 L4494.63 973.511 L4487.98 951.591 L4506.25 937.735 L4483.34 937.255 L4475.82 915.623 Z" fill="#e26f46" fill-rule="evenodd" fill-opacity="0.7" stroke="#000000" stroke-opacity="0.7" stroke-width="3.2"/>
<path clip-path="url(#clip194)" d="M4532.5 876.148 L4524.98 897.78 L4502.07 898.26 L4520.34 912.116 L4513.68 934.036 L4532.5 920.948 L4551.31 934.036 L4544.66 912.116 L4562.93 898.26 L4540.02 897.78 L4532.5 876.148 Z" fill="#e26f46" fill-rule="evenodd" fill-opacity="0.7" stroke="#000000" stroke-opacity="0.7" stroke-width="3.2"/>
<path clip-path="url(#clip194)" d="M4589.18 838.821 L4581.66 860.453 L4558.75 860.933 L4577.02 874.789 L4570.36 896.709 L4589.18 883.621 L4607.99 896.709 L4601.34 874.789 L4619.61 860.933 L4596.7 860.453 L4589.18 838.821 Z" fill="#e26f46" fill-rule="evenodd" fill-opacity="0.7" stroke="#000000" stroke-opacity="0.7" stroke-width="3.2"/>
<path clip-path="url(#clip194)" d="M4645.86 911.191 L4638.34 932.823 L4615.43 933.303 L4633.7 947.159 L4627.04 969.079 L4645.86 955.991 L4664.68 969.079 L4658.02 947.159 L4676.29 933.303 L4653.38 932.823 L4645.86 911.191 Z" fill="#e26f46" fill-rule="evenodd" fill-opacity="0.7" stroke="#000000" stroke-opacity="0.7" stroke-width="3.2"/>
<path clip-path="url(#clip194)" d="M4702.54 971.333 L4695.02 992.965 L4672.11 993.445 L4690.38 1007.3 L4683.72 1029.22 L4702.54 1016.13 L4721.36 1029.22 L4714.7 1007.3 L4732.97 993.445 L4710.06 992.965 L4702.54 971.333 Z" fill="#e26f46" fill-rule="evenodd" fill-opacity="0.7" stroke="#000000" stroke-opacity="0.7" stroke-width="3.2"/>
<path clip-path="url(#clip194)" d="M4759.22 1098.79 L4751.7 1120.42 L4728.79 1120.9 L4747.06 1134.76 L4740.41 1156.68 L4759.22 1143.59 L4778.04 1156.68 L4771.38 1134.76 L4789.65 1120.9 L4766.74 1120.42 L4759.22 1098.79 Z" fill="#e26f46" fill-rule="evenodd" fill-opacity="0.7" stroke="#000000" stroke-opacity="0.7" stroke-width="3.2"/>
<path clip-path="url(#clip194)" d="M4815.9 1024.37 L4808.38 1046 L4785.47 1046.48 L4803.74 1060.33 L4797.09 1082.25 L4815.9 1069.17 L4834.72 1082.25 L4828.06 1060.33 L4846.33 1046.48 L4823.42 1046 L4815.9 1024.37 Z" fill="#e26f46" fill-rule="evenodd" fill-opacity="0.7" stroke="#000000" stroke-opacity="0.7" stroke-width="3.2"/>
<path clip-path="url(#clip194)" d="M4872.58 1129.99 L4865.06 1151.62 L4842.15 1152.1 L4860.42 1165.96 L4853.77 1187.88 L4872.58 1174.79 L4891.4 1187.88 L4884.74 1165.96 L4903.02 1152.1 L4880.1 1151.62 L4872.58 1129.99 Z" fill="#e26f46" fill-rule="evenodd" fill-opacity="0.7" stroke="#000000" stroke-opacity="0.7" stroke-width="3.2"/>
<path clip-path="url(#clip194)" d="M4929.26 1143.95 L4921.74 1165.58 L4898.83 1166.06 L4917.1 1179.92 L4910.45 1201.84 L4929.26 1188.75 L4948.08 1201.84 L4941.42 1179.92 L4959.7 1166.06 L4936.78 1165.58 L4929.26 1143.95 Z" fill="#e26f46" fill-rule="evenodd" fill-opacity="0.7" stroke="#000000" stroke-opacity="0.7" stroke-width="3.2"/>
<path clip-path="url(#clip194)" d="M4985.95 1157.26 L4978.43 1178.89 L4955.51 1179.37 L4973.79 1193.23 L4967.13 1215.15 L4985.95 1202.06 L5004.76 1215.15 L4998.11 1193.23 L5016.38 1179.37 L4993.47 1178.89 L4985.95 1157.26 Z" fill="#e26f46" fill-rule="evenodd" fill-opacity="0.7" stroke="#000000" stroke-opacity="0.7" stroke-width="3.2"/>
<path clip-path="url(#clip194)" d="M5042.63 1151.2 L5035.11 1172.83 L5012.19 1173.31 L5030.47 1187.17 L5023.81 1209.09 L5042.63 1196 L5061.44 1209.09 L5054.79 1187.17 L5073.06 1173.31 L5050.15 1172.83 L5042.63 1151.2 Z" fill="#e26f46" fill-rule="evenodd" fill-opacity="0.7" stroke="#000000" stroke-opacity="0.7" stroke-width="3.2"/>
<path clip-path="url(#clip194)" d="M5099.31 1216.54 L5091.79 1238.17 L5068.88 1238.65 L5087.15 1252.51 L5080.49 1274.43 L5099.31 1261.34 L5118.12 1274.43 L5111.47 1252.51 L5129.74 1238.65 L5106.83 1238.17 L5099.31 1216.54 Z" fill="#e26f46" fill-rule="evenodd" fill-opacity="0.7" stroke="#000000" stroke-opacity="0.7" stroke-width="3.2"/>
<path clip-path="url(#clip194)" d="M5155.99 1291.19 L5148.47 1312.82 L5125.56 1313.3 L5143.83 1327.16 L5137.17 1349.08 L5155.99 1335.99 L5174.8 1349.08 L5168.15 1327.16 L5186.42 1313.3 L5163.51 1312.82 L5155.99 1291.19 Z" fill="#e26f46" fill-rule="evenodd" fill-opacity="0.7" stroke="#000000" stroke-opacity="0.7" stroke-width="3.2"/>
<path clip-path="url(#clip194)" d="M5212.67 1259.73 L5205.15 1281.36 L5182.24 1281.84 L5200.51 1295.69 L5193.85 1317.61 L5212.67 1304.53 L5231.49 1317.61 L5224.83 1295.69 L5243.1 1281.84 L5220.19 1281.36 L5212.67 1259.73 Z" fill="#e26f46" fill-rule="evenodd" fill-opacity="0.7" stroke="#000000" stroke-opacity="0.7" stroke-width="3.2"/>
<path clip-path="url(#clip194)" d="M5269.35 1321.87 L5261.83 1343.5 L5238.92 1343.98 L5257.19 1357.84 L5250.53 1379.76 L5269.35 1366.67 L5288.17 1379.76 L5281.51 1357.84 L5299.78 1343.98 L5276.87 1343.5 L5269.35 1321.87 Z" fill="#e26f46" fill-rule="evenodd" fill-opacity="0.7" stroke="#000000" stroke-opacity="0.7" stroke-width="3.2"/>
<path clip-path="url(#clip194)" d="M5326.03 1309.53 L5318.51 1331.16 L5295.6 1331.64 L5313.87 1345.5 L5307.22 1367.42 L5326.03 1354.33 L5344.85 1367.42 L5338.19 1345.5 L5356.46 1331.64 L5333.55 1331.16 L5326.03 1309.53 Z" fill="#e26f46" fill-rule="evenodd" fill-opacity="0.7" stroke="#000000" stroke-opacity="0.7" stroke-width="3.2"/>
<path clip-path="url(#clip194)" d="M5382.71 1338.21 L5375.19 1359.84 L5352.28 1360.32 L5370.55 1374.18 L5363.9 1396.1 L5382.71 1383.01 L5401.53 1396.1 L5394.87 1374.18 L5413.14 1360.32 L5390.23 1359.84 L5382.71 1338.21 Z" fill="#e26f46" fill-rule="evenodd" fill-opacity="0.7" stroke="#000000" stroke-opacity="0.7" stroke-width="3.2"/>
<path clip-path="url(#clip194)" d="M5439.39 1364.45 L5431.87 1386.08 L5408.96 1386.56 L5427.23 1400.41 L5420.58 1422.33 L5439.39 1409.25 L5458.21 1422.33 L5451.55 1400.41 L5469.83 1386.56 L5446.91 1386.08 L5439.39 1364.45 Z" fill="#e26f46" fill-rule="evenodd" fill-opacity="0.7" stroke="#000000" stroke-opacity="0.7" stroke-width="3.2"/>
<path clip-path="url(#clip194)" d="M5496.07 1355.51 L5488.55 1377.14 L5465.64 1377.62 L5483.91 1391.48 L5477.26 1413.4 L5496.07 1400.31 L5514.89 1413.4 L5508.23 1391.48 L5526.51 1377.62 L5503.59 1377.14 L5496.07 1355.51 Z" fill="#e26f46" fill-rule="evenodd" fill-opacity="0.7" stroke="#000000" stroke-opacity="0.7" stroke-width="3.2"/>
<path clip-path="url(#clip194)" d="M5552.76 1380.23 L5545.24 1401.87 L5522.32 1402.35 L5540.6 1416.2 L5533.94 1438.12 L5552.76 1425.03 L5571.57 1438.12 L5564.92 1416.2 L5583.19 1402.35 L5560.28 1401.87 L5552.76 1380.23 Z" fill="#e26f46" fill-rule="evenodd" fill-opacity="0.7" stroke="#000000" stroke-opacity="0.7" stroke-width="3.2"/>
</svg>
